<?xml version="1.0" encoding="UTF-8"?>
<svg version="1.1" xmlns="http://www.w3.org/2000/svg" width="1024" height="1024">
<path d="M0 0 C337.92 0 675.84 0 1024 0 C1024 337.92 1024 675.84 1024 1024 C686.08 1024 348.16 1024 0 1024 C0 686.08 0 348.16 0 0 Z " fill="#FEFEFE" transform="translate(0,0)"/>
<path d="M0 0 C3.99805788 2.48745666 5.82858898 6.2079592 7.86328125 10.27734375 C11.93966933 41.41827566 -14.8931549 79.11806635 -31.13671875 103.27734375 C-31.72098633 104.14762207 -32.30525391 105.01790039 -32.90722656 105.91455078 C-40.7489139 117.51687061 -49.06496326 128.60936629 -58.13671875 139.27734375 C-58.84441406 140.11652344 -59.55210937 140.95570313 -60.28125 141.8203125 C-63.9289769 146.00044924 -67.72947394 149.8556758 -71.7734375 153.65234375 C-84.63979503 165.35960883 -84.63979503 165.35960883 -90.13671875 181.27734375 C-90.56210937 183.03111328 -90.56210937 183.03111328 -90.99609375 184.8203125 C-92.88822413 192.96145241 -93.46521545 200.92529822 -93.57421875 209.27734375 C-93.59645508 210.24462402 -93.61869141 211.2119043 -93.64160156 212.20849609 C-93.62288806 218.21033122 -92.93207568 223.4176004 -89.13671875 228.27734375 C-85.55100969 229.78334155 -83.45092773 229.72121566 -79.77734375 228.48046875 C-63.9236232 221.29213583 -50.50613103 204.16699459 -44.13671875 188.27734375 C-43.48561836 186.46610085 -42.83480645 184.65470843 -42.19873047 182.83813477 C-33.2483718 157.61873396 -16.72706064 129.81215071 7.86328125 117.27734375 C18.82840637 112.25230763 29.8252988 110.07532966 41.60546875 114.109375 C46.93638655 116.86706431 50.3976208 121.68273274 52.80078125 127.08984375 C56.0373248 137.46701149 53.15871352 147.17511904 48.73046875 156.71875 C38.94738354 175.34548508 20.93186561 187.19018082 1.5234375 194.28125 C-6.21364438 196.38685926 -14.19080464 197.30291959 -22.13671875 198.27734375 C-23.34281087 203.07229535 -23.3924733 207.80068743 -23.44921875 212.71484375 C-23.49272461 213.96491211 -23.49272461 213.96491211 -23.53710938 215.24023438 C-23.59370893 220.74780609 -22.93019471 223.99271929 -19.13671875 228.27734375 C-13.63102221 232.5515029 -7.80312233 232.04994019 -1.13671875 231.27734375 C12.37929392 227.73293483 22.93484991 219.79423389 32.86328125 210.27734375 C33.45496094 209.73722656 34.04664063 209.19710937 34.65625 208.640625 C43.64101907 200.1680518 53.50767066 188.47462619 58.30078125 177.02734375 C69.53071906 151.55202186 89.45933021 125.94333771 115.81640625 115.0546875 C125.66715838 111.31365759 134.08306466 111.22505121 143.86328125 115.27734375 C146.54370119 117.12013246 148.57668045 118.99074295 150.86328125 121.27734375 C152.41015625 120.10171875 152.41015625 120.10171875 153.98828125 118.90234375 C159.93536583 114.70370204 165.65429015 113.41483946 172.86328125 114.27734375 C178.46328125 116.47734375 178.46328125 116.47734375 179.86328125 119.27734375 C180.59634055 124.19931333 179.75316359 126.86904122 177.2890625 131.1796875 C176.7432251 132.15204346 176.1973877 133.12439941 175.63500977 134.1262207 C174.75800415 135.68602661 174.75800415 135.68602661 173.86328125 137.27734375 C161.65427421 159.80425618 150.91120044 182.55232644 143.86328125 207.27734375 C143.54617188 208.27636719 143.2290625 209.27539062 142.90234375 210.3046875 C140.96170957 216.65180754 140.22626895 222.63771556 140.86328125 229.27734375 C141.19328125 229.60734375 141.52328125 229.93734375 141.86328125 230.27734375 C150.85415824 230.09385646 155.98360715 224.37799899 161.98828125 218.21484375 C166.91736541 212.83917058 171.0464633 206.94501625 175.11328125 200.90234375 C175.67934082 200.06566162 176.24540039 199.22897949 176.82861328 198.36694336 C184.38470136 186.86323421 189.75341713 174.55982166 194.73828125 161.77734375 C195.25506034 160.47035467 195.77273381 159.1637189 196.29125977 157.85742188 C198.27324301 152.86115559 200.24326006 147.86026124 202.20361328 142.85546875 C203.39297665 139.82547895 204.59555317 136.80104985 205.80078125 133.77734375 C206.14157715 132.89498047 206.48237305 132.01261719 206.83349609 131.10351562 C209.13553422 125.35802626 211.63616472 120.305817 217.05078125 116.90234375 C222.07969166 115.7848081 227.33332222 115.22854517 232.171875 117.234375 C234.51109291 120.05980448 234.42218551 122.06708885 234.25439453 125.6640625 C233.51164149 130.62687683 231.65964944 135.13968585 229.80078125 139.77734375 C229.39609619 140.82019531 228.99141113 141.86304688 228.57446289 142.9375 C227.35637205 146.05872314 226.11524723 149.16956967 224.86328125 152.27734375 C224.49589844 153.19 224.12851562 154.10265625 223.75 155.04296875 C221.82419126 159.80339485 219.86205988 164.54711523 217.86328125 169.27734375 C218.46462891 168.47683594 218.46462891 168.47683594 219.078125 167.66015625 C223.71765952 161.57931508 228.69170735 155.90807609 233.86328125 150.27734375 C234.80405461 149.23237291 235.74413012 148.18677348 236.68359375 147.140625 C266.98618889 113.58935975 266.98618889 113.58935975 283.01171875 112.07421875 C288.05446704 111.96805563 291.59147492 112.29701375 295.86328125 115.27734375 C299.50409387 118.91815637 300.19565745 122.10797452 300.42578125 127.08984375 C300.19369223 132.22452976 299.37011936 136.93274994 297.90625 141.84375 C297.58294708 142.9321669 297.58294708 142.9321669 297.25311279 144.04257202 C294.44109078 153.11103914 290.64799996 161.7794663 286.87762451 170.48181152 C284.73413463 175.43310241 282.62593799 180.39943988 280.51171875 185.36328125 C279.89709274 186.80278137 279.89709274 186.80278137 279.27005005 188.2713623 C276.18729439 195.49509443 273.14495013 202.7305246 270.23828125 210.02734375 C269.89120117 210.87441895 269.54412109 211.72149414 269.18652344 212.59423828 C267.1188551 217.85947818 266.27945517 222.63087602 265.86328125 228.27734375 C270.48746932 228.85536726 272.95675233 228.58691343 276.73828125 225.77734375 C278.1281804 224.62846757 279.50258805 223.4606654 280.86328125 222.27734375 C281.94802734 221.38982422 281.94802734 221.38982422 283.0546875 220.484375 C295.19980749 210.24023031 305.68790492 195.9744206 313.0234375 181.8515625 C313.86328125 180.27734375 313.86328125 180.27734375 314.86328125 179.27734375 C317.80078125 179.08984375 317.80078125 179.08984375 320.86328125 179.27734375 C321.52328125 179.93734375 322.18328125 180.59734375 322.86328125 181.27734375 C322.62284574 186.9841512 320.79192181 191.02507747 317.98828125 195.83984375 C317.39152588 196.87866699 317.39152588 196.87866699 316.78271484 197.93847656 C305.99243914 216.21562699 287.45183952 240.39445347 266.86328125 247.27734375 C260.24956516 247.91471063 253.36796222 248.43941961 247.86328125 244.27734375 C242.73756269 239.24879521 240.74506104 235.6282689 240.61328125 228.40234375 C241.02494995 204.14555712 253.35848047 179.41090495 262.54980469 157.43945312 C264.59796429 152.50864212 266.5766168 147.55064534 268.55078125 142.58984375 C268.88988525 141.7397876 269.22898926 140.88973145 269.57836914 140.01391602 C270.3408837 138.10207488 271.10223584 136.18977018 271.86328125 134.27734375 C266.62410599 136.24203447 262.89670414 138.60950512 258.86328125 142.52734375 C258.3427417 143.02041016 257.82220215 143.51347656 257.28588867 144.02148438 C255.80329019 145.4313272 254.33289436 146.85397017 252.86328125 148.27734375 C252.19941406 148.90125 251.53554688 149.52515625 250.8515625 150.16796875 C237.80273266 162.69971209 227.17393111 178.44508 216.86328125 193.27734375 C216.41259277 193.92203613 215.9619043 194.56672852 215.49755859 195.23095703 C207.37791966 206.90911599 200.22783226 219.08140607 193.2109375 231.44140625 C185.49822971 244.95986952 185.49822971 244.95986952 182.86328125 246.27734375 C177.88615698 246.69410778 173.35302659 246.9328317 168.73828125 244.90234375 C166.86328125 243.27734375 166.86328125 243.27734375 165.86328125 241.27734375 C165.94921875 239.25390625 165.94921875 239.25390625 166.23828125 236.90234375 C166.32851563 236.13148438 166.41875 235.360625 166.51171875 234.56640625 C166.84103581 232.42218626 167.29931572 230.37070734 167.86328125 228.27734375 C167.10144531 229.07398438 166.33960938 229.870625 165.5546875 230.69140625 C149.45273797 247.30103955 149.45273797 247.30103955 138.67578125 247.58984375 C133.26851362 247.51127051 129.11222508 246.75550412 124.86328125 243.27734375 C118.49292027 235.38190882 117.97808846 227.07964494 118.86328125 217.27734375 C119.84231432 211.2008359 121.33456133 205.23525666 122.86328125 199.27734375 C122.41339844 199.98117187 121.96351563 200.685 121.5 201.41015625 C110.42689117 218.40815498 95.92753956 240.58925765 75.86328125 247.27734375 C68.84499701 247.94940927 62.3757288 248.30888528 56.515625 243.97265625 C51.21341969 238.53256854 48.88140204 231.96689278 48.546875 224.51171875 C48.50498047 223.62226562 48.46308594 222.7328125 48.41992188 221.81640625 C48.36094727 220.43582031 48.36094727 220.43582031 48.30078125 219.02734375 C48.25759766 218.09148437 48.21441406 217.155625 48.16992188 216.19140625 C48.06410075 213.88685734 47.96201568 211.58220536 47.86328125 209.27734375 C47.3528125 209.94378906 46.84234375 210.61023438 46.31640625 211.296875 C33.67003249 227.32906869 16.24697152 242.51907151 -4.13671875 247.27734375 C-7.43320929 247.59613221 -10.70143879 247.64735087 -14.01171875 247.65234375 C-14.85863281 247.67683594 -15.70554687 247.70132813 -16.578125 247.7265625 C-25.39483313 247.76706805 -33.68303778 244.37695744 -40.13671875 238.27734375 C-45.90671176 230.88501849 -47.4476788 223.45245473 -48.13671875 214.27734375 C-48.67039062 214.95539063 -49.2040625 215.6334375 -49.75390625 216.33203125 C-57.80204239 226.38523936 -66.11736766 235.42935585 -77.13671875 242.27734375 C-77.89210938 242.78523437 -78.6475 243.293125 -79.42578125 243.81640625 C-86.88011081 248.27903164 -94.7433044 248.37710978 -103.13671875 247.27734375 C-106.38914976 246.10894844 -108.64504737 244.65004939 -111.13671875 242.27734375 C-111.89984375 241.57609375 -112.66296875 240.87484375 -113.44921875 240.15234375 C-121.62376606 226.22533722 -118.71434406 208.03127241 -115.79296875 192.9375 C-115.01906449 189.24089481 -115.01906449 189.24089481 -115.13671875 185.27734375 C-116.05453125 185.77105469 -116.97234375 186.26476562 -117.91796875 186.7734375 C-130.00829813 193.13477534 -130.00829813 193.13477534 -137.13671875 193.27734375 C-137.37132812 194.1075 -137.6059375 194.93765625 -137.84765625 195.79296875 C-139.36928686 199.9059824 -141.41313412 203.34187249 -143.76171875 207.02734375 C-144.21047363 207.7347168 -144.65922852 208.44208984 -145.12158203 209.17089844 C-154.77453344 224.18355253 -168.55946805 241.66184716 -186.48828125 246.83984375 C-194.43164891 248.15202248 -204.48529134 249.08524892 -211.53515625 244.58203125 C-218.50930796 238.90064912 -221.81168861 232.22600699 -223.13671875 223.27734375 C-224.25157801 210.68432607 -223.04939267 198.53484651 -220.13671875 186.27734375 C-220.74257813 186.60347656 -221.3484375 186.92960938 -221.97265625 187.265625 C-226.46867993 189.61047428 -230.24202282 191.34950418 -235.26171875 192.15234375 C-239.02550057 193.17989729 -240.0006839 194.07570705 -242.2265625 197.375 C-243.61837202 199.97520757 -244.88241005 202.63159633 -246.15234375 205.29296875 C-254.19944032 222.04308826 -271.3394372 239.84364206 -288.7890625 246.46484375 C-296.62553677 248.36681183 -306.39776851 249.01386119 -313.88671875 245.65234375 C-320.81856445 241.2116301 -324.44946601 234.14975023 -326.67382812 226.40795898 C-332.06417231 201.59702347 -320.93432276 174.00233244 -307.93261719 153.36621094 C-302.17846711 144.58404968 -295.49790599 136.74444735 -288.13671875 129.27734375 C-287.31300781 128.44074219 -286.48929687 127.60414063 -285.640625 126.7421875 C-277.24748972 118.69820665 -266.99825739 112.9113388 -255.26171875 111.96484375 C-248.22043858 112.19637521 -241.8914396 114.52528882 -236.70703125 119.3359375 C-228.39834495 129.60811931 -228.20633891 142.72760473 -229.13671875 155.27734375 C-230.32586397 164.38934812 -231.9974252 173.62307504 -235.13671875 182.27734375 C-223.89655346 179.02923515 -216.04565747 174.22708216 -210.26171875 163.83984375 C-209.94662354 163.24840576 -209.63152832 162.65696777 -209.30688477 162.04760742 C-199.51788554 143.70258372 -183.44648744 121.05621884 -162.97265625 113.8671875 C-155.02533988 112.21423327 -144.8665939 111.48270348 -137.7421875 115.94921875 C-130.83119788 121.66633912 -127.31255251 128.35360537 -126.13671875 137.27734375 C-125.32664799 151.6951663 -125.56415272 169.13221168 -132.13671875 182.27734375 C-126.51278249 180.62765578 -121.88117966 178.83568943 -117.13671875 175.27734375 C-116.24984375 174.67921875 -115.36296875 174.08109375 -114.44921875 173.46484375 C-108.62634368 167.95671869 -107.53246194 158.61758762 -105.57421875 151.15234375 C-92.06135399 101.09519377 -70.53987852 33.64614464 -25.14453125 2.984375 C-17.75020952 -1.21214265 -8.23541286 -2.78528589 0 0 Z " fill="#E1BD3D" transform="translate(631.13671875,350.72265625)"/>
<path d="M0 0 C8.99173089 8.67009822 15.22520373 20.87077094 15.8125 33.46484375 C16.07160622 51.69155111 11.60820423 67.90848789 -1.24169922 81.29833984 C-14.09956204 94.17357229 -29.27282615 101.93320878 -46.48828125 107.421875 C-48.48874118 108.08716029 -50.48888158 108.75341004 -52.48828125 109.421875 C-51.77285156 109.62941406 -51.05742187 109.83695313 -50.3203125 110.05078125 C-36.1973088 114.41740206 -21.82789193 121.55469911 -13.515625 134.36328125 C-7.07221807 147.27459475 -7.26957176 159.21598347 -11.2265625 172.80859375 C-18.77146555 194.41551426 -37.05310599 210.23150139 -56.97143555 220.35205078 C-76.80251197 229.91691268 -104.03414915 235.24337005 -125.48828125 228.421875 C-129.30499289 226.99933128 -132.89339742 225.3341609 -136.48828125 223.421875 C-137.68130859 222.79152344 -137.68130859 222.79152344 -138.8984375 222.1484375 C-145.60694932 218.16705656 -151.86932741 211.68347499 -154.20703125 204.0859375 C-154.29984375 203.53679687 -154.39265625 202.98765625 -154.48828125 202.421875 C-155.14828125 202.421875 -155.80828125 202.421875 -156.48828125 202.421875 C-156.87886719 203.26685547 -156.87886719 203.26685547 -157.27734375 204.12890625 C-163.5296987 215.96804288 -174.47034399 224.70182374 -187.11328125 228.765625 C-187.89703125 228.9821875 -188.68078125 229.19875 -189.48828125 229.421875 C-190.11476562 229.61265625 -190.74125 229.8034375 -191.38671875 230 C-201.60707081 232.05166919 -211.91159657 230.56509728 -220.92578125 225.484375 C-224.88622645 222.2966996 -226.20648189 220.64971506 -227.36328125 215.609375 C-227.85772199 210.19070808 -225.87476334 206.28645436 -222.67578125 201.984375 C-220.48828125 200.421875 -220.48828125 200.421875 -217.48828125 199.921875 C-213.77674025 200.54046517 -212.78556602 201.4908565 -210.48828125 204.421875 C-209.97265625 205.288125 -209.45703125 206.154375 -208.92578125 207.046875 C-207.56210386 209.67931104 -207.56210386 209.67931104 -204.48828125 211.421875 C-195.82976922 212.57553369 -188.62238722 211.55741937 -181.48828125 206.421875 C-168.25767271 195.32347197 -162.61715826 174.75483047 -155.99894714 159.27084351 C-145.51984949 134.78310093 -134.79434978 110.24976965 -122.58691406 86.56591797 C-121.31775856 84.08909049 -120.07218137 81.60085157 -118.82421875 79.11328125 C-89.02918664 20.26884346 -89.02918664 20.26884346 -65.48828125 12.421875 C-63.42683018 12.352884 -61.36326724 12.33719773 -59.30078125 12.359375 C-57.67076172 12.37291016 -57.67076172 12.37291016 -56.0078125 12.38671875 C-55.17636719 12.39832031 -54.34492188 12.40992188 -53.48828125 12.421875 C-55.68813439 16.38161066 -57.99396794 20.20326435 -60.48828125 23.984375 C-65.81457582 32.29385172 -70.38038772 41.04429122 -75.04541016 49.73583984 C-76.31524356 52.09974968 -77.59355187 54.45878255 -78.875 56.81640625 C-84.22518425 66.7221812 -89.10117966 76.83362655 -93.91015625 87.01171875 C-96.36001081 92.18727026 -98.90511975 97.31173785 -101.48828125 102.421875 C-72.86523613 102.62487532 -47.15028976 92.3126368 -26.23828125 72.671875 C-14.86310559 60.85778581 -8.09188017 45.79477534 -8.26953125 29.33984375 C-8.79713657 22.30196569 -10.7170827 16.68664582 -15.48828125 11.421875 C-15.48828125 10.761875 -15.48828125 10.101875 -15.48828125 9.421875 C-16.05804688 9.14214844 -16.6278125 8.86242187 -17.21484375 8.57421875 C-18.68532616 7.82887113 -20.14036647 7.05187159 -21.57421875 6.23828125 C-33.91838496 -0.5236255 -47.06115493 -1.15949582 -60.80078125 -1.078125 C-61.5832019 -1.07669495 -62.36562256 -1.07526489 -63.17175293 -1.0737915 C-95.05383364 -0.93036833 -123.75623271 8.03055335 -148.48828125 28.421875 C-148.99343262 28.83663086 -149.49858398 29.25138672 -150.01904297 29.67871094 C-163.4642058 40.87108262 -175.46362253 56.82805863 -178.48828125 74.421875 C-178.79344339 78.27645993 -178.96560057 82.1363446 -179.02270508 86.00244141 C-179.15051735 90.84458044 -179.79684542 94.23237583 -182.48828125 98.421875 C-185.48828125 100.421875 -185.48828125 100.421875 -188.80078125 100.296875 C-194.98170667 98.83021473 -199.01419993 95.69289494 -202.48828125 90.421875 C-207.12668494 81.47638217 -206.85326612 70.81120084 -203.92578125 61.296875 C-198.22813135 46.39069939 -189.21436618 34.98048999 -178.48828125 23.421875 C-177.95976562 22.82761719 -177.43125 22.23335938 -176.88671875 21.62109375 C-154.62911204 -2.29156576 -119.14672259 -15.31813643 -87.48828125 -19.578125 C-86.27785156 -19.74634766 -86.27785156 -19.74634766 -85.04296875 -19.91796875 C-55.40433271 -23.30922334 -23.41075223 -19.90414883 0 0 Z " fill="#E1BD3D" transform="translate(304.48828125,372.578125)"/>
<path d="M0 0 C6.52489935 4.89721296 9.89645399 12.91119015 11.05078125 20.8515625 C12.0322094 36.03956532 10.26067115 51.48916333 5.05078125 65.8515625 C16.29094654 62.6034539 24.14184253 57.80130091 29.92578125 47.4140625 C30.39842407 46.52690552 30.39842407 46.52690552 30.88061523 45.62182617 C36.70365247 34.70919316 44.1337508 24.63370016 52.36328125 15.4140625 C52.83024414 14.87644287 53.29720703 14.33882324 53.77832031 13.78491211 C57.30561371 9.98729231 60.12915037 8.87257164 65.05078125 7.8515625 C65.38078125 8.1815625 65.71078125 8.5115625 66.05078125 8.8515625 C66.71078125 8.5215625 67.37078125 8.1915625 68.05078125 7.8515625 C67.72078125 10.1615625 67.39078125 12.4715625 67.05078125 14.8515625 C68.04078125 15.1815625 69.03078125 15.5115625 70.05078125 15.8515625 C69.72078125 16.5115625 69.39078125 17.1715625 69.05078125 17.8515625 C69.14801576 19.84177771 69.14801576 19.84177771 69.48828125 21.9765625 C69.67390625 23.2553125 69.85953125 24.5340625 70.05078125 25.8515625 C70.87578125 24.8409375 71.70078125 23.8303125 72.55078125 22.7890625 C76.80558683 17.86191736 81.08386569 12.9356278 87.30078125 10.6640625 C90.05078125 10.8515625 90.05078125 10.8515625 92.30078125 12.4765625 C99.60381664 22.38782482 97.87553456 37.426535 96.12207031 49.01074219 C95.93209473 50.16944824 95.93209473 50.16944824 95.73828125 51.3515625 C95.6206543 52.08020508 95.50302734 52.80884766 95.38183594 53.55957031 C94.48203544 58.59246976 92.95764721 63.10843372 91.05078125 67.8515625 C82.26514885 66.28269957 76.23570509 62.19687127 71.05078125 54.8515625 C71.25703125 55.4290625 71.46328125 56.0065625 71.67578125 56.6015625 C72.13739386 59.37123817 71.4802307 60.49717517 70.05078125 62.8515625 C69.06078125 62.8515625 68.07078125 62.8515625 67.05078125 62.8515625 C66.58175152 66.74424308 66.58175152 66.74424308 68.59765625 68.4140625 C74.7679849 72.44009254 80.98316519 74.81857649 88.05078125 76.8515625 C82.00071905 91.73246084 73.15639824 107.04203532 58.5390625 114.921875 C54.32080114 116.49792869 50.45506865 116.78727191 46.05078125 115.8515625 C42.17355608 113.33136614 41.24215789 110.2199435 40.05078125 105.8515625 C38.07078125 107.3365625 38.07078125 107.3365625 36.05078125 108.8515625 C34.98828125 106.9765625 34.98828125 106.9765625 34.05078125 104.8515625 C34.38078125 104.1915625 34.71078125 103.5315625 35.05078125 102.8515625 C32.74078125 102.1915625 30.43078125 101.5315625 28.05078125 100.8515625 C28.05078125 101.5115625 28.05078125 102.1715625 28.05078125 102.8515625 C26.40078125 103.1815625 24.75078125 103.5115625 23.05078125 103.8515625 C22.55578125 105.3365625 22.55578125 105.3365625 22.05078125 106.8515625 C22.71078125 107.5115625 23.37078125 108.1715625 24.05078125 108.8515625 C23.39078125 108.8515625 22.73078125 108.8515625 22.05078125 108.8515625 C22.05078125 111.1615625 22.05078125 113.4715625 22.05078125 115.8515625 C19.36522185 113.1660031 18.99028151 110.47534922 18.05078125 106.8515625 C17.72078125 106.8515625 17.39078125 106.8515625 17.05078125 106.8515625 C16.68866502 94.11992742 17.10036468 82.26789892 20.05078125 69.8515625 C19.44492187 70.17769531 18.8390625 70.50382813 18.21484375 70.83984375 C13.71882007 73.18469303 9.94547718 74.92372293 4.92578125 75.7265625 C1.16199943 76.75411604 0.1868161 77.6499258 -2.0390625 80.94921875 C-3.43087202 83.54942632 -4.69491005 86.20581508 -5.96484375 88.8671875 C-14.01194032 105.61730701 -31.1519372 123.41786081 -48.6015625 130.0390625 C-56.43803677 131.94103058 -66.21026851 132.58807994 -73.69921875 129.2265625 C-80.63106445 124.78584885 -84.26196601 117.72396898 -86.48632812 109.98217773 C-91.87667231 85.17124222 -80.74682276 57.57655119 -67.74511719 36.94042969 C-61.99096711 28.15826843 -55.31040599 20.3186661 -47.94921875 12.8515625 C-47.12550781 12.01496094 -46.30179687 11.17835938 -45.453125 10.31640625 C-33.2342245 -1.39418799 -15.81837104 -9.31984185 0 0 Z " fill="#E1BD3D" transform="translate(390.94921875,467.1484375)"/>
<path d="M0 0 C3.49893356 2.44111643 4.92124266 3.93488748 6.6875 7.875 C7.79233597 14.96866647 6.76446713 21.61773304 4.73046875 28.44140625 C4.51493347 29.16701752 4.29939819 29.89262878 4.07733154 30.64022827 C1.26530953 39.70869539 -2.52778129 48.37712255 -6.29815674 57.07946777 C-8.44164662 62.03075866 -10.54984326 66.99709613 -12.6640625 71.9609375 C-13.07381317 72.92060425 -13.48356384 73.880271 -13.9057312 74.86901855 C-16.98848686 82.09275068 -20.03083112 89.32818085 -22.9375 96.625 C-23.45812012 97.89561279 -23.45812012 97.89561279 -23.98925781 99.19189453 C-26.05692615 104.45713443 -26.89632608 109.22853227 -27.3125 114.875 C-22.68831193 115.45302351 -20.21902892 115.18456968 -16.4375 112.375 C-15.04760085 111.22612382 -13.6731932 110.05832165 -12.3125 108.875 C-11.58933594 108.28332031 -10.86617187 107.69164062 -10.12109375 107.08203125 C2.02402624 96.83788656 12.51212367 82.57207685 19.84765625 68.44921875 C20.6875 66.875 20.6875 66.875 21.6875 65.875 C24.625 65.6875 24.625 65.6875 27.6875 65.875 C28.3475 66.535 29.0075 67.195 29.6875 67.875 C29.44706449 73.58180745 27.61614056 77.62273372 24.8125 82.4375 C24.41466309 83.13004883 24.01682617 83.82259766 23.60693359 84.53613281 C12.81665789 102.81328324 -5.72394173 126.99210972 -26.3125 133.875 C-32.92621609 134.51236688 -39.80781903 135.03707586 -45.3125 130.875 C-50.43821856 125.84645146 -52.43072021 122.22592515 -52.5625 115 C-52.1508313 90.74321337 -39.81730078 66.0085612 -30.62597656 44.03710938 C-28.57781696 39.10629837 -26.59916445 34.14830159 -24.625 29.1875 C-24.285896 28.33744385 -23.94679199 27.4873877 -23.59741211 26.61157227 C-22.83489755 24.69973113 -22.07354541 22.78742643 -21.3125 20.875 C-26.55167526 22.83969072 -30.27907711 25.20716137 -34.3125 29.125 C-34.83303955 29.61806641 -35.3535791 30.11113281 -35.88989258 30.61914062 C-37.37249106 32.02898345 -38.84288689 33.45162642 -40.3125 34.875 C-40.97636719 35.49890625 -41.64023437 36.1228125 -42.32421875 36.765625 C-55.37304859 49.29736834 -66.00185014 65.04273625 -76.3125 79.875 C-76.76318848 80.51969238 -77.21387695 81.16438477 -77.67822266 81.82861328 C-85.79786159 93.50677224 -92.94794899 105.67906232 -99.96484375 118.0390625 C-107.67755154 131.55752577 -107.67755154 131.55752577 -110.3125 132.875 C-115.28962427 133.29176403 -119.82275466 133.53048795 -124.4375 131.5 C-126.3125 129.875 -126.3125 129.875 -127.3125 127.875 C-127.2265625 125.8515625 -127.2265625 125.8515625 -126.9375 123.5 C-126.80214844 122.34371094 -126.80214844 122.34371094 -126.6640625 121.1640625 C-126.33474544 119.01984251 -125.87646553 116.96836359 -125.3125 114.875 C-126.07433594 115.67164063 -126.83617187 116.46828125 -127.62109375 117.2890625 C-143.72304328 133.8986958 -143.72304328 133.8986958 -154.5 134.1875 C-161.03339281 134.1269255 -165.73795126 132.44954874 -170.375 127.8125 C-171.3125 125.875 -171.3125 125.875 -170.3125 122.875 C-170.044375 123.49375 -169.77625 124.1125 -169.5 124.75 C-168.35693152 127.1745233 -168.35693152 127.1745233 -165.3125 128.875 C-165.1578125 127.76125 -165.1578125 127.76125 -165 126.625 C-164.26996496 123.70485982 -163.24460602 122.14312446 -161.3125 119.875 C-162.9625 119.215 -164.6125 118.555 -166.3125 117.875 C-165.8175 116.885 -165.8175 116.885 -165.3125 115.875 C-164.6525 115.875 -163.9925 115.875 -163.3125 115.875 C-162.9825 113.565 -162.6525 111.255 -162.3125 108.875 C-161.9825 108.875 -161.6525 108.875 -161.3125 108.875 C-161.3125 110.525 -161.3125 112.175 -161.3125 113.875 C-159.6625 113.875 -158.0125 113.875 -156.3125 113.875 C-155.3225 109.255 -154.3325 104.635 -153.3125 99.875 C-152.9825 99.875 -152.6525 99.875 -152.3125 99.875 C-152.32410156 101.01839844 -152.33570313 102.16179687 -152.34765625 103.33984375 C-152.35703288 104.83072754 -152.36613321 106.32161309 -152.375 107.8125 C-152.38337891 108.56724609 -152.39175781 109.32199219 -152.40039062 110.09960938 C-152.40902441 112.02494313 -152.36474333 113.95035581 -152.3125 115.875 C-151.8175 116.37 -151.8175 116.37 -151.3125 116.875 C-142.32162301 116.69151271 -137.1921741 110.97565524 -131.1875 104.8125 C-126.25841584 99.43682683 -122.12931795 93.5426725 -118.0625 87.5 C-117.49644043 86.66331787 -116.93038086 85.82663574 -116.34716797 84.96459961 C-108.79107989 73.46089046 -103.42236412 61.15747791 -98.4375 48.375 C-97.92072091 47.06801092 -97.40304744 45.76137515 -96.88452148 44.45507812 C-94.90253824 39.45881184 -92.93252119 34.45791749 -90.97216797 29.453125 C-89.7828046 26.4231352 -88.58022808 23.3987061 -87.375 20.375 C-87.0342041 19.49263672 -86.6934082 18.61027344 -86.34228516 17.70117188 C-84.04024703 11.95568251 -81.53961653 6.90347325 -76.125 3.5 C-71.09608959 2.38246435 -65.84245903 1.82620142 -61.00390625 3.83203125 C-58.66468834 6.65746073 -58.75359574 8.6647451 -58.92138672 12.26171875 C-59.66413976 17.22453308 -61.51613181 21.7373421 -63.375 26.375 C-63.77968506 27.41785156 -64.18437012 28.46070313 -64.60131836 29.53515625 C-65.8194092 32.65637939 -67.06053402 35.76722592 -68.3125 38.875 C-68.86357422 40.24398437 -68.86357422 40.24398437 -69.42578125 41.640625 C-71.35158999 46.4010511 -73.31372137 51.14477148 -75.3125 55.875 C-74.91160156 55.34132813 -74.51070312 54.80765625 -74.09765625 54.2578125 C-69.45812173 48.17697133 -64.4840739 42.50573234 -59.3125 36.875 C-58.37172664 35.83002916 -57.43165113 34.78442973 -56.4921875 33.73828125 C-19.9127024 -6.76280459 -19.9127024 -6.76280459 0 0 Z " fill="#E1BD3C" transform="translate(924.3125,464.125)"/>
<path d="M0 0 C2.68041994 1.84278871 4.7133992 3.7133992 7 6 C8.03125 5.21625 9.0625 4.4325 10.125 3.625 C16.07208458 -0.57364171 21.7910089 -1.86250429 29 -1 C34.6 1.2 34.6 1.2 36 4 C36.7330593 8.92196958 35.88988234 11.59169747 33.42578125 15.90234375 C32.87994385 16.87469971 32.33410645 17.84705566 31.77172852 18.84887695 C31.18705811 19.88874756 30.6023877 20.92861816 30 22 C17.17038138 45.67200661 5.87298847 69.65511417 -1 95.8046875 C-2 99 -2 99 -4 101 C-4.45662153 103.19291082 -4.820412 105.40585889 -5.125 107.625 C-5.29257812 108.81351563 -5.46015625 110.00203125 -5.6328125 111.2265625 C-5.81457031 112.59941406 -5.81457031 112.59941406 -6 114 C-6.33 113.34 -6.66 112.68 -7 112 C-10.81813447 112.27540704 -10.81813447 112.27540704 -14 114 C-14.99 114.495 -14.99 114.495 -16 115 C-14.35 115.66 -12.7 116.32 -11 117 C-12.00911458 118.72526042 -13.01822917 120.45052083 -14.02734375 122.17578125 C-15.13901247 124.13819555 -15.13901247 124.13819555 -16 127 C-17.9375 126.1875 -17.9375 126.1875 -20 125 C-20.33 124.01 -20.66 123.02 -21 122 C-21.66 122 -22.32 122 -23 122 C-27.50239054 112.43692249 -25.29836787 101.29713028 -22.42333984 91.54370117 C-21.17418305 87.24395444 -20.81568138 83.46972649 -21 79 C-21.99 79 -22.98 79 -24 79 C-24.66 77.02 -25.32 75.04 -26 73 C-26.33620361 73.47719482 -26.67240723 73.95438965 -27.01879883 74.44604492 C-52.58954667 110.61665123 -52.58954667 110.61665123 -63 115 C-66.1875 115.375 -66.1875 115.375 -69 115 C-72.87352391 109.18971413 -71.76394749 100.54543724 -70.62939453 93.79492188 C-68.02203761 81.65077038 -63.04620453 70.29448259 -58 59 C-59.32 61.31 -60.64 63.62 -62 66 C-62.66 66 -63.32 66 -64 66 C-64.33 65.34 -64.66 64.68 -65 64 C-66.485 64.495 -66.485 64.495 -68 65 C-68.33 63.68 -68.66 62.36 -69 61 C-68.01 60.505 -68.01 60.505 -67 60 C-67.495 58.515 -67.495 58.515 -68 57 C-68 56.01 -68 55.02 -68 54 C-68.99 54.495 -68.99 54.495 -70 55 C-70.5534764 52.92446352 -71 51.15634036 -71 49 C-71.31802943 47.33034549 -71.64984951 45.66321482 -72 44 C-72.99 44 -73.98 44 -75 44 C-68.85944911 26.56577259 -48.52792262 9.90420293 -32.55078125 1.75 C-21.35599436 -3.41974878 -11.57738105 -4.79692187 0 0 Z " fill="#E1BD3D" transform="translate(775,466)"/>
<path d="M0 0 C6.8733012 6.8733012 10.93302472 14.26525052 11.13061523 24.06811523 C11.09071574 40.45986943 5.98168483 52.43611253 -5.375 64.4375 C-14.96138514 73.60537992 -25.63490665 78.93613457 -38.25 82.75 C-39.00410156 82.99621094 -39.75820312 83.24242187 -40.53515625 83.49609375 C-54.93902865 87.52029702 -73.54543185 85.4756971 -86.51171875 78.46875 C-91.60239148 75.27346327 -95.90779924 71.76330114 -99.25 66.75 C-98.97041574 62.29932077 -96.91321227 59.26889106 -94.5625 55.5625 C-84.38690758 39.09821947 -75.60914896 21.75773757 -67.0690918 4.40258789 C-66.60929932 3.46922607 -66.14950684 2.53586426 -65.67578125 1.57421875 C-65.27786377 0.76041748 -64.87994629 -0.05338379 -64.4699707 -0.8918457 C-60.77968053 -8.02502816 -60.77968053 -8.02502816 -58.0703125 -9.17578125 C-37.94434023 -12.06342075 -17.23096237 -11.9291278 0 0 Z " fill="#FEFEFD" transform="translate(254.25,501.25)"/>
<path d="M0 0 C0.99 -0.33 1.98 -0.66 3 -1 C2.67 1.31 2.34 3.62 2 6 C2.99 6.33 3.98 6.66 5 7 C4.67 7.66 4.34 8.32 4 9 C4.09723451 10.99021521 4.09723451 10.99021521 4.4375 13.125 C4.623125 14.40375 4.80875 15.6825 5 17 C6.2375 15.4840625 6.2375 15.4840625 7.5 13.9375 C11.75480558 9.01035486 16.03308444 4.0840653 22.25 1.8125 C25 2 25 2 27.25 3.625 C34.55303539 13.53626232 32.82475331 28.5749725 31.07128906 40.15917969 C30.88131348 41.31788574 30.88131348 41.31788574 30.6875 42.5 C30.51105957 43.59296387 30.51105957 43.59296387 30.33105469 44.70800781 C29.43125419 49.74090726 27.90686596 54.25687122 26 59 C17.2143676 57.43113707 11.18492384 53.34530877 6 46 C6.309375 46.86625 6.309375 46.86625 6.625 47.75 C7.08661261 50.51967567 6.42944945 51.64561267 5 54 C4.01 54 3.02 54 2 54 C1.53097027 57.89268058 1.53097027 57.89268058 3.546875 59.5625 C9.71720365 63.58853004 15.93238394 65.96701399 23 68 C16.9499378 82.88089834 8.10561699 98.19047282 -6.51171875 106.0703125 C-10.72998011 107.64636619 -14.5957126 107.93570941 -19 107 C-22.87722517 104.47980364 -23.80862336 101.368381 -25 97 C-26.32 97.99 -27.64 98.98 -29 100 C-30.0625 98.125 -30.0625 98.125 -31 96 C-30.67 95.34 -30.34 94.68 -30 94 C-32.31 93.34 -34.62 92.68 -37 92 C-37 92.66 -37 93.32 -37 94 C-39.475 94.495 -39.475 94.495 -42 95 C-42.33 95.99 -42.66 96.98 -43 98 C-42.34 98.66 -41.68 99.32 -41 100 C-41.66 100 -42.32 100 -43 100 C-43 102.31 -43 104.62 -43 107 C-45.6855594 104.3144406 -46.06049974 101.62378672 -47 98 C-47.33 98 -47.66 98 -48 98 C-48.36211623 85.26836492 -47.95041657 73.41633642 -45 61 C-45.56460937 61.2990625 -46.12921875 61.598125 -46.7109375 61.90625 C-53.48614301 65.14354956 -61.55259354 67.14068387 -69 68 C-69.66 67.67 -70.32 67.34 -71 67 C-70.67 66.01 -70.34 65.02 -70 64 C-68.35 64 -66.7 64 -65 64 C-64.814375 63.401875 -64.62875 62.80375 -64.4375 62.1875 C-62.31956286 58.96455217 -59.52852631 58.36188735 -56 57 C-55.01 56.34 -54.02 55.68 -53 55 C-52.31164062 54.54882812 -51.62328125 54.09765625 -50.9140625 53.6328125 C-50.15867187 53.13523437 -49.40328125 52.63765625 -48.625 52.125 C-47.87476563 51.63257813 -47.12453125 51.14015625 -46.3515625 50.6328125 C-41.29463382 47.12152315 -38.32714917 44.32675223 -35.4375 38.8125 C-29.08440054 27.19659687 -21.46901802 16.36606739 -12.5625 6.5625 C-11.83691895 5.75607056 -11.83691895 5.75607056 -11.09667969 4.93334961 C-4.38485362 -2.19242681 -4.38485362 -2.19242681 0 0 Z " fill="#E1BD3E" transform="translate(456,476)"/>
<path d="M0 0 C3.98299764 2.5070645 5.81653364 6.21119227 7.8515625 10.28125 C11.92795058 41.42218191 -14.90487365 79.1219726 -31.1484375 103.28125 C-31.73270508 104.15152832 -32.31697266 105.02180664 -32.91894531 105.91845703 C-45.40648063 124.39463091 -59.16552989 141.69029381 -75.1484375 157.28125 C-75.4784375 156.62125 -75.8084375 155.96125 -76.1484375 155.28125 C-76.8084375 155.28125 -77.4684375 155.28125 -78.1484375 155.28125 C-77.2734375 151.40625 -77.2734375 151.40625 -76.1484375 150.28125 C-77.1384375 149.29125 -78.1284375 148.30125 -79.1484375 147.28125 C-76.7657684 142.9520614 -73.83548304 139.46067046 -70.5859375 135.78125 C-45.93957489 107.39844518 -6.37158023 59.90097084 -7.1484375 20.28125 C-9.24339053 19.22081349 -9.24339053 19.22081349 -12.1484375 19.28125 C-33.27263318 30.64580702 -45.16797614 62.88639418 -55.1484375 83.28125 C-55.8084375 83.28125 -56.4684375 83.28125 -57.1484375 83.28125 C-57.8084375 84.93125 -58.4684375 86.58125 -59.1484375 88.28125 C-61.1484375 86.96875 -61.1484375 86.96875 -63.1484375 85.28125 C-63.1484375 84.29125 -63.1484375 83.30125 -63.1484375 82.28125 C-64.6334375 82.77625 -64.6334375 82.77625 -66.1484375 83.28125 C-65.8184375 81.96125 -65.4884375 80.64125 -65.1484375 79.28125 C-66.1384375 78.95125 -67.1284375 78.62125 -68.1484375 78.28125 C-68.1484375 76.96125 -68.1484375 75.64125 -68.1484375 74.28125 C-68.8084375 73.95125 -69.4684375 73.62125 -70.1484375 73.28125 C-70.7109375 71.40625 -70.7109375 71.40625 -71.1484375 69.28125 C-71.4784375 68.29125 -71.8084375 67.30125 -72.1484375 66.28125 C-65.71775332 43.11187318 -45.61591509 15.22720526 -24.7890625 2.8828125 C-17.29784854 -0.97215527 -8.23257129 -2.7541693 0 0 Z " fill="#E1BD3D" transform="translate(631.1484375,350.71875)"/>
<path d="M0 0 C0.99 0.33 1.98 0.66 3 1 C3.90837763 3.47739354 4 5.33579484 4 8 C4.495 9.485 4.495 9.485 5 11 C5.66 10.67 6.32 10.34 7 10 C7 13 7 16 7 19 C6.34 18.67 5.68 18.34 5 18 C5.495 19.98 5.495 19.98 6 22 C6.66 22 7.32 22 8 22 C8.33 21.34 8.66 20.68 9 20 C9.495 21.485 9.495 21.485 10 23 C12.61527381 20.63379989 14.26440562 18.057952 16 15 C16.495 15.99 16.495 15.99 17 17 C15.85529061 19.71338523 14.64650633 22.34678275 13.375 25 C6.78570912 39.3779483 2.57543803 53.04490589 4 69 C4.33 69.66 4.66 70.32 5 71 C9.21619919 71.63242988 11.52759791 70.94770509 14.875 68.5 C16.26994145 67.35725136 17.6449913 66.18982669 19 65 C19.60457031 64.47792969 20.20914063 63.95585938 20.83203125 63.41796875 C31.40052368 53.56145897 39.62594777 40.71355343 48 29 C50 32 50 32 51 35 C51.99 35 52.98 35 54 35 C54.33 34.34 54.66 33.68 55 33 C55 33.99 55 34.98 55 36 C54.34 36 53.68 36 53 36 C53.33 36.99 53.66 37.98 54 39 C52.83904154 41.23942777 51.65030369 43.22915612 50.25 45.3125 C49.84023926 45.93133057 49.43047852 46.55016113 49.00830078 47.18774414 C38.45598231 62.8811903 24.62352563 82.79215812 6 89 C-1.01828424 89.67206552 -7.48755245 90.03154153 -13.34765625 85.6953125 C-18.64986156 80.25522479 -20.98187921 73.68954903 -21.31640625 66.234375 C-21.35830078 65.34492187 -21.40019531 64.45546875 -21.44335938 63.5390625 C-21.48267578 62.61867188 -21.52199219 61.69828125 -21.5625 60.75 C-21.60568359 59.81414063 -21.64886719 58.87828125 -21.69335938 57.9140625 C-21.7991805 55.60951359 -21.90126557 53.30486161 -22 51 C-22.51046875 51.66644531 -23.0209375 52.33289063 -23.546875 53.01953125 C-36.18176439 69.03716584 -53.62331042 84.26895598 -74 89 C-77.31754337 89.2954001 -80.60839515 89.32498726 -83.9375 89.3125 C-84.79279297 89.32861328 -85.64808594 89.34472656 -86.52929688 89.36132812 C-92.36126916 89.36577662 -96.65800205 88.34602228 -102 86 C-101.34 84.68 -100.68 83.36 -100 82 C-100 82.99 -100 83.98 -100 85 C-98.35 85.33 -96.7 85.66 -95 86 C-95.33 84.68 -95.66 83.36 -96 82 C-94.515 81.01 -94.515 81.01 -93 80 C-91.80767387 77.94996045 -91.80767387 77.94996045 -91 76 C-90.01 76.66 -89.02 77.32 -88 78 C-87.34 77.01 -86.68 76.02 -86 75 C-88.31 73.02 -90.62 71.04 -93 69 C-92.505 68.01 -92.505 68.01 -92 67 C-90.50260417 68.26953125 -89.00520833 69.5390625 -87.5078125 70.80859375 C-82.8486068 74.49009049 -76.61182826 73.52328945 -71 73 C-57.49022638 69.50095294 -46.90984119 61.49907057 -37 52 C-36.40832031 51.45988281 -35.81664062 50.91976562 -35.20703125 50.36328125 C-26.22226218 41.89070805 -16.35561059 30.19728244 -11.5625 18.75 C-4.72170195 3.1478013 -4.72170195 3.1478013 0 0 Z " fill="#E1BD3C" transform="translate(701,509)"/>
<path d="M0 0 C4.14757245 3.88157612 4.08099232 9.28068505 4.39086914 14.61035156 C4.52793948 24.34522126 0.11297717 31.04115164 -5 39 C-6.10172671 40.79648225 -7.20055259 42.59474587 -8.296875 44.39453125 C-14.86488659 55.05624024 -21.85997657 65.29998865 -29.57080078 75.16503906 C-31.00969911 77.01245277 -32.4262868 78.87533597 -33.83984375 80.7421875 C-48.01715063 99.3265889 -48.01715063 99.3265889 -57 104 C-60.1875 104.375 -60.1875 104.375 -63 104 C-66.8784305 98.18235424 -65.75699278 89.5369699 -64.62939453 82.77880859 C-58.51006159 54.02876879 -40.54692378 21.07994666 -16.09765625 3.96875 C-6.96300483 -1.58805373 -6.96300483 -1.58805373 0 0 Z " fill="#FEFEFC" transform="translate(769,477)"/>
<path d="M0 0 C5.97204517 4.90158424 9.37016759 10.90623039 10.3125 18.52734375 C10.9741466 32.93883371 3.49129162 46.5866972 -6 57 C-20.29598265 70.79310888 -41.00894242 81.5470918 -61.0625 82.25 C-64 82 -64 82 -66 80 C-62.04 80 -58.08 80 -54 80 C-54 78.68 -54 77.36 -54 76 C-54 73 -54 73 -53 71 C-51.515 70.505 -51.515 70.505 -50 70 C-50.495 69.01 -50.495 69.01 -51 68 C-49.42412109 67.25556641 -49.42412109 67.25556641 -47.81640625 66.49609375 C-31.34988168 58.58157003 -17.68509752 48.74334697 -11.23828125 30.890625 C-9.88128045 26.07856544 -9.33339299 20.97014342 -10 16 C-11.73483496 12.63171522 -11.73483496 12.63171522 -15.4375 12.3125 C-23.45150963 12.63247861 -30.02332708 19.70028961 -35.1875 25.25 C-39.61782158 30.48750232 -43.32344732 36.2211632 -47 42 C-49.31 41.34 -51.62 40.68 -54 40 C-54.33 38.68 -54.66 37.36 -55 36 C-56.485 36.495 -56.485 36.495 -58 37 C-58.45375 36.195625 -58.9075 35.39125 -59.375 34.5625 C-60.74725665 31.91143428 -60.74725665 31.91143428 -63 31 C-62.67 31.99 -62.34 32.98 -62 34 C-62.66 34 -63.32 34 -64 34 C-64 33.34 -64 32.68 -64 32 C-64.66 32 -65.32 32 -66 32 C-66.0825 32.78375 -66.165 33.5675 -66.25 34.375 C-67 37 -67 37 -69.0625 38.3125 C-70.0215625 38.6528125 -70.0215625 38.6528125 -71 39 C-65.71497624 24.03931735 -49.86391594 9.15755423 -36 2 C-24.68891987 -3.19223311 -11.68557732 -6.04496128 0 0 Z " fill="#E1BD3C" transform="translate(675,466)"/>
<path d="M0 0 C1 1 1 1 1.3125 3.75 C0.49398701 44.18454182 -40.07887951 90.0228599 -65 119 C-65.66902344 119.78246094 -66.33804688 120.56492187 -67.02734375 121.37109375 C-68.34880436 122.91642534 -69.67379668 124.45873668 -71 126 C-72 124 -72 124 -71.31005859 121.41918945 C-70.92672363 120.32823975 -70.54338867 119.23729004 -70.1484375 118.11328125 C-69.49983765 116.26391968 -69.49983765 116.26391968 -68.83813477 114.37719727 C-68.3514883 113.02191525 -67.86374617 111.66702623 -67.375 110.3125 C-67.12902069 109.62550018 -66.88304138 108.93850037 -66.62960815 108.23068237 C-25.43726477 -6.52237558 -25.43726477 -6.52237558 0 0 Z " fill="#FEFDFB" transform="translate(624,370)"/>
<path d="M0 0 C0.66 0 1.32 0 2 0 C2.21914063 0.556875 2.43828125 1.11375 2.6640625 1.6875 C7.74824519 13.92260632 13.85776708 18.89474298 26 24 C27.99123513 24.69240676 29.98865437 25.36838841 32 26 C30.1184886 38.48222195 20.08199581 51.26541588 10.43359375 59.078125 C8.3282778 60.50710387 6.24437825 61.8044797 4 63 C3.34773438 63.36996094 2.69546875 63.73992188 2.0234375 64.12109375 C-1.56616181 65.68028264 -5.1703893 65.56659124 -9 65 C-12.49890004 62.88608123 -13.70578686 61.88263941 -15 58 C-16.58310191 39.67754185 -10.08531475 23.54352403 -3 7 C-2.69852051 6.29391602 -2.39704102 5.58783203 -2.08642578 4.86035156 C-1.39304198 3.23933816 -0.6968702 1.61951766 0 0 Z " fill="#FEFEFC" transform="translate(343,518)"/>
<path d="M0 0 C2 3 2 3 3.2265625 5.234375 C9.33499827 16.22273431 17.11459524 21.75716494 29.0625 25.25 C30.031875 25.4975 31.00125 25.745 32 26 C25.9499378 40.88089834 17.10561699 56.19047282 2.48828125 64.0703125 C-1.72998011 65.64636619 -5.5957126 65.93570941 -10 65 C-13.8650526 62.48771581 -14.98161755 59.41299061 -16 55 C-16.20507775 49.56543972 -15.78689991 44.67243525 -14.5 39.375 C-14.32984375 38.66351807 -14.1596875 37.95203613 -13.984375 37.21899414 C-10.74380184 24.40860336 -6.12173244 11.71054622 0 0 Z " fill="#FEFEFB" transform="translate(447,518)"/>
<path d="M0 0 C2 1.4375 2 1.4375 3 4 C4.27152238 15.44370146 -0.02880585 26.07687149 -7 35 C-7.61101563 35.81726563 -8.22203125 36.63453125 -8.8515625 37.4765625 C-17.36636734 47.47758782 -32.05388779 55.84231463 -45 58 C-46.32 58 -47.64 58 -49 58 C-47.06622004 51.58167862 -44.58538297 45.72575549 -41.4375 39.8125 C-41.00058838 38.98951416 -40.56367676 38.16652832 -40.11352539 37.31860352 C-18.17280849 -3.13324284 -18.17280849 -3.13324284 0 0 Z " fill="#FEFDFB" transform="translate(663,478)"/>
<path d="M0 0 C3.70871265 1.61248376 4.46888788 3.3759589 6.11328125 6.94921875 C9.63994468 17.60155085 8.34936399 29.8514937 6.5625 40.75 C6.44487305 41.47864258 6.32724609 42.20728516 6.20605469 42.95800781 C5.30625419 47.99090726 3.78186596 52.50687122 1.875 57.25 C-5.73854351 55.89043866 -11.22898285 53.19678443 -15.890625 46.84375 C-20.90902531 38.7558427 -23.17941299 31.82187898 -22.125 22.25 C-19.88747431 14.03572785 -12.55226215 6.60647431 -5.9375 1.5625 C-3.125 0.25 -3.125 0.25 0 0 Z " fill="#FEFDFB" transform="translate(480.125,477.75)"/>
<path d="M0 0 C3.34919572 1.62933846 4.5207195 3.92539197 6.3125 7.125 C11.17419416 21.71008248 7.57790547 43.00413987 2.3125 57.125 C-4.80480083 56.59120244 -10.18417239 53.03644159 -14.9375 47.875 C-18.96615253 42.84741727 -22.00824744 36.57789935 -22.6875 30.125 C-22.831875 29.09375 -22.97625 28.0625 -23.125 27 C-22.12731708 18.16337984 -16.10153315 10.07789351 -9.6875 4.125 C-6.63134382 1.75598814 -3.96128469 0.1842458 0 0 Z " fill="#FEFEFC" transform="translate(376.6875,477.875)"/>
<path d="M0 0 C0.33 0.66 0.66 1.32 1 2 C-0.38004916 4.96691768 -1.89012142 7.81470705 -3.46289062 10.68164062 C-5.36436302 14.2818127 -6.44420659 16.90862349 -6 21 C-5.34 21 -4.68 21 -4 21 C-3.34 19.68 -2.68 18.36 -2 17 C-1.01 17 -0.02 17 1 17 C0.3125 19.4375 0.3125 19.4375 -1 22 C-3.625 22.8125 -3.625 22.8125 -6 23 C-6.33 23.99 -6.66 24.98 -7 26 C-7.66 26 -8.32 26 -9 26 C-9 25.01 -9 24.02 -9 23 C-10.32 25.64 -11.64 28.28 -13 31 C-14.35781276 26.92656172 -13.15613073 25.64590805 -11.2890625 21.8359375 C-11.00147064 21.2432608 -10.71387878 20.65058411 -10.41757202 20.03994751 C-9.49589759 18.14698322 -8.56041876 16.26120374 -7.625 14.375 C-7.00174327 13.09677358 -6.37933688 11.81813216 -5.7578125 10.5390625 C-1.1913133 1.1913133 -1.1913133 1.1913133 0 0 Z " fill="#DEB72F" transform="translate(180,464)"/>
<path d="M0 0 C0.99 0 1.98 0 3 0 C3.33 0.66 3.66 1.32 4 2 C4.99 1.67 5.98 1.34 7 1 C9.125 1.75 9.125 1.75 11 3 C11.33 3.99 11.66 4.98 12 6 C5.0625 10.19901316 5.0625 10.19901316 0 9 C0.66 7.35 1.32 5.7 2 4 C1.34 4 0.68 4 0 4 C0 4.99 0 5.98 0 7 C-0.99 7.33 -1.98 7.66 -3 8 C-1.125 2.25 -1.125 2.25 0 0 Z " fill="#E2BE41" transform="translate(465,567)"/>
<path d="M0 0 C1.21393611 3.64180834 0.65885844 4.72352602 -0.58203125 8.2890625 C-0.93716797 9.31257813 -1.29230469 10.33609375 -1.65820312 11.390625 C-2.03912109 12.45796875 -2.42003906 13.5253125 -2.8125 14.625 C-3.18181641 15.70007813 -3.55113281 16.77515625 -3.93164062 17.8828125 C-6.74032339 25.8701617 -6.74032339 25.8701617 -9 27 C-8.65775391 25.91332031 -8.65775391 25.91332031 -8.30859375 24.8046875 C-6.06838637 17.49251263 -6.06838637 17.49251263 -7 10 C-9.31 10.66 -11.62 11.32 -14 12 C-13.1875 10.0625 -13.1875 10.0625 -12 8 C-11.01 7.67 -10.02 7.34 -9 7 C-8.505 6.484375 -8.01 5.96875 -7.5 5.4375 C-6 4 -6 4 -3 4 C-2.67 4.33 -2.34 4.66 -2 5 C-1.34 3.35 -0.68 1.7 0 0 Z " fill="#DEB731" transform="translate(560,468)"/>
<path d="M0 0 C0.33 1.32 0.66 2.64 1 4 C0.34 4 -0.32 4 -1 4 C-1.59732819 6.76264289 -2 9.16032769 -2 12 C-3.19625 12.474375 -4.3925 12.94875 -5.625 13.4375 C-10.83776407 15.98822975 -13.21670598 20.06597877 -16 25 C-16.33 24.34 -16.66 23.68 -17 23 C-6.42553191 6.65957447 -6.42553191 6.65957447 0 0 Z " fill="#E0BA37" transform="translate(588,370)"/>
<path d="M0 0 C2.97 0.495 2.97 0.495 6 1 C6 1.99 6 2.98 6 4 C6.66 4 7.32 4 8 4 C8.33 5.98 8.66 7.96 9 10 C7.68 10 6.36 10 5 10 C5.33 8.35 5.66 6.7 6 5 C4.02 5.99 4.02 5.99 2 7 C2.24556641 8.02673828 2.24556641 8.02673828 2.49609375 9.07421875 C3.06447034 12.3743278 3.09630767 15.46554069 3.0625 18.8125 C3.05347656 19.97394531 3.04445313 21.13539063 3.03515625 22.33203125 C3.02355469 23.21246094 3.01195312 24.09289062 3 25 C2.67 25 2.34 25 2 25 C1.5021868 21.28815012 1.00629386 17.5760823 0.515625 13.86328125 C0.22314197 11.67187433 -0.07487103 9.4811438 -0.390625 7.29296875 C-1.10681983 2.21363965 -1.10681983 2.21363965 0 0 Z " fill="#DFB931" transform="translate(264,509)"/>
<path d="M0 0 C1.44197868 2.88395737 1.58833581 5.82430479 2 9 C1.01 9.33 0.02 9.66 -1 10 C-1 11.98 -1 13.96 -1 16 C0.65 16.33 2.3 16.66 4 17 C4 17.66 4 18.32 4 19 C6.31 19 8.62 19 11 19 C11 19.33 11 19.66 11 20 C1.38818565 20.56540084 1.38818565 20.56540084 -3 17 C-4.73776501 13.52446998 -3.72877918 9.71864247 -3 6 C-1.4375 2.4375 -1.4375 2.4375 0 0 Z M6 14 C6.66 14.33 7.32 14.66 8 15 C7.01 15 6.02 15 5 15 C5.33 14.67 5.66 14.34 6 14 Z " fill="#DFB730" transform="translate(801,577)"/>
<path d="M0 0 C0.33 0.66 0.66 1.32 1 2 C1.66 2 2.32 2 3 2 C3 2.66 3 3.32 3 4 C1.68 4.33 0.36 4.66 -1 5 C-2.01111093 8.04913228 -2.01111093 8.04913228 -1 11 C0.65 11 2.3 11 4 11 C3.01 11.66 2.02 12.32 1 13 C0.74969023 15.58380177 0.74969023 15.58380177 1 18 C-0.875 17.75 -0.875 17.75 -3 17 C-4.25 14.9375 -4.25 14.9375 -5 13 C-5.99 14.32 -6.98 15.64 -8 17 C-7.400327 12.89223994 -6.0282733 9.85798616 -4 6.25 C-3.195625 4.80367188 -3.195625 4.80367188 -2.375 3.328125 C-1 1 -1 1 0 0 Z " fill="#DEB832" transform="translate(322,507)"/>
<path d="M0 0 C0.33 1.32 0.66 2.64 1 4 C0.01 4.66 -0.98 5.32 -2 6 C-1.34 7.65 -0.68 9.3 0 11 C-4.5 15 -4.5 15 -9 15 C-9 10.9255567 -6.90830751 8.88254967 -4.5 5.8125 C-3.85611328 4.97428711 -3.85611328 4.97428711 -3.19921875 4.11914062 C-2.13921945 2.74114153 -1.07043812 1.36990593 0 0 Z " fill="#DEB831" transform="translate(939,542)"/>
<path d="M0 0 C1.98 0.66 3.96 1.32 6 2 C4.23570801 6.97209562 1.6060834 11.43438061 -1 16 C-2 13 -2 13 -0.5625 9.8125 C-0.046875 8.884375 0.46875 7.95625 1 7 C0.01 6.34 -0.98 5.68 -2 5 C-1.34 3.35 -0.68 1.7 0 0 Z M-5 6 C-4.01 6.33 -3.02 6.66 -2 7 C-2.99 7.33 -3.98 7.66 -5 8 C-5 7.34 -5 6.68 -5 6 Z " fill="#DEB832" transform="translate(720,508)"/>
<path d="M0 0 C0.33 0.66 0.66 1.32 1 2 C0.67 2.66 0.34 3.32 0 4 C-0.66 4 -1.32 4 -2 4 C-2.66 5.32 -3.32 6.64 -4 8 C-4.66 7.67 -5.32 7.34 -6 7 C-9.73639216 8.24546405 -10.18756513 9.63404953 -12 13 C-12.33 12.34 -12.66 11.68 -13 11 C-11.8253378 7.66567239 -10.21833779 4.75138497 -8 2 C-4.25 1 -4.25 1 -1 1 C-0.67 0.67 -0.34 0.34 0 0 Z " fill="#DFB935" transform="translate(577,394)"/>
<path d="M0 0 C1.32 0.33 2.64 0.66 4 1 C3.01535215 4.00576713 2.01455803 7.00425779 1 10 C0.59007812 11.21429687 0.18015625 12.42859375 -0.2421875 13.6796875 C-0.68155434 14.95337959 -1.12165781 16.2268178 -1.5625 17.5 C-1.97628906 18.7065625 -2.39007813 19.913125 -2.81640625 21.15625 C-4 24 -4 24 -6 25 C-4.41078475 19.63904723 -2.81027062 14.29156027 -1 9 C-1.99 8.67 -2.98 8.34 -4 8 C-3.34 7.67 -2.68 7.34 -2 7 C-1.67 6.01 -1.34 5.02 -1 4 C-0.34 4.33 0.32 4.66 1 5 C1.33 4.34 1.66 3.68 2 3 C1.34 2.67 0.68 2.34 0 2 C0 1.34 0 0.68 0 0 Z " fill="#DEB62B" transform="translate(442,518)"/>
<path d="M0 0 C0.99 0.33 1.98 0.66 3 1 C3.6875 3.0625 3.6875 3.0625 4 5 C4.66 4.67 5.32 4.34 6 4 C6 5.65 6 7.3 6 9 C5.67 8.34 5.34 7.68 5 7 C4.01 7 3.02 7 2 7 C2 8.32 2 9.64 2 11 C-0.475 10.01 -0.475 10.01 -3 9 C-1.125 3.125 -1.125 3.125 0 2 C0 1.34 0 0.68 0 0 Z " fill="#E1BE40" transform="translate(464,527)"/>
<path d="M0 0 C4.75481646 0.57634139 7.97048212 2.55068521 12 5 C11.38125 5.12375 10.7625 5.2475 10.125 5.375 C7.80879168 5.87197356 7.80879168 5.87197356 6 8 C6 7.34 6 6.68 6 6 C5.34 6 4.68 6 4 6 C4 6.66 4 7.32 4 8 C3.34 8 2.68 8 2 8 C1.34 5.36 0.68 2.72 0 0 Z " fill="#DEB831" transform="translate(261,486)"/>
<path d="M0 0 C1.32 0 2.64 0 4 0 C4.96747771 3.112514 5.25702664 4.48016155 3.78515625 7.45703125 C3.21667969 8.23433594 2.64820313 9.01164062 2.0625 9.8125 C1.49660156 10.60269531 0.93070313 11.39289063 0.34765625 12.20703125 C-0.09707031 12.79871094 -0.54179688 13.39039063 -1 14 C-1.33 13.34 -1.66 12.68 -2 12 C-0.5625 9.375 -0.5625 9.375 1 7 C0.01 7 -0.98 7 -2 7 C-2 5.35 -2 3.7 -2 2 C-1.67 2.66 -1.34 3.32 -1 4 C-0.67 2.68 -0.34 1.36 0 0 Z " fill="#DEB834" transform="translate(602,438)"/>
<path d="M0 0 C0.99 0.33 1.98 0.66 3 1 C5.14255793 0.61067144 5.14255793 0.61067144 7 0 C6.39254603 4.85963179 4.27241033 8.7405518 2 13 C0.95550089 9.86650268 1.06576355 9.01031744 2 6 C1.34 6.66 0.68 7.32 0 8 C-0.38063221 5.6739143 -0.71269945 3.33944736 -1 1 C-0.67 0.67 -0.34 0.34 0 0 Z " fill="#DEB833" transform="translate(574,421)"/>
<path d="M0 0 C0 1.65 0 3.3 0 5 C-2.93720508 6.52299523 -5.9168649 7.80100302 -9 9 C-9.66 8.34 -10.32 7.68 -11 7 C-9.54634731 5.82750647 -8.08692581 4.66216184 -6.625 3.5 C-5.40683594 2.52546875 -5.40683594 2.52546875 -4.1640625 1.53125 C-2 0 -2 0 0 0 Z " fill="#DFB931" transform="translate(609,353)"/>
<path d="M0 0 C0.33 1.32 0.66 2.64 1 4 C1.33 3.01 1.66 2.02 2 1 C2.66 1.33 3.32 1.66 4 2 C4 2.66 4 3.32 4 4 C5.65 3.67 7.3 3.34 9 3 C8.67 3.99 8.34 4.98 8 6 C6.34795544 6.70211894 4.68076231 7.36971413 3 8 C2.67 8.66 2.34 9.32 2 10 C0.68 9.67 -0.64 9.34 -2 9 C-1.125 2.25 -1.125 2.25 0 0 Z " fill="#DDB733" transform="translate(755,550)"/>
<path d="M0 0 C1 2 1 2 0.75 3.9375 C0 6 0 6 -1.5 7.4375 C-3.47448023 9.49425024 -3.51569669 11.23255252 -4 14 C-6 17 -6 17 -8.625 17.6875 C-9.40875 17.790625 -10.1925 17.89375 -11 18 C-9.73252511 15.74804937 -8.46117132 13.49844253 -7.1875 11.25 C-6.83107422 10.61578125 -6.47464844 9.9815625 -6.10742188 9.328125 C-4.24751265 6.05195463 -2.36160916 2.95014899 0 0 Z " fill="#DFB82E" transform="translate(426,506)"/>
<path d="M0 0 C0.66 0.33 1.32 0.66 2 1 C1.30132812 1.66386719 0.60265625 2.32773437 -0.1171875 3.01171875 C-1.48230469 4.33623047 -1.48230469 4.33623047 -2.875 5.6875 C-3.77992187 6.55761719 -4.68484375 7.42773438 -5.6171875 8.32421875 C-7.92168822 10.91205973 -8.76936217 12.83550273 -10 16 C-13.125 17.3125 -13.125 17.3125 -16 18 C-11.37338295 11.26695568 -5.86878323 5.66001228 0 0 Z " fill="#DDB324" transform="translate(131,391)"/>
<path d="M0 0 C1.63001953 0.01353516 1.63001953 0.01353516 3.29296875 0.02734375 C4.12441406 0.03894531 4.95585938 0.05054688 5.8125 0.0625 C5.8125 0.3925 5.8125 0.7225 5.8125 1.0625 C2.8425 1.0625 -0.1275 1.0625 -3.1875 1.0625 C-3.5175 2.3825 -3.8475 3.7025 -4.1875 5.0625 C-6.4975 4.4025 -8.8075 3.7425 -11.1875 3.0625 C-7.77577281 -0.34922719 -4.59805191 -0.04944142 0 0 Z M-6.1875 5.0625 C-5.8575 5.0625 -5.5275 5.0625 -5.1875 5.0625 C-5.1875 6.7125 -5.1875 8.3625 -5.1875 10.0625 C-5.8475 9.7325 -6.5075 9.4025 -7.1875 9.0625 C-6.8575 7.7425 -6.5275 6.4225 -6.1875 5.0625 Z " fill="#DEB62C" transform="translate(621.1875,349.9375)"/>
<path d="M0 0 C0 3.99897642 -1.35316035 5.06701552 -4 8 C-5.63356951 9.37368345 -7.2925002 10.71937515 -9 12 C-9.66 11.67 -10.32 11.34 -11 11 C-10.67 10.01 -10.34 9.02 -10 8 C-9.01 8 -8.02 8 -7 8 C-7 6.35 -7 4.7 -7 3 C-6.34 3 -5.68 3 -5 3 C-5 2.34 -5 1.68 -5 1 C-3.68 1 -2.36 1 -1 1 C-0.67 0.67 -0.34 0.34 0 0 Z " fill="#DEB72E" transform="translate(142,581)"/>
<path d="M0 0 C0.66 0.33 1.32 0.66 2 1 C-0.64 2.98 -3.28 4.96 -6 7 C-5.34 7.33 -4.68 7.66 -4 8 C-4.66 9.32 -5.32 10.64 -6 12 C-6.99 11.34 -7.98 10.68 -9 10 C-11.62531524 9.83286431 -11.62531524 9.83286431 -14 10 C-11.19533807 7.00618646 -8.38815731 4.8006379 -4.875 2.6875 C-4.00617188 2.15511719 -3.13734375 1.62273437 -2.2421875 1.07421875 C-1.50226563 0.71972656 -0.76234375 0.36523438 0 0 Z " fill="#DDB62D" transform="translate(265,456)"/>
<path d="M0 0 C3.8665284 3.222107 4.88059018 6.14922412 6 11 C4.68 12.32 3.36 13.64 2 15 C2 14.34 2 13.68 2 13 C1.01 13.33 0.02 13.66 -1 14 C-0.67 12.35 -0.34 10.7 0 9 C1.32 9 2.64 9 4 9 C3.34 7.88625 2.68 6.7725 2 5.625 C0 2.25 0 2.25 0 0 Z " fill="#DFB834" transform="translate(678,470)"/>
<path d="M0 0 C0.99 0.33 1.98 0.66 3 1 C3.35858439 4.85478218 3.2754818 6.57759458 1.125 9.875 C0.42375 10.57625 -0.2775 11.2775 -1 12 C-1.66 12 -2.32 12 -3 12 C-2.835 11.38125 -2.67 10.7625 -2.5 10.125 C-1.92365356 8.03936614 -1.92365356 8.03936614 -2 6 C-2.66 5.34 -3.32 4.68 -4 4 C-3.01 3.34 -2.02 2.68 -1 2 C-0.67 1.34 -0.34 0.68 0 0 Z " fill="#E2BF42" transform="translate(625,398)"/>
<path d="M0 0 C5.29158974 1.40071493 7.77478044 4.85487245 11 9 C8.23735711 9.59732819 5.83967231 10 3 10 C3 9.01 3 8.02 3 7 C2.34 6.34 1.68 5.68 1 5 C1.99 4.67 2.98 4.34 4 4 C2.68 2.68 1.36 1.36 0 0 Z " fill="#DEB72F" transform="translate(275,493)"/>
<path d="M0 0 C0.33 0.66 0.66 1.32 1 2 C1.66 2 2.32 2 3 2 C3.33 1.34 3.66 0.68 4 0 C5 3 5 3 4.25 5 C2.99748845 7.00401848 1.81415316 8.4882057 0 10 C-0.66 10 -1.32 10 -2 10 C-2 7.03 -2 4.06 -2 1 C-1.34 0.67 -0.68 0.34 0 0 Z " fill="#E5C246" transform="translate(667,490)"/>
<path d="M0 0 C0.99 0.33 1.98 0.66 3 1 C2.505 1.45375 2.01 1.9075 1.5 2.375 C-0.22609337 3.87635519 -0.22609337 3.87635519 0 6 C-1.96147874 7.38938077 -3.96166576 8.7260411 -6 10 C-6.33 9.34 -6.66 8.68 -7 8 C-7.66 7.67 -8.32 7.34 -9 7 C-7.57277341 5.8001722 -6.13284224 4.6154424 -4.6875 3.4375 C-3.88699219 2.77621094 -3.08648437 2.11492187 -2.26171875 1.43359375 C-1.51535156 0.96050781 -0.76898438 0.48742187 0 0 Z " fill="#DEB832" transform="translate(461,468)"/>
<path d="M0 0 C-2.97 4.29 -5.94 8.58 -9 13 C-9.33 12.34 -9.66 11.68 -10 11 C-8.68 9.02 -7.36 7.04 -6 5 C-6.99 4.67 -7.98 4.34 -9 4 C-6.56225426 0.2214941 -6.56225426 0.2214941 -3.9375 -0.8125 C-2 -1 -2 -1 0 0 Z " fill="#DFB830" transform="translate(846,547)"/>
<path d="M0 0 C0.33 0.66 0.66 1.32 1 2 C-0.98 4.97 -2.96 7.94 -5 11 C-5.33 9.68 -5.66 8.36 -6 7 C-6.66 6.67 -7.32 6.34 -8 6 C-7.67 4.68 -7.34 3.36 -7 2 C-5.35 2.33 -3.7 2.66 -2 3 C-1.34 2.01 -0.68 1.02 0 0 Z " fill="#DFB833" transform="translate(835,560)"/>
<path d="M0 0 C0.33 1.32 0.66 2.64 1 4 C1.66 3.34 2.32 2.68 3 2 C2.25 6.75 2.25 6.75 0 9 C-0.99 10.485 -0.99 10.485 -2 12 C-2.66 12.99 -3.32 13.98 -4 15 C-3.50341703 9.33895411 -2.45489316 5.12325529 0 0 Z " fill="#DFB831" transform="translate(880,545)"/>
<path d="M0 0 C4.3906675 5.85422333 4.16787242 10.24505821 3.5625 17.375 C3.40974609 19.24285156 3.40974609 19.24285156 3.25390625 21.1484375 C3.17011719 22.08945312 3.08632813 23.03046875 3 24 C2.67 24 2.34 24 2 24 C1.34 16.08 0.68 8.16 0 0 Z " fill="#DDB323" transform="translate(383,485)"/>
<path d="M0 0 C1.32 0.33 2.64 0.66 4 1 C3.49477778 5.37859255 0.82172778 7.81651224 -2 11 C-3 9 -3 9 -2.44140625 6.8359375 C-2.15136719 6.02382813 -1.86132812 5.21171875 -1.5625 4.375 C-1.27503906 3.55773437 -0.98757813 2.74046875 -0.69140625 1.8984375 C-0.46324219 1.27195312 -0.23507812 0.64546875 0 0 Z " fill="#FDF9EE" transform="translate(555,485)"/>
<path d="M0 0 C1 3 1 3 0.22729492 4.88525391 C-0.18415771 5.57538574 -0.59561035 6.26551758 -1.01953125 6.9765625 C-1.46490234 7.729375 -1.91027344 8.4821875 -2.36914062 9.2578125 C-2.84544922 10.03898437 -3.32175781 10.82015625 -3.8125 11.625 C-4.27720703 12.41390625 -4.74191406 13.2028125 -5.22070312 14.015625 C-8.7204265 19.86021325 -8.7204265 19.86021325 -11 21 C-10.71125 20.29875 -10.4225 19.5975 -10.125 18.875 C-8.94970556 15.98646696 -8.94970556 15.98646696 -8.0625 12.875 C-6.9735412 9.92840561 -6.18880021 9.10461558 -4 7 C-2.57231222 4.71157627 -1.29566426 2.36793812 0 0 Z " fill="#DDB527" transform="translate(618,420)"/>
<path d="M0 0 C1 2 1 2 0.0625 5.125 C-0.288125 6.07375 -0.63875 7.0225 -1 8 C-0.34 8.66 0.32 9.32 1 10 C0.4225 10.2475 -0.155 10.495 -0.75 10.75 C-3.3002997 12.16683317 -5.01785701 13.87627537 -7 16 C-6.40165275 11.85701333 -4.99335715 8.81805623 -2.9375 5.1875 C-2.11572266 3.72376953 -2.11572266 3.72376953 -1.27734375 2.23046875 C-0.85582031 1.49441406 -0.43429687 0.75835937 0 0 Z " fill="#DDB42A" transform="translate(561,411)"/>
<path d="M0 0 C0.99 0 1.98 0 3 0 C2.67 4.62 2.34 9.24 2 14 C1.34 14 0.68 14 0 14 C-0.33 13.01 -0.66 12.02 -1 11 C-0.67 10.34 -0.34 9.68 0 9 C-0.66 9 -1.32 9 -2 9 C-1.34 6.03 -0.68 3.06 0 0 Z " fill="#E5C345" transform="translate(325,568)"/>
<path d="M0 0 C3.63 1.98 7.26 3.96 11 6 C11 6.33 11 6.66 11 7 C9.02 7 7.04 7 5 7 C5 7.66 5 8.32 5 9 C4.34 9 3.68 9 3 9 C1.24005726 5.83210307 0.75127114 3.75635569 0 0 Z " fill="#DEB82F" transform="translate(467,528)"/>
<path d="M0 0 C1.25425781 0.01804687 2.50851562 0.03609375 3.80078125 0.0546875 C5.22970703 0.08949219 5.22970703 0.08949219 6.6875 0.125 C6.6875 0.455 6.6875 0.785 6.6875 1.125 C5.45773437 1.21587891 5.45773437 1.21587891 4.203125 1.30859375 C2.58664062 1.43427734 2.58664062 1.43427734 0.9375 1.5625 C-0.12984375 1.64371094 -1.1971875 1.72492188 -2.296875 1.80859375 C-4.7670441 2.06776952 -6.97401999 2.30220148 -9.3125 3.125 C-10.59686734 5.1087767 -10.59686734 5.1087767 -11.3125 7.125 C-11.6425 5.475 -11.9725 3.825 -12.3125 2.125 C-8.09353134 0.07601713 -4.65877854 -0.08707997 0 0 Z " fill="#DFB628" transform="translate(478.3125,463.875)"/>
<path d="M0 0 C0.66 0.33 1.32 0.66 2 1 C1.3503125 1.67095703 1.3503125 1.67095703 0.6875 2.35546875 C-2.91552816 6.1027842 -2.91552816 6.1027842 -4.375 10.9375 C-4.25125 11.618125 -4.1275 12.29875 -4 13 C-4.66 13 -5.32 13 -6 13 C-6 12.34 -6 11.68 -6 11 C-7.98 11.99 -7.98 11.99 -10 13 C-8.56501627 9.79111679 -6.78256013 7.42193016 -4.4375 4.8125 C-3.81746094 4.11769531 -3.19742188 3.42289062 -2.55859375 2.70703125 C-1.72141231 1.79011824 -0.8779528 0.8779528 0 0 Z " fill="#DDB429" transform="translate(224,394)"/>
<path d="M0 0 C3.96 0 7.92 0 12 0 C12 0.33 12 0.66 12 1 C10.329375 1.12375 10.329375 1.12375 8.625 1.25 C4.94246056 1.57873787 4.94246056 1.57873787 3.5625 4.0625 C3.376875 4.701875 3.19125 5.34125 3 6 C1.0625 5.6875 1.0625 5.6875 -1 5 C-1.33 4.01 -1.66 3.02 -2 2 C0.475 2.495 0.475 2.495 3 3 C3 2.34 3 1.68 3 1 C2.01 0.67 1.02 0.34 0 0 Z " fill="#DEB62E" transform="translate(205,476)"/>
<path d="M0 0 C1.2077558 3.62326739 0.54311128 4.64146369 -1 8 C-2.33333333 8 -3.66666667 8 -5 8 C-5 6.35 -5 4.7 -5 3 C-5.99 2.67 -6.98 2.34 -8 2 C-6.0085944 1.61866701 -4.00720923 1.28674418 -2 1 C-1.67 1.33 -1.34 1.66 -1 2 C-0.67 1.34 -0.34 0.68 0 0 Z " fill="#DEB832" transform="translate(709,541)"/>
<path d="M0 0 C1.98 0.66 3.96 1.32 6 2 C6 3.32 6 4.64 6 6 C4.68 6 3.36 6 2 6 C1.67 6.33 1.34 6.66 1 7 C0.34 6.67 -0.32 6.34 -1 6 C-0.67 4.02 -0.34 2.04 0 0 Z " fill="#E2BF41" transform="translate(946,530)"/>
<path d="M0 0 C0.66 0.33 1.32 0.66 2 1 C-0.97 3.97 -3.94 6.94 -7 10 C-7.33 9.34 -7.66 8.68 -8 8 C-8.66 7.67 -9.32 7.34 -10 7 C-6.7 4.69 -3.4 2.38 0 0 Z " fill="#E0B82F" transform="translate(412,525)"/>
<path d="M0 0 C0 3 0 3 -1 5 C-0.01 4.67 0.98 4.34 2 4 C2 4.66 2 5.32 2 6 C1.34 6 0.68 6 0 6 C0 6.66 0 7.32 0 8 C-3.3 7.01 -6.6 6.02 -10 5 C-6 4 -6 4 -3 4 C-3 3.34 -3 2.68 -3 2 C-2.01 1.34 -1.02 0.68 0 0 Z " fill="#DDB72E" transform="translate(246,488)"/>
<path d="M0 0 C0.33 0.99 0.66 1.98 1 3 C1.33 3.66 1.66 4.32 2 5 C2.33 5.99 2.66 6.98 3 8 C2.21625 8.103125 1.4325 8.20625 0.625 8.3125 C-2.33045181 8.77595022 -2.33045181 8.77595022 -4 12 C-4.66 11.67 -5.32 11.34 -6 11 C-5.38125 9.9275 -4.7625 8.855 -4.125 7.75 C-2.6676321 5.20219016 -1.27075509 2.64740645 0 0 Z " fill="#DFB62C" transform="translate(690,526)"/>
<path d="M0 0 C0.99 0.99 1.98 1.98 3 3 C3.99 2.34 4.98 1.68 6 1 C6.33 2.65 6.66 4.3 7 6 C6.01 6.33 5.02 6.66 4 7 C3.67 7.66 3.34 8.32 3 9 C0 3.375 0 3.375 0 0 Z " fill="#DFB733" transform="translate(345,518)"/>
<path d="M0 0 C0.66 0.33 1.32 0.66 2 1 C-1.66666667 4.66666667 -5.33333333 8.33333333 -9 12 C-9.33 10.68 -9.66 9.36 -10 8 C-8.63875 7.13375 -8.63875 7.13375 -7.25 6.25 C-4.47977054 4.33214884 -2.28054501 2.45597155 0 0 Z " fill="#DFB527" transform="translate(612,372)"/>
<path d="M0 0 C0.33 1.32 0.66 2.64 1 4 C-0.43359375 5.921875 -0.43359375 5.921875 -2.4375 7.75 C-3.09621094 8.36359375 -3.75492188 8.9771875 -4.43359375 9.609375 C-5.20896484 10.29773438 -5.20896484 10.29773438 -6 11 C-6.66 10.67 -7.32 10.34 -8 10 C-5.36 6.7 -2.72 3.4 0 0 Z " fill="#DFB82D" transform="translate(659,508)"/>
<path d="M0 0 C1.0625 1.8125 1.0625 1.8125 2 4 C0.7024354 7.8926938 -1.54527839 10.76423061 -4 14 C-3.36843005 8.94744036 -1.86540627 4.70406799 0 0 Z " fill="#DEB62A" transform="translate(624,381)"/>
<path d="M0 0 C0.33 0.99 0.66 1.98 1 3 C-0.328125 5.15625 -0.328125 5.15625 -2.25 7.5 C-2.87390625 8.2734375 -3.4978125 9.046875 -4.140625 9.84375 C-5.69746248 11.64915817 -7.28399779 13.34755342 -9 15 C-7.61219205 11.10993227 -5.7847773 8.03441292 -3.375 4.6875 C-2.74335937 3.80449219 -2.11171875 2.92148437 -1.4609375 2.01171875 C-0.97882812 1.34785156 -0.49671875 0.68398438 0 0 Z " fill="#DEB425" transform="translate(580,380)"/>
<path d="M0 0 C0.33 0.66 0.66 1.32 1 2 C0.34 1.67 -0.32 1.34 -1 1 C-0.67 0.67 -0.34 0.34 0 0 Z M-3 1 C-2.01 1.495 -2.01 1.495 -1 2 C-1 2.66 -1 3.32 -1 4 C1.31 4.33 3.62 4.66 6 5 C2.86501708 6.85776765 0.62528568 7.20140476 -3 7 C-3 5.02 -3 3.04 -3 1 Z " fill="#DEB730" transform="translate(211,367)"/>
<path d="M0 0 C0.33 0.66 0.66 1.32 1 2 C-1.18610882 6.37221763 -3.32241995 9.71644638 -7 13 C-7 9.16235973 -5.73464665 7.88513915 -3.5 4.8125 C-2.8503125 3.91144531 -2.200625 3.01039063 -1.53125 2.08203125 C-1.0259375 1.39496094 -0.520625 0.70789063 0 0 Z " fill="#DEB627" transform="translate(612,492)"/>
<path d="M0 0 C0.66 0.99 1.32 1.98 2 3 C0.71034824 4.37562854 -0.62689293 5.70766393 -2 7 C-2.66 7 -3.32 7 -4 7 C-4.66 8.32 -5.32 9.64 -6 11 C-6 7.39426104 -5.18292538 6.58663434 -3 3.8125 C-2.443125 3.09707031 -1.88625 2.38164062 -1.3125 1.64453125 C-0.879375 1.10183594 -0.44625 0.55914062 0 0 Z " fill="#DFB62B" transform="translate(586,454)"/>
<path d="M0 0 C0.33 0.99 0.66 1.98 1 3 C0.34 3 -0.32 3 -1 3 C-1 3.66 -1 4.32 -1 5 C0.32 5.33 1.64 5.66 3 6 C2.67 6.66 2.34 7.32 2 8 C-0.0625 8.625 -0.0625 8.625 -2 9 C-2 8.01 -2 7.02 -2 6 C-2.66 5.67 -3.32 5.34 -4 5 C-2.68 3.35 -1.36 1.7 0 0 Z " fill="#DDB630" transform="translate(470,561)"/>
<path d="M0 0 C0.99 0 1.98 0 3 0 C3 0.99 3 1.98 3 3 C3.66 3 4.32 3 5 3 C4.67 3.66 4.34 4.32 4 5 C3.67 5.99 3.34 6.98 3 8 C2.34 8 1.68 8 1 8 C0.67 5.36 0.34 2.72 0 0 Z M6 0 C6.66 0.66 7.32 1.32 8 2 C7.01 2.33 6.02 2.66 5 3 C5.33 2.01 5.66 1.02 6 0 Z " fill="#E4C148" transform="translate(874,562)"/>
<path d="M0 0 C0 0.99 0 1.98 0 3 C-1.33333333 4.33333333 -2.66666667 5.66666667 -4 7 C-5.25436187 9.63222962 -5.25436187 9.63222962 -6 12 C-6.99 11.34 -7.98 10.68 -9 10 C-6.03 6.7 -3.06 3.4 0 0 Z " fill="#DEB62B" transform="translate(928,557)"/>
<path d="M0 0 C0 4.24645065 -1.81750806 6.38524772 -4 10 C-4.99 10 -5.98 10 -7 10 C-5.33248852 6.05860922 -2.77289351 3.2107188 0 0 Z " fill="#DEB629" transform="translate(711,494)"/>
<path d="M0 0 C-0.55171875 0.26554687 -1.1034375 0.53109375 -1.671875 0.8046875 C-4.27039525 2.13882709 -6.75122955 3.61258631 -9.25 5.125 C-10.14203125 5.66382813 -11.0340625 6.20265625 -11.953125 6.7578125 C-12.62859375 7.16773438 -13.3040625 7.57765625 -14 8 C-14 6.68 -14 5.36 -14 4 C-12.88625 3.525625 -11.7725 3.05125 -10.625 2.5625 C-4.41071429 -0.11607143 -4.41071429 -0.11607143 0 0 Z " fill="#DFB628" transform="translate(378,477)"/>
<path d="M0 0 C0.33 0 0.66 0 1 0 C1.66 2.97 2.32 5.94 3 9 C1.68 9.33 0.36 9.66 -1 10 C-1.02689216 8.52093108 -1.04634621 7.04172517 -1.0625 5.5625 C-1.07410156 4.73878906 -1.08570313 3.91507813 -1.09765625 3.06640625 C-1 1 -1 1 0 0 Z " fill="#DEB832" transform="translate(874,565)"/>
<path d="M0 0 C1 3 1 3 -0.4375 6.1875 C-1.2109375 7.5796875 -1.2109375 7.5796875 -2 9 C-2.99 8.34 -3.98 7.68 -5 7 C-5 6.34 -5 5.68 -5 5 C-5.66 5 -6.32 5 -7 5 C-6.67 4.34 -6.34 3.68 -6 3 C-4.33333333 2.66666667 -2.66666667 2.33333333 -1 2 C-0.67 1.34 -0.34 0.68 0 0 Z " fill="#DFB82D" transform="translate(681,500)"/>
<path d="M0 0 C1.65 0 3.3 0 5 0 C5 3 5 3 3.5 4.6875 C3.005 5.120625 2.51 5.55375 2 6 C0 3 0 3 0 0 Z " fill="#E2BE3E" transform="translate(244,386)"/>
<path d="M0 0 C2.31 0 4.62 0 7 0 C4.44977144 2.97526665 1.59706474 4.50122302 -2 6 C-2.99 5.67 -3.98 5.34 -5 5 C-3.35 4.34 -1.7 3.68 0 3 C0 2.01 0 1.02 0 0 Z " fill="#DFB426" transform="translate(548,591)"/>
<path d="M0 0 C0 3.77910478 -0.99703962 4.46106101 -3.5 7.1875 C-4.1496875 7.90292969 -4.799375 8.61835938 -5.46875 9.35546875 C-5.9740625 9.89816406 -6.479375 10.44085938 -7 11 C-7.66 10.67 -8.32 10.34 -9 10 C-6.03 6.7 -3.06 3.4 0 0 Z " fill="#DEB628" transform="translate(567,479)"/>
<path d="M0 0 C0.33 0.66 0.66 1.32 1 2 C0.113125 1.938125 -0.77375 1.87625 -1.6875 1.8125 C-5.38032702 2.02152794 -6.9225707 3.08700341 -10 5 C-10.99 4.67 -11.98 4.34 -13 4 C-12 2 -12 2 -9.3125 0.875 C-6.0420565 0.01110926 -3.36293818 -0.16013991 0 0 Z " fill="#DFB626" transform="translate(482,477)"/>
<path d="M0 0 C1.32 0.33 2.64 0.66 4 1 C2.64978174 5.41889613 0.73884332 7.34345343 -3 10 C-2.690625 9.443125 -2.38125 8.88625 -2.0625 8.3125 C-0.84620449 5.6652686 0 2.94650436 0 0 Z " fill="#DFB72E" transform="translate(304,445)"/>
<path d="M0 0 C0.66 0.33 1.32 0.66 2 1 C2 1.99 2 2.98 2 4 C2.99 4.33 3.98 4.66 5 5 C3.68 5.99 2.36 6.98 1 8 C0.26919734 6.02253397 -0.39421747 4.01927511 -1 2 C-0.67 1.34 -0.34 0.68 0 0 Z " fill="#E4C145" transform="translate(551,496)"/>
<path d="M0 0 C1.32 0 2.64 0 4 0 C5.35439668 2.70879335 5.06501451 5.00933268 5 8 C3.68 7.34 2.36 6.68 1 6 C1.66 5.34 2.32 4.68 3 4 C2.01 3.34 1.02 2.68 0 2 C0 1.34 0 0.68 0 0 Z " fill="#E5C347" transform="translate(795,465)"/>
<path d="M0 0 C0.33 0.66 0.66 1.32 1 2 C0.34 2 -0.32 2 -1 2 C-1.33 2.99 -1.66 3.98 -2 5 C-4.64 4.67 -7.28 4.34 -10 4 C-10 3.67 -10 3.34 -10 3 C-5.05 1.515 -5.05 1.515 0 0 Z " fill="#DEB526" transform="translate(554,578)"/>
<path d="M0 0 C0.33 0.66 0.66 1.32 1 2 C0.01 2.495 0.01 2.495 -1 3 C-0.34 3.66 0.32 4.32 1 5 C1 5.99 1 6.98 1 8 C0.01 7.67 -0.98 7.34 -2 7 C-2.33 5.35 -2.66 3.7 -3 2 C-2.01 1.34 -1.02 0.68 0 0 Z " fill="#DEB831" transform="translate(650,573)"/>
<path d="M0 0 C1.09658936 3.28976808 0.79953138 4.71303767 0 8 C-1.32 8.33 -2.64 8.66 -4 9 C-2.94124926 5.59687262 -1.99097846 2.98646769 0 0 Z " fill="#DDB62B" transform="translate(137,559)"/>
<path d="M0 0 C1.35439668 2.70879335 1.06501451 5.00933268 1 8 C-0.32 8 -1.64 8 -3 8 C-2.45276317 4.62537285 -1.9451 2.91765 0 0 Z " fill="#DDB62E" transform="translate(597,516)"/>
<path d="M0 0 C1.5625 1.1875 1.5625 1.1875 3 3 C2.6875 5.6875 2.6875 5.6875 2 8 C0.26216175 5.39324263 -0.50215905 3.98704569 -1 1 C-0.67 0.67 -0.34 0.34 0 0 Z M-3 2 C-2.34 2 -1.68 2 -1 2 C-1 2.66 -1 3.32 -1 4 C-1.66 4 -2.32 4 -3 4 C-3 3.34 -3 2.68 -3 2 Z " fill="#E4C044" transform="translate(585,459)"/>
<path d="M0 0 C1 4 1 4 0 6 C-0.99 6 -1.98 6 -3 6 C-3 6.66 -3 7.32 -3 8 C-3.66 7.67 -4.32 7.34 -5 7 C-3.35 4.69 -1.7 2.38 0 0 Z " fill="#DDB62C" transform="translate(114,410)"/>
<path d="M0 0 C2 1.3125 2 1.3125 4 3 C4 3.99 4 4.98 4 6 C2.68 5.67 1.36 5.34 0 5 C-0.5625 3.0625 -0.5625 3.0625 -1 1 C-0.67 0.67 -0.34 0.34 0 0 Z " fill="#E1BA36" transform="translate(595,587)"/>
<path d="M0 0 C0.33 0.66 0.66 1.32 1 2 C-0.01553817 5.0466145 -1.20762558 7.31143836 -3 10 C-3.66 9.67 -4.32 9.34 -5 9 C-3.35 6.03 -1.7 3.06 0 0 Z " fill="#DCB322" transform="translate(945,531)"/>
<path d="M0 0 C0.68707555 2.49064888 1 4.37886292 1 7 C0.34 6.67 -0.32 6.34 -1 6 C-1.66 7.32 -2.32 8.64 -3 10 C-2.49287967 6.28111761 -1.88391785 3.26545761 0 0 Z " fill="#DCB324" transform="translate(832,498)"/>
<path d="M0 0 C1.32 0.33 2.64 0.66 4 1 C4.33 3.31 4.66 5.62 5 8 C2.20127563 5.47211993 0.54226981 3.79588866 0 0 Z " fill="#DFB628" transform="translate(101,459)"/>
<path d="M0 0 C1.52519276 0.08937803 3.04681929 0.24537146 4.5625 0.4375 C5.80193359 0.59025391 5.80193359 0.59025391 7.06640625 0.74609375 C7.70449219 0.82988281 8.34257812 0.91367187 9 1 C9 1.33 9 1.66 9 2 C7.329375 2.2165625 7.329375 2.2165625 5.625 2.4375 C2.17857953 2.78372035 2.17857953 2.78372035 0 4 C-0.33 3.01 -0.66 2.02 -1 1 C-0.67 0.67 -0.34 0.34 0 0 Z " fill="#DDB72E" transform="translate(254,353)"/>
<path d="M0 0 C1.32 0 2.64 0 4 0 C2.25 5.75 2.25 5.75 0 8 C0 5.36 0 2.72 0 0 Z " fill="#DDB527" transform="translate(819,582)"/>
<path d="M0 0 C0.66 0.99 1.32 1.98 2 3 C0.625 4.5 0.625 4.5 -1 6 C-1.66 6 -2.32 6 -3 6 C-1.125 1.125 -1.125 1.125 0 0 Z " fill="#DEB72F" transform="translate(814,540)"/>
<path d="M0 0 C1 3 1 3 1 6 C-1 7.6875 -1 7.6875 -3 9 C-2.5020163 5.26512223 -2.12508244 3.18762365 0 0 Z " fill="#DDB42A" transform="translate(313,525)"/>
<path d="M0 0 C2.475 0.99 2.475 0.99 5 2 C2.64046906 4.35953094 1.22104383 4.49141413 -2 5 C-2 4.01 -2 3.02 -2 2 C-1.34 2 -0.68 2 0 2 C0 1.34 0 0.68 0 0 Z " fill="#E4C146" transform="translate(657,526)"/>
<path d="M0 0 C2.475 0.495 2.475 0.495 5 1 C4.01 1.495 4.01 1.495 3 2 C2.34444881 4.52733235 2.34444881 4.52733235 2 7 C1.34 7 0.68 7 0 7 C0 4.69 0 2.38 0 0 Z " fill="#E4C144" transform="translate(858,508)"/>
<path d="M0 0 C0.6875 1.8125 0.6875 1.8125 1 4 C-0.4375 5.75 -0.4375 5.75 -2 7 C-2 6.34 -2 5.68 -2 5 C-2.66 4.67 -3.32 4.34 -4 4 C-2.68 2.68 -1.36 1.36 0 0 Z " fill="#DDB62B" transform="translate(858,509)"/>
</svg>
