<?xml version="1.0" encoding="UTF-8"?>
<svg version="1.1" xmlns="http://www.w3.org/2000/svg" width="1024" height="1024">
<path d="M0 0 C5.83773825 21.93402626 7.29969897 48.26680995 0.57666016 70.12353516 C0.0192689 71.93729859 -0.47022475 73.77149977 -0.95703125 75.60546875 C-5.97001813 92.82235626 -15.23308879 109.50494506 -27 123 C-27.76054688 123.88558594 -28.52109375 124.77117187 -29.3046875 125.68359375 C-31.49152195 128.16932079 -33.72437209 130.59548697 -36 133 C-36.71800781 133.75925781 -37.43601562 134.51851562 -38.17578125 135.30078125 C-49.53930693 146.98724904 -62.92636567 156.79490817 -77 165 C-46.2875086 156.58359611 -4.0175002 140.25841695 15 113 C15.99 113.33 16.98 113.66 18 114 C17.608125 115.155 17.21625 116.31 16.8125 117.5 C15.56390877 121.21076646 14.42161566 124.94426423 13.30541992 128.69677734 C10.85829307 136.82808386 7.76742875 144.37399504 4 152 C3.43539062 153.25490234 3.43539062 153.25490234 2.859375 154.53515625 C-3.05695575 167.34692882 -12.31214771 177.91857871 -22 188 C-22.8353125 188.94746094 -22.8353125 188.94746094 -23.6875 189.9140625 C-35.33753066 202.71696078 -53.42212455 211.95469945 -69.1875 218.3125 C-70.31647705 218.77180908 -71.4454541 219.23111816 -72.60864258 219.7043457 C-87.08711469 225.43326572 -102.04066636 229.72409923 -117 234 C-85.00648608 232.90588219 -44.60834377 230.44534366 -16.79296875 213.06640625 C-15 212 -15 212 -13 212 C-14.93596417 218.45950973 -18.27281993 223.43916708 -22 229 C-22.64195312 229.96808594 -23.28390625 230.93617188 -23.9453125 231.93359375 C-27.4964251 237.17111338 -27.4964251 237.17111338 -29 239 C-29.66 239 -30.32 239 -31 239 C-31.26554688 239.59095459 -31.53109375 240.18190918 -31.8046875 240.79077148 C-39.15261182 254.37152459 -58.35303699 264.81760521 -72 271 C-72.67579102 271.30631348 -73.35158203 271.61262695 -74.04785156 271.92822266 C-92.38090174 280.02877436 -111.59141683 283.11663379 -131.3125 285.8125 C-132.12167877 285.92386292 -132.93085754 286.03522583 -133.76455688 286.14996338 C-141.85212753 287.25006595 -149.81735138 288.32956582 -158 288 C-158 288.66 -158 289.32 -158 290 C-157.17435547 290.14695312 -157.17435547 290.14695312 -156.33203125 290.296875 C-151.51836961 291.16258779 -146.71070829 292.05255796 -141.91015625 292.98828125 C-140.54636841 293.2527002 -140.54636841 293.2527002 -139.1550293 293.52246094 C-137.33691049 293.87564253 -135.51933723 294.23164718 -133.70239258 294.59082031 C-123.29333729 296.60716806 -113.24843748 297.1608105 -102.66137695 297.13037109 C-100.43889573 297.12500337 -98.21661579 297.13034712 -95.99414062 297.13671875 C-94.55729123 297.13605799 -93.12044196 297.13477686 -91.68359375 297.1328125 C-90.40025146 297.13168457 -89.11690918 297.13055664 -87.79467773 297.12939453 C-84.96663664 297.0329613 -82.42056437 296.79106297 -79.64477539 296.36669922 C-78.44199951 296.24568848 -77.23922363 296.12467773 -76 296 C-75.34 296.66 -74.68 297.32 -74 298 C-75.87028125 299.75528013 -77.7459162 301.50418455 -79.625 303.25 C-80.14707031 303.74113281 -80.66914062 304.23226563 -81.20703125 304.73828125 C-101.34048113 323.38036447 -126.84664067 328.47888435 -153.40795898 327.95898438 C-173.68603432 327.0862176 -173.68603432 327.0862176 -192 334 C-192.80824219 334.58394531 -193.61648438 335.16789062 -194.44921875 335.76953125 C-206.22508747 345.25711457 -210.98066236 359.36671197 -212.6875 374 C-213.52205178 386.10100083 -213.36769405 398.24944885 -212.125 410.3125 C-212.04660889 411.08207031 -211.96821777 411.85164063 -211.88745117 412.64453125 C-211.35526686 417.28162718 -210.40008624 421.54678452 -209 426 C-209.99 426 -210.98 426 -212 426 C-213.40698242 424.40209961 -213.40698242 424.40209961 -214.85546875 422.15234375 C-215.39123535 421.32790771 -215.92700195 420.50347168 -216.47900391 419.65405273 C-217.04280762 418.75759033 -217.60661133 417.86112793 -218.1875 416.9375 C-218.77192871 416.01718994 -219.35635742 415.09687988 -219.95849609 414.14868164 C-221.65935218 411.4444005 -223.33654457 408.7274205 -225 406 C-225.39944824 405.34515625 -225.79889648 404.6903125 -226.21044922 404.015625 C-240.4581858 380.15520052 -249.29300335 352.44284088 -253 325 C-253.13148438 324.071875 -253.26296875 323.14375 -253.3984375 322.1875 C-257.58383276 287.79938762 -244.43542854 253.30301583 -224.3125 225.8203125 C-222.94930628 224.03224435 -222.94930628 224.03224435 -222 222 C-221.34 222 -220.68 222 -220 222 C-219.73227783 221.41154297 -219.46455566 220.82308594 -219.1887207 220.21679688 C-217.98526113 217.97251408 -216.71413505 216.38731424 -214.98046875 214.53125 C-214.3774292 213.88389893 -213.77438965 213.23654785 -213.15307617 212.56958008 C-212.50443604 211.88661865 -211.8557959 211.20365723 -211.1875 210.5 C-210.51243408 209.78803467 -209.83736816 209.07606934 -209.1418457 208.3425293 C-197.69254273 196.36895391 -185.64864075 186.40361504 -172 177 C-171.34741211 176.54882812 -170.69482422 176.09765625 -170.02246094 175.6328125 C-162.84690748 170.69704878 -155.51619118 166.06547447 -148.0625 161.5625 C-126.61363775 150.19205503 -126.61363775 150.19205503 -110 134 C-109.28972656 133.57847656 -108.57945312 133.15695312 -107.84765625 132.72265625 C-103.74823574 130.24275989 -100.32262952 127.08995068 -96.72851562 123.93945312 C-93.95871641 121.54543954 -91.40351519 119.40634246 -88 118 C-88 117.34 -88 116.68 -88 116 C-86.72680664 114.74584961 -86.72680664 114.74584961 -84.84765625 113.21484375 C-79.0069619 108.24581807 -73.65445915 102.80395146 -68.24536133 97.37573242 C-66.44137915 95.56639067 -64.63211335 93.76245681 -62.82226562 91.95898438 C-57.50568269 86.64537451 -52.24817637 81.3360252 -47.37231445 75.60864258 C-45.44945928 73.35464992 -43.40592398 71.21901115 -41.375 69.0625 C-24.44173888 50.45140051 -10.29804854 29.12988152 -3.0078125 4.9140625 C-2 2 -2 2 0 0 Z " fill="#7DA2BC" transform="translate(790,250)"/>
<path d="M0 0 C1.04330452 2.71259175 1.05729472 3.83957479 0.0625 6.625 C-2.18114703 13.75187879 -1.65245608 19.34036627 1.5 26.125 C11.37012847 44.03321452 31.01462389 50.63861056 49.17919922 57.26416016 C81.83066117 69.22763041 107.80031206 94.21968102 122.8125 125.625 C126.8194245 134.3331897 128.49799239 143.57229497 129.25 153.0625 C129.3329834 154.04677979 129.4159668 155.03105957 129.50146484 156.04516602 C130.17550949 165.10382898 129.83449709 173.96713284 129 183 C128.01 183 127.02 183 126 183 C125.72027344 181.98421875 125.44054687 180.9684375 125.15234375 179.921875 C119.0698211 158.69389685 106.4629613 142.10685987 88 130 C88.43570313 130.63164063 88.87140625 131.26328125 89.3203125 131.9140625 C100.97296548 149.41826416 106.29965476 168.08830783 103 189 C99.52128782 205.38939657 90.91802443 219.13142504 77.3125 228.859375 C60.5769105 239.67435501 44.63791062 242.10922086 25 242 C25.33 241.01 25.66 240.02 26 239 C27.61045959 238.31469805 29.22425733 237.63646751 30.8515625 236.9921875 C47.01241751 229.52881082 59.9332324 214.06083546 67 198 C66.3915625 198.31453125 65.783125 198.6290625 65.15625 198.953125 C43.46177528 209.54513324 18.49065295 210.94519358 -4.49609375 203.93359375 C-19.13382764 198.70952618 -32.62820955 189.27939175 -41 176 C-40.505 175.01 -40.505 175.01 -40 174 C-38.92685547 174.58007812 -38.92685547 174.58007812 -37.83203125 175.171875 C-11.28329522 189.04728167 24.16545212 192.44522881 52.875 183.56640625 C59.13854373 181.47768558 65.13086147 179.04796066 71 176 C69.79988281 175.61070312 68.59976563 175.22140625 67.36328125 174.8203125 C28.56940699 161.92705429 -9.62974967 139.39104926 -29 102 C-37.63089176 84.08374129 -41.88265686 63.0113744 -35.90234375 43.5546875 C-35.60457031 42.71164062 -35.30679687 41.86859375 -35 41 C-34.73316406 40.15695312 -34.46632813 39.31390625 -34.19140625 38.4453125 C-28.84770821 23.19796076 -14.43272272 7.21636136 0 0 Z " fill="#7DA2BC" transform="translate(431,556)"/>
<path d="M0 0 C0.66 0.33 1.32 0.66 2 1 C5.78106225 24.9670559 -1.44108853 50.78471652 -15.3828125 70.42578125 C-31.74322684 92.63959546 -52.59704954 107.72725594 -77.25 119.5625 C-77.9505249 119.90200684 -78.6510498 120.24151367 -79.37280273 120.59130859 C-92.95039913 126.97952787 -107.05920219 131.826194 -121.42501831 136.08428955 C-167.37157847 149.74103048 -212.8111691 165.32052349 -248.75 198.0625 C-249.26900879 198.53284668 -249.78801758 199.00319336 -250.32275391 199.48779297 C-269.44726974 217.19027617 -282.24489658 239.59437215 -293 263 C-293.66 262.67 -294.32 262.34 -295 262 C-296.10627056 232.31110195 -290.56371893 208.77374565 -276 183 C-275.46761719 182.03320312 -274.93523437 181.06640625 -274.38671875 180.0703125 C-273.92910156 179.38710938 -273.47148438 178.70390625 -273 178 C-272.34 178 -271.68 178 -271 178 C-270.76539063 177.29617188 -270.53078125 176.59234375 -270.2890625 175.8671875 C-266.38694574 167.18793386 -258.30214154 159.89580317 -251 154 C-250.18015625 153.29359375 -249.3603125 152.5871875 -248.515625 151.859375 C-241.76655393 146.12461519 -234.69948711 141.35894793 -227 137 C-225.9795459 136.41798828 -225.9795459 136.41798828 -224.93847656 135.82421875 C-193.1220675 117.87138605 -157.01855482 108.63691958 -121.99740601 99.05975342 C-107.82569802 95.17867313 -93.93849243 90.87259979 -80.15844727 85.74926758 C-78 85 -78 85 -75.77709961 84.5222168 C-75.19065674 84.34988525 -74.60421387 84.17755371 -74 84 C-73.67 83.34 -73.34 82.68 -73 82 C-71.21704102 81.30224609 -71.21704102 81.30224609 -68.94140625 80.6484375 C-64.22957784 79.15755283 -60.17229496 77.1511693 -55.9375 74.625 C-55.21578613 74.19727295 -54.49407227 73.7695459 -53.75048828 73.32885742 C-28.44255919 57.87512415 -8.54897217 34.35507977 -1.1875 5.25 C-0.78192803 3.50223131 -0.38230434 1.75300525 0 0 Z " fill="#7DA2BC" transform="translate(786,150)"/>
<path d="M0 0 C29.56142823 9.90955939 55.77820685 27.30568995 78.37890625 48.58984375 C80.94767935 51.01092403 80.94767935 51.01092403 83.63671875 53.08984375 C85.78008304 54.82224893 87.48025402 56.52454391 89.25 58.625 C91.8104637 61.63052284 94.43602861 64.54660951 97.125 67.4375 C113.32669446 85.49706161 126.79707383 106.2491889 138.94921875 127.19287109 C140.08181582 129.14070648 141.22723293 131.08059837 142.375 133.01953125 C149.9474464 145.82227653 157.42031432 158.6844785 164.76171875 171.62109375 C186.29996177 209.69278058 186.29996177 209.69278058 212 245 C212.46631836 245.57073242 212.93263672 246.14146484 213.41308594 246.72949219 C229.51127923 266.31912617 247.41401032 283.16785573 270 295 C271.20462891 295.66128906 271.20462891 295.66128906 272.43359375 296.3359375 C276.26297214 298.37730746 279.6743277 299.56743277 284 300 C284 300.99 284 301.98 284 303 C243.22273406 300.48395593 209.85213149 280.49439658 182.7265625 250.4453125 C179.73099453 247.0332713 176.85560027 243.52928797 174 240 C173.21882812 239.05769531 172.43765625 238.11539063 171.6328125 237.14453125 C158.83948308 221.18517586 148.13149488 203.44231238 138.30957031 185.54467773 C122.47572048 156.7630284 104.34616036 129.2210626 86 102 C85.41299316 101.12649902 84.82598633 100.25299805 84.22119141 99.35302734 C77.22478376 88.95578339 70.01139404 78.77442691 62.39355469 68.82275391 C61.0599909 67.07846743 59.73592152 65.32738381 58.4140625 63.57421875 C42.66873061 42.77669442 24.92849221 21.57438989 4.0390625 5.796875 C1.96870529 3.97242229 1.02178434 2.53761826 0 0 Z " fill="#7DA2BC" transform="translate(172,425)"/>
<path d="M0 0 C3.07005234 0.5444508 6.1403202 1.08765031 9.2109375 1.62890625 C9.98277374 1.76526489 10.75460999 1.90162354 11.54983521 2.04211426 C26.31938752 4.61884203 40.76374561 5.59207011 55.7734375 5.56640625 C52.15647772 9.5684416 48.59898666 11.99327131 43.6484375 14.19140625 C42.98972656 14.49062988 42.33101562 14.78985352 41.65234375 15.09814453 C30.84750263 19.87902447 20.10982033 21.76283347 8.3359375 21.75390625 C6.97480835 21.75487305 6.97480835 21.75487305 5.58618164 21.75585938 C-1.41265173 21.70342027 -8.32259258 21.21283181 -15.2890625 20.56640625 C-37.52456464 18.54094475 -59.90504548 17.49445195 -79.2265625 30.56640625 C-80.91520937 32.21079893 -82.58817625 33.8719311 -84.2265625 35.56640625 C-84.8865625 35.56640625 -85.5465625 35.56640625 -86.2265625 35.56640625 C-86.50371094 36.12328125 -86.78085937 36.68015625 -87.06640625 37.25390625 C-87.86283871 38.84140798 -88.66800972 40.42454665 -89.48046875 42.00390625 C-89.91230469 42.84953125 -90.34414063 43.69515625 -90.7890625 44.56640625 C-91.22347656 45.41203125 -91.65789062 46.25765625 -92.10546875 47.12890625 C-95.16819128 53.78792666 -94.95447171 60.04473012 -92.6015625 66.87890625 C-85.98993311 83.53380659 -75.02776086 96.32538999 -62.2265625 108.56640625 C-60.88985223 109.89635407 -59.55526356 111.22845669 -58.2265625 112.56640625 C-63.78754451 112.07113129 -67.56316477 109.96684846 -72.2265625 107.12890625 C-72.97204346 106.68369629 -73.71752441 106.23848633 -74.4855957 105.77978516 C-79.28669523 102.8695629 -83.88743666 99.75929436 -88.4140625 96.44140625 C-108.84085933 81.48457091 -131.01033596 71.86153585 -156.2265625 69.56640625 C-151.84800069 59.41712451 -138.98265017 52.6450113 -129.40625 48.28125 C-125.53077235 46.79546192 -121.95698521 45.66211681 -117.828125 45.12109375 C-114.29106956 44.62034208 -111.45466038 44.11067065 -108.2265625 42.56640625 C-106.38779322 39.51995148 -105.50949733 36.59159602 -104.5 33.18359375 C-100.11581909 20.73036822 -88.83907421 11.32271612 -77.36328125 5.56640625 C-52.64895874 -6.12562178 -26.24869116 -4.67426227 0 0 Z " fill="#7DA2BC" transform="translate(489.2265625,440.43359375)"/>
<path d="M0 0 C9.26305197 7.15875063 14.32270376 18.38684188 16.12890625 29.73046875 C16.21117759 42.13698721 13.03203598 54.32300078 4.41796875 63.56640625 C-5.41411617 72.75639583 -16.59412815 77.29439461 -29.98046875 76.9765625 C-39.24916932 76.18747042 -47.44164889 73.41355007 -54.87109375 67.73046875 C-55.53109375 66.74046875 -56.19109375 65.75046875 -56.87109375 64.73046875 C-55.67484375 64.89546875 -54.47859375 65.06046875 -53.24609375 65.23046875 C-42.56447639 66.37613118 -31.6468654 67.41631084 -22.46484375 61.06640625 C-15.54683891 55.42868152 -12.26678846 49.57556074 -10.93359375 40.79296875 C-10.44450015 33.50206182 -12.5163325 27.4797322 -16.87109375 21.73046875 C-16.87109375 21.07046875 -16.87109375 20.41046875 -16.87109375 19.73046875 C-17.53109375 19.73046875 -18.19109375 19.73046875 -18.87109375 19.73046875 C-19.40734375 19.15296875 -19.94359375 18.57546875 -20.49609375 17.98046875 C-27.00446672 11.81464173 -35.10388753 10.21808862 -43.87109375 9.73046875 C-52.37477607 10.11035834 -58.76000936 12.17470216 -65.87109375 16.73046875 C-67.19649778 17.41276369 -68.52774328 18.08422442 -69.87109375 18.73046875 C-65.65051577 7.44892382 -58.19572502 0.45859751 -47.87109375 -5.26953125 C-31.13449308 -12.7596143 -14.78416343 -10.03100859 0 0 Z " fill="#7DA2BC" transform="translate(658.87109375,730.26953125)"/>
<path d="M0 0 C29.56142823 9.90955939 55.77820685 27.30568995 78.37890625 48.58984375 C80.94767935 51.01092403 80.94767935 51.01092403 83.63671875 53.08984375 C85.78008304 54.82224893 87.48025402 56.52454391 89.25 58.625 C91.8104637 61.63052284 94.43602861 64.54660951 97.125 67.4375 C113.32669446 85.49706161 126.79707383 106.2491889 138.94921875 127.19287109 C140.08181582 129.14070648 141.22723293 131.08059837 142.375 133.01953125 C149.9474464 145.82227653 157.42031432 158.6844785 164.76171875 171.62109375 C186.29996177 209.69278058 186.29996177 209.69278058 212 245 C212.46631836 245.57073242 212.93263672 246.14146484 213.41308594 246.72949219 C229.51127923 266.31912617 247.41401032 283.16785573 270 295 C271.20462891 295.66128906 271.20462891 295.66128906 272.43359375 296.3359375 C276.26297214 298.37730746 279.6743277 299.56743277 284 300 C284 300.99 284 301.98 284 303 C243.22273406 300.48395593 209.85213149 280.49439658 182.7265625 250.4453125 C179.73099453 247.0332713 176.85560027 243.52928797 174 240 C173.21882812 239.05769531 172.43765625 238.11539063 171.6328125 237.14453125 C158.83948308 221.18517586 148.13149488 203.44231238 138.30957031 185.54467773 C122.47572048 156.7630284 104.34616036 129.2210626 86 102 C85.41299316 101.12649902 84.82598633 100.25299805 84.22119141 99.35302734 C77.22478376 88.95578339 70.01139404 78.77442691 62.39355469 68.82275391 C61.0599909 67.07846743 59.73592152 65.32738381 58.4140625 63.57421875 C42.66873061 42.77669442 24.92849221 21.57438989 4.0390625 5.796875 C1.96870529 3.97242229 1.02178434 2.53761826 0 0 Z M12 8 C13.33280885 11.5985839 15.5230482 13.3729196 18.4921875 15.7109375 C20 17 20 17 22 19.5625 C23.92546615 22.16627637 23.92546615 22.16627637 26.9375 23.875 C30.08631862 26.05989455 31.6170134 27.9448087 33.62890625 31.12109375 C35.50028292 33.68557288 37.73665456 35.77671377 40 38 C56.18622764 55.18961532 56.18622764 55.18961532 58.96875 61.03515625 C60.26558888 63.50602729 62.02107324 65.03173173 64 67 C65.6460626 69.18923568 67.24432082 71.38196972 68.8125 73.625 C69.25335938 74.24890625 69.69421875 74.8728125 70.1484375 75.515625 C71.43656862 77.34079038 72.71933589 79.16958993 74 81 C74.61230469 81.87398438 75.22460938 82.74796875 75.85546875 83.6484375 C76.95200727 85.21640945 78.04705984 86.78542162 79.140625 88.35546875 C80.59853001 90.42900172 82.0676028 92.49254501 83.546875 94.55078125 C83.99353516 95.17275391 84.44019531 95.79472656 84.90039062 96.43554688 C85.77760163 97.65551761 86.65642035 98.87433451 87.53710938 100.09179688 C89.85388998 103.31466338 91.98107034 106.58469247 94 110 C95.17838617 111.67707624 96.39526494 113.31840781 97.62109375 114.9609375 C99.18390375 117.27194832 100.52559184 119.68487263 101.89575195 122.11328125 C103.74625813 125.27505701 105.81622543 128.28393841 107.875 131.3125 C111.18321811 136.22734365 114.37621952 141.16969236 117.375 146.28125 C119.09709505 149.16244749 120.88085705 151.9989654 122.67333984 154.83666992 C126.58715223 161.03437983 130.32335406 167.25353252 133.7578125 173.734375 C134.8356755 175.70028864 135.97572259 177.5333436 137.25 179.375 C139 182 139 182 139.91796875 184.375 C141.03372515 187.08181697 142.38769322 189.23006745 144.0625 191.625 C145.83987829 194.17156156 147.01065939 196.03197816 148 199 C148.66 199 149.32 199 150 199 C150.07605469 199.69222656 150.15210938 200.38445312 150.23046875 201.09765625 C151.20238115 204.7632954 153.10800971 207.42175729 155.3125 210.4375 C156.1007517 211.5400135 156.88851492 212.64287642 157.67578125 213.74609375 C158.82626953 215.35677734 158.82626953 215.35677734 160 217 C160.72468109 218.13542894 161.44744581 219.27208408 162.16796875 220.41015625 C162.77253906 221.26480469 163.37710938 222.11945313 164 223 C164.66 223 165.32 223 166 223 C166.0721875 223.70898438 166.144375 224.41796875 166.21875 225.1484375 C167.22715756 228.82912509 168.99441222 230.75594732 171.5 233.625 C172.41082597 234.68041198 173.32096717 235.73641526 174.23046875 236.79296875 C174.69243652 237.3245459 175.1544043 237.85612305 175.63037109 238.40380859 C178.46728705 241.71000405 181.16521471 245.13234025 183.89453125 248.52734375 C186.13832392 251.1624472 188.53101888 253.5763591 191 256 C191.53625 256.598125 192.0725 257.19625 192.625 257.8125 C194.07561063 259.32680994 194.07561063 259.32680994 197 259 C197.185625 259.70125 197.37125 260.4025 197.5625 261.125 C199.56217893 265.12435786 202.52084155 267.28532031 206 270 C206.7425 270.61875 207.485 271.2375 208.25 271.875 C210.07385347 273.2703788 210.07385347 273.2703788 213 273 C213.20882812 273.57492187 213.41765625 274.14984375 213.6328125 274.7421875 C215.50759792 277.8382617 217.84334001 279.17554627 220.875 281.125 C221.92429687 281.80820312 222.97359375 282.49140625 224.0546875 283.1953125 C226.35005422 284.60175736 228.5690153 285.86032307 231 287 C231.81855469 287.39058594 232.63710938 287.78117187 233.48046875 288.18359375 C238.55807788 290.53555988 243.58222012 292.66711384 248.9296875 294.32421875 C251 295 251 295 253.33203125 296.01171875 C256.48246114 297.17871547 259.48842257 297.65492844 262.8125 298.125 C263.97394531 298.29257812 265.13539063 298.46015625 266.33203125 298.6328125 C267.21246094 298.75398438 268.09289062 298.87515625 269 299 C268.67 298.01 268.34 297.02 268 296 C266.15304503 295.07652251 264.30200676 294.16050318 262.43359375 293.28125 C253.51452605 288.58549686 245.65841953 281.48278495 238 275 C237.20078125 274.32582031 236.4015625 273.65164063 235.578125 272.95703125 C224.67696235 263.46304483 214.64851206 252.5793967 206 241 C205.53271484 240.37818848 205.06542969 239.75637695 204.58398438 239.11572266 C196.816028 228.73345717 189.73975789 218.07638261 183.13671875 206.91943359 C181.62896929 204.37348723 180.09440116 201.84396666 178.5625 199.3125 C176.72471284 196.24084441 174.94452446 193.14215591 173.1875 190.0234375 C171.55925625 187.24899585 169.83402039 184.53786964 168.125 181.8125 C164.35054875 175.71422616 161.09804473 169.46248183 158 163 C157.33600847 161.66533245 156.6704234 160.33144834 156 159 C155.34 159 154.68 159 154 159 C153.7525 158.34 153.505 157.68 153.25 157 C150.00529347 149.21270432 145.84262751 142.12639477 141.0625 135.1875 C139.2593494 132.40081271 137.68850739 129.61146188 136.125 126.6875 C133.7838908 122.32961663 131.22587857 118.24930784 128.42578125 114.17578125 C127.01633822 112.02493257 125.81735345 109.83953619 124.625 107.5625 C122.19902717 103.06499842 119.14687078 99.26436754 115.8671875 95.359375 C114 93 114 93 112.5859375 90.62890625 C110.55751894 87.2665277 108.1899241 84.25876227 105.75 81.1875 C105.26345947 80.57310059 104.77691895 79.95870117 104.27563477 79.32568359 C98.94708976 72.38215347 98.94708976 72.38215347 93 66 C92.34 66 91.68 66 91 66 C90.74605469 65.43152344 90.49210937 64.86304688 90.23046875 64.27734375 C86.54933669 57.4643279 80.51159135 52.03718664 74 48 C73.34 48 72.68 48 72 48 C71.92136719 47.41476562 71.84273437 46.82953125 71.76171875 46.2265625 C70.74475809 43.25390825 69.29760151 42.28037962 66.8125 40.375 C65.91015625 39.68277344 65.0078125 38.99054688 64.078125 38.27734375 C52.30518809 29.56716327 40.37782675 21.41680023 27.625 14.1875 C26.94646973 13.80198975 26.26793945 13.41647949 25.56884766 13.01928711 C19.16233889 9.28026383 19.16233889 9.28026383 12 8 Z " fill="#7DA2BC" transform="translate(172,425)"/>
<path d="M0 0 C1.65 0.33 3.3 0.66 5 1 C4.67 2.65 4.34 4.3 4 6 C2.02 5.01 0.04 4.02 -2 3 C-1.34 2.01 -0.68 1.02 0 0 Z M6 1 C13.79219973 1.47875803 21.27532407 2.73103027 28.91015625 4.28125 C39.71716703 6.2836639 50.67100894 6.29933783 61.625 6.5625 C63.31381077 6.60578206 65.002613 6.64939911 66.69140625 6.69335938 C70.79418244 6.79943596 74.89704777 6.9009764 79 7 C78.34 7.33 77.68 7.66 77 8 C76.78085937 8.7425 76.56171875 9.485 76.3359375 10.25 C74.38603704 14.26383018 71.3866495 15.76795516 67.625 18 C66.5424292 18.65572998 66.5424292 18.65572998 65.43798828 19.32470703 C59.50548085 22.84635281 53.52961398 25.74306219 47 28 C45.96101562 28.37898437 44.92203125 28.75796875 43.8515625 29.1484375 C33.67437166 32.49338834 23.63831017 32.78594949 13 33 C13.33 32.01 13.66 31.02 14 30 C13.34 30 12.68 30 12 30 C12.33 29.34 12.66 28.68 13 28 C13 27.34 13 26.68 13 26 C14.32 25.67 15.64 25.34 17 25 C16.67 24.38125 16.34 23.7625 16 23.125 C14.55526881 20.05494623 15.15152924 18.18176533 16 15 C15.34 14.67 14.68 14.34 14 14 C13.67 14.66 13.34 15.32 13 16 C12.34 16 11.68 16 11 16 C11.66 16.66 12.32 17.32 13 18 C13 18.99 13 19.98 13 21 C11.35 20.34 9.7 19.68 8 19 C7.01 19.99 6.02 20.98 5 22 C3 20.6875 3 20.6875 1 19 C1 18.01 1 17.02 1 16 C1 17.32 1 18.64 1 20 C2.4166747 21.7511573 2.4166747 21.7511573 4 23 C-0.38462134 22.49890042 -2.8000997 21.01704885 -6 18 C-6 17.34 -6 16.68 -6 16 C-5.34 15.67 -4.68 15.34 -4 15 C-4 14.01 -4 13.02 -4 12 C-4.66 12 -5.32 12 -6 12 C-5.67 11.34 -5.34 10.68 -5 10 C-4.34 10.33 -3.68 10.66 -3 11 C-3 10.34 -3 9.68 -3 9 C-3.99 8.67 -4.98 8.34 -6 8 C-5.34 7.67 -4.68 7.34 -4 7 C-2.68 7.99 -1.36 8.98 0 10 C0.33 8.68 0.66 7.36 1 6 C1.66 6 2.32 6 3 6 C3 6.66 3 7.32 3 8 C3.78375 8.103125 4.5675 8.20625 5.375 8.3125 C8 9 8 9 10 12 C10.103125 11.443125 10.20625 10.88625 10.3125 10.3125 C11.13133577 7.55823422 12.45853781 5.41272343 14 3 C12.576875 3.061875 12.576875 3.061875 11.125 3.125 C8 3 8 3 6 1 Z " fill="#7DA2BC" transform="translate(630,543)"/>
<path d="M0 0 C0.99 0.495 0.99 0.495 2 1 C-21.19891008 23 -21.19891008 23 -30 23 C-30 23.66 -30 24.32 -30 25 C-35.75 28 -35.75 28 -38 28 C-38 28.66 -38 29.32 -38 30 C-39.74681293 30.98484108 -41.4975851 31.96266187 -43.25 32.9375 C-44.22453125 33.48277344 -45.1990625 34.02804687 -46.203125 34.58984375 C-48.53610409 35.76610835 -50.45350762 36.52101691 -53 37 C-53 37.66 -53 38.32 -53 39 C-54.49609375 40.21875 -54.49609375 40.21875 -56.4375 41.5 C-59.22531847 43.2865363 -59.22531847 43.2865363 -61 46 C-62.32 46 -63.64 46 -65 46 C-65 46.66 -65 47.32 -65 48 C-66.051875 48.5775 -67.10375 49.155 -68.1875 49.75 C-71.99911312 51.92916467 -75.38582452 54.38582452 -78.5 57.5 C-80 59 -80 59 -82.375 60.875 C-85.11871231 63.09610044 -87.5151033 65.49324204 -90 68 C-90.85078125 68.82757813 -91.7015625 69.65515625 -92.578125 70.5078125 C-106.06970894 83.72325291 -116.44486079 98.1343075 -124.58984375 115.13671875 C-126 118 -126 118 -128 121 C-128.38499891 122.65549531 -128.72793135 124.3222433 -129 126 C-129.66 126 -130.32 126 -131 126 C-136.29432638 145.77207069 -136.29432638 145.77207069 -139 166 C-139.05285156 166.79277344 -139.10570312 167.58554687 -139.16015625 168.40234375 C-139.89513601 190.67542611 -133.84565403 212.35232923 -126.5 233.125 C-126.13245605 234.16833496 -125.76491211 235.21166992 -125.38623047 236.28662109 C-123.3473807 241.88422321 -121.08250046 246.99160599 -117.93554688 252.05810547 C-117 254 -117 254 -117 258 C-116.34 258 -115.68 258 -115 258 C-114.62875 258.94875 -114.2575 259.8975 -113.875 260.875 C-110.34358113 269.66729454 -110.34358113 269.66729454 -104 276 C-104 276.99 -104 277.98 -104 279 C-103.34 279 -102.68 279 -102 279 C-102.33 278.34 -102.66 277.68 -103 277 C-104.5596462 262.80914503 -104.4840283 248.50751803 -103.125 234.3125 C-103.04660889 233.47501221 -102.96821777 232.63752441 -102.88745117 231.7746582 C-101.38748544 217.57028476 -94.50940626 205.57135033 -84 196 C-76.40971751 190.45470271 -68.02979128 188.77670694 -58.8125 188.375 C-58.04784424 188.33632813 -57.28318848 188.29765625 -56.49536133 188.2578125 C-50.39090281 187.98248809 -44.29699433 187.96865798 -38.1875 188 C-14.33650385 188.07088921 7.78149308 183.26803606 27 168 C27.70602873 166.68708505 28.37918241 165.3552888 29 164 C28.09048584 163.98541748 27.18097168 163.97083496 26.24389648 163.95581055 C-0.75894732 163.47407287 -26.29324924 162.01991255 -52 153 C-48.40650799 151.7489047 -45.92339248 152.25989861 -42.265625 153.14453125 C-41.13253906 153.40943359 -39.99945312 153.67433594 -38.83203125 153.94726562 C-37.05892578 154.37555664 -37.05892578 154.37555664 -35.25 154.8125 C-20.12687685 158.46024537 -5.65472138 160.34340546 9.86669922 160.20581055 C12.02713607 160.18726709 14.18714706 160.18530396 16.34765625 160.18554688 C24.63711345 160.18534866 24.63711345 160.18534866 32.875 159.36328125 C33.90625 159.24339844 34.9375 159.12351562 36 159 C36.66 159.66 37.32 160.32 38 161 C36.12971875 162.75528013 34.2540838 164.50418455 32.375 166.25 C31.85292969 166.74113281 31.33085938 167.23226562 30.79296875 167.73828125 C10.65951887 186.38036447 -14.84664067 191.47888435 -41.40795898 190.95898438 C-61.68603432 190.0862176 -61.68603432 190.0862176 -80 197 C-80.80824219 197.58394531 -81.61648438 198.16789063 -82.44921875 198.76953125 C-94.22508747 208.25711457 -98.98066236 222.36671197 -100.6875 237 C-101.52205178 249.10100083 -101.36769405 261.24944885 -100.125 273.3125 C-100.04660889 274.08207031 -99.96821777 274.85164063 -99.88745117 275.64453125 C-99.35526686 280.28162718 -98.40008624 284.54678452 -97 289 C-97.99 289 -98.98 289 -100 289 C-101.40698242 287.40209961 -101.40698242 287.40209961 -102.85546875 285.15234375 C-103.39123535 284.32790771 -103.92700195 283.50347168 -104.47900391 282.65405273 C-105.04280762 281.75759033 -105.60661133 280.86112793 -106.1875 279.9375 C-106.77192871 279.01718994 -107.35635742 278.09687988 -107.95849609 277.14868164 C-109.65935218 274.4444005 -111.33654457 271.7274205 -113 269 C-113.39944824 268.34515625 -113.79889648 267.6903125 -114.21044922 267.015625 C-128.4581858 243.15520052 -137.29300335 215.44284088 -141 188 C-141.13148438 187.071875 -141.26296875 186.14375 -141.3984375 185.1875 C-145.58383276 150.79938762 -132.43542854 116.30301583 -112.3125 88.8203125 C-110.94930628 87.03224435 -110.94930628 87.03224435 -110 85 C-109.34 85 -108.68 85 -108 85 C-107.73227783 84.41154297 -107.46455566 83.82308594 -107.1887207 83.21679688 C-105.98526113 80.97251408 -104.71413505 79.38731424 -102.98046875 77.53125 C-102.3774292 76.88389893 -101.77438965 76.23654785 -101.15307617 75.56958008 C-100.50443604 74.88661865 -99.8557959 74.20365723 -99.1875 73.5 C-98.51243408 72.78803467 -97.83736816 72.07606934 -97.1418457 71.3425293 C-85.69254273 59.36895391 -73.64864075 49.40361504 -60 40 C-59.34741211 39.54882812 -58.69482422 39.09765625 -58.02246094 38.6328125 C-50.8469239 33.69706008 -43.5163199 29.06523835 -36.0625 24.5625 C-23.58844154 17.02689477 -11.71421832 8.66157244 0 0 Z " fill="#7DA2BC" transform="translate(678,387)"/>
<path d="M0 0 C3.07005234 0.5444508 6.1403202 1.08765031 9.2109375 1.62890625 C9.98277374 1.76526489 10.75460999 1.90162354 11.54983521 2.04211426 C26.31938752 4.61884203 40.76374561 5.59207011 55.7734375 5.56640625 C52.14492115 9.57505288 48.53120499 12.07233 43.5859375 14.31640625 C42.92972412 14.62006104 42.27351074 14.92371582 41.59741211 15.23657227 C36.38624874 17.53585866 31.50782328 18.66085496 25.7734375 18.56640625 C28.61825135 15.7215924 31.70135893 15.50947129 35.55859375 14.640625 C39.95602166 13.17125359 43.78740711 10.90914599 47.7734375 8.56640625 C47.02473389 8.52153076 46.27603027 8.47665527 45.50463867 8.43041992 C29.16587392 7.42574666 13.12460164 6.0886663 -2.92431641 2.8112793 C-12.67459327 0.87837933 -22.03390394 0.11897881 -31.96826172 0.23022461 C-34.25393086 0.25419325 -36.53845237 0.25070194 -38.82421875 0.24414062 C-47.90706425 0.26145742 -56.10554388 0.91905025 -64.7265625 4.06640625 C-69.1582598 5.60616704 -73.63109264 6.64296668 -78.2265625 7.56640625 C-78.2265625 8.22640625 -78.2265625 8.88640625 -78.2265625 9.56640625 C-79.85506305 10.64708401 -81.53203772 11.65501497 -83.2265625 12.62890625 C-91.78054918 17.93524033 -97.21853967 24.38135394 -101.2265625 33.56640625 C-99.5765625 33.89640625 -97.9265625 34.22640625 -96.2265625 34.56640625 C-96.2265625 33.90640625 -96.2265625 33.24640625 -96.2265625 32.56640625 C-97.2165625 32.07140625 -97.2165625 32.07140625 -98.2265625 31.56640625 C-97.5665625 29.58640625 -96.9065625 27.60640625 -96.2265625 25.56640625 C-93.7890625 26.25390625 -93.7890625 26.25390625 -91.2265625 27.56640625 C-90.4140625 30.19140625 -90.4140625 30.19140625 -90.2265625 32.56640625 C-91.2165625 33.06140625 -91.2165625 33.06140625 -92.2265625 33.56640625 C-91.5665625 34.22640625 -90.9065625 34.88640625 -90.2265625 35.56640625 C-90.8865625 35.56640625 -91.5465625 35.56640625 -92.2265625 35.56640625 C-91.5665625 36.22640625 -90.9065625 36.88640625 -90.2265625 37.56640625 C-89.81664062 37.13328125 -89.40671875 36.70015625 -88.984375 36.25390625 C-88.44554687 35.69703125 -87.90671875 35.14015625 -87.3515625 34.56640625 C-86.81789063 34.00953125 -86.28421875 33.45265625 -85.734375 32.87890625 C-84.2265625 31.56640625 -84.2265625 31.56640625 -82.2265625 31.56640625 C-82.8865625 32.88640625 -83.5465625 34.20640625 -84.2265625 35.56640625 C-84.8865625 35.56640625 -85.5465625 35.56640625 -86.2265625 35.56640625 C-86.50371094 36.12328125 -86.78085937 36.68015625 -87.06640625 37.25390625 C-87.86283871 38.84140798 -88.66800972 40.42454665 -89.48046875 42.00390625 C-89.91230469 42.84953125 -90.34414063 43.69515625 -90.7890625 44.56640625 C-91.22347656 45.41203125 -91.65789062 46.25765625 -92.10546875 47.12890625 C-95.16819128 53.78792666 -94.95447171 60.04473012 -92.6015625 66.87890625 C-88.93820583 76.15257839 -84.24269777 83.9894689 -77.765625 91.5703125 C-76.2265625 93.56640625 -76.2265625 93.56640625 -76.2265625 95.56640625 C-79.67454515 94.15317731 -81.14072609 92.64456796 -83.1015625 89.50390625 C-83.61074219 88.70082031 -84.11992187 87.89773438 -84.64453125 87.0703125 C-85.16660156 86.24402344 -85.68867188 85.41773438 -86.2265625 84.56640625 C-87.28696792 83.02329812 -88.34940939 81.4815868 -89.4140625 79.94140625 C-91.25884657 77.21016749 -92.68820214 74.64773909 -93.8515625 71.56640625 C-94.88628634 68.42248311 -94.88628634 68.42248311 -97.4140625 67.62890625 C-98.0121875 67.60828125 -98.6103125 67.58765625 -99.2265625 67.56640625 C-99.8865625 68.55640625 -100.5465625 69.54640625 -101.2265625 70.56640625 C-101.2265625 69.24640625 -101.2265625 67.92640625 -101.2265625 66.56640625 C-101.8865625 66.56640625 -102.5465625 66.56640625 -103.2265625 66.56640625 C-104.8515625 65.06640625 -104.8515625 65.06640625 -106.2265625 63.56640625 C-107.2165625 63.89640625 -108.2065625 64.22640625 -109.2265625 64.56640625 C-110.5465625 63.24640625 -111.8665625 61.92640625 -113.2265625 60.56640625 C-112.2365625 60.07140625 -112.2365625 60.07140625 -111.2265625 59.56640625 C-111.2265625 58.90640625 -111.2265625 58.24640625 -111.2265625 57.56640625 C-111.8865625 57.56640625 -112.5465625 57.56640625 -113.2265625 57.56640625 C-113.5565625 56.57640625 -113.8865625 55.58640625 -114.2265625 54.56640625 C-113.2365625 54.07140625 -113.2365625 54.07140625 -112.2265625 53.56640625 C-112.5565625 52.57640625 -112.8865625 51.58640625 -113.2265625 50.56640625 C-111.9065625 50.89640625 -110.5865625 51.22640625 -109.2265625 51.56640625 C-109.2265625 52.22640625 -109.2265625 52.88640625 -109.2265625 53.56640625 C-108.2365625 53.89640625 -107.2465625 54.22640625 -106.2265625 54.56640625 C-106.5565625 56.21640625 -106.8865625 57.86640625 -107.2265625 59.56640625 C-105.5765625 59.56640625 -103.9265625 59.56640625 -102.2265625 59.56640625 C-101.8965625 60.22640625 -101.5665625 60.88640625 -101.2265625 61.56640625 C-97.88311089 58.94979195 -97.82175543 56.65835765 -97.2265625 52.56640625 C-96.29854367 49.21048952 -95.27029517 45.88797059 -94.2265625 42.56640625 C-94.8865625 42.56640625 -95.5465625 42.56640625 -96.2265625 42.56640625 C-96.2265625 43.22640625 -96.2265625 43.88640625 -96.2265625 44.56640625 C-96.8865625 45.22640625 -97.5465625 45.88640625 -98.2265625 46.56640625 C-98.62420513 48.55461938 -98.96431599 50.55584964 -99.2265625 52.56640625 C-100.2165625 52.23640625 -101.2065625 51.90640625 -102.2265625 51.56640625 C-102.2265625 50.57640625 -102.2265625 49.58640625 -102.2265625 48.56640625 C-103.70342845 46.63645214 -103.70342845 46.63645214 -106.2265625 45.56640625 C-108.96337385 45.73689614 -111.26664214 46.04601902 -113.9140625 46.62890625 C-114.63013672 46.77593994 -115.34621094 46.92297363 -116.08398438 47.07446289 C-121.49872796 48.25203462 -126.32741974 49.9600623 -131.2265625 52.56640625 C-132.64316943 53.25402932 -134.05983522 53.94153116 -135.4765625 54.62890625 C-138.47690529 56.1470797 -141.37349551 57.78323938 -144.2265625 59.56640625 C-142.74421431 55.30940631 -139.73224155 53.65791346 -135.9765625 51.56640625 C-135.35974609 51.21827881 -134.74292969 50.87015137 -134.10742188 50.51147461 C-126.9541204 46.64220528 -119.11101183 43.92280746 -110.9609375 43.328125 C-110.05859375 43.07675781 -109.15625 42.82539063 -108.2265625 42.56640625 C-106.75936941 40.03514101 -106.75936941 40.03514101 -105.9765625 36.81640625 C-101.07323125 22.62009482 -90.74219615 12.27733073 -77.36328125 5.56640625 C-52.64895874 -6.12562178 -26.24869116 -4.67426227 0 0 Z " fill="#7DA2BC" transform="translate(489.2265625,440.43359375)"/>
<path d="M0 0 C0 0.66 0 1.32 0 2 C-29.15591501 11.78152649 -29.15591501 11.78152649 -40.25 15.25 C-41.74741531 15.72129228 -43.24481159 16.19264504 -44.7421875 16.6640625 C-46.8489655 17.32679385 -48.95637985 17.98658634 -51.06738281 18.63574219 C-87.08369933 29.75567348 -120.75693379 45.55949133 -148.75 71.0625 C-149.26900879 71.53284668 -149.78801758 72.00319336 -150.32275391 72.48779297 C-169.44726974 90.19027617 -182.24489658 112.59437215 -193 136 C-193.66 135.67 -194.32 135.34 -195 135 C-196.10627056 105.31110195 -190.56371893 81.77374565 -176 56 C-175.46761719 55.03320312 -174.93523437 54.06640625 -174.38671875 53.0703125 C-173.92910156 52.38710938 -173.47148438 51.70390625 -173 51 C-172.34 51 -171.68 51 -171 51 C-170.76539063 50.29617188 -170.53078125 49.59234375 -170.2890625 48.8671875 C-166.38870367 40.19184391 -158.3039143 32.88894935 -151 27 C-150.15695312 26.28199219 -149.31390625 25.56398438 -148.4453125 24.82421875 C-136.12831617 14.44374734 -136.12831617 14.44374734 -129 11 C-128.01 11.33 -127.02 11.66 -126 12 C-127.60416667 13.16666667 -129.20833333 14.33333333 -130.8125 15.5 C-131.81539062 16.23089844 -132.81828125 16.96179688 -133.8515625 17.71484375 C-135.86129371 19.17351963 -137.87640902 20.6248253 -139.8984375 22.06640625 C-156.49644266 33.94537073 -172.31870929 49.95118923 -179.90625 69.3125 C-180.82178925 71.56211074 -181.83432569 73.62035292 -182.9609375 75.765625 C-185.08734421 79.97114114 -186.42380914 84.20435552 -187.625 88.75 C-187.83664795 89.53930908 -188.0482959 90.32861816 -188.26635742 91.1418457 C-191.27691019 102.61189966 -192.29062587 113.18121476 -192 125 C-191.34 125 -190.68 125 -190 125 C-189.87753906 124.43152344 -189.75507813 123.86304688 -189.62890625 123.27734375 C-187.19253002 114.45493791 -181.27192843 105.42492348 -176 98 C-175.34 98 -174.68 98 -174 98 C-173.76667969 97.47019531 -173.53335938 96.94039063 -173.29296875 96.39453125 C-171.59914263 93.25762668 -169.48835946 90.49823852 -167.3125 87.6875 C-166.86914307 87.11153076 -166.42578613 86.53556152 -165.96899414 85.94213867 C-162.97800415 82.11170522 -159.8427707 78.583281 -156.27734375 75.26953125 C-154.86990248 74.00575191 -154.86990248 74.00575191 -154 72 C-153.34 72 -152.68 72 -152 72 C-152 71.34 -152 70.68 -152 70 C-150.75 68.73828125 -150.75 68.73828125 -149 67.3125 C-146.37383276 65.16338341 -143.82920299 62.9514321 -141.3125 60.67578125 C-137.1194693 56.99862921 -132.66980334 53.91116907 -128 50.875 C-127.24460937 50.37613281 -126.48921875 49.87726563 -125.7109375 49.36328125 C-121.40053781 46.52671238 -117.05095234 43.75880302 -112.66552734 41.03979492 C-111.30660415 40.19141411 -109.96334292 39.31798876 -108.625 38.4375 C-105.46420744 36.70658979 -102.20927935 35.44836096 -98.85229492 34.1472168 C-96.15197933 33.06112735 -93.51911027 31.88805084 -90.87890625 30.6640625 C-67.48002856 19.97292539 -43.12259084 12.18391013 -18.47729492 4.93847656 C-13.92233743 3.59863503 -9.4291667 2.1459409 -4.9519043 0.56396484 C-3 0 -3 0 0 0 Z " fill="#7DA2BC" transform="translate(686,277)"/>
<path d="M0 0 C-1.93596417 6.45950973 -5.27281993 11.43916708 -9 17 C-9.64195312 17.96808594 -10.28390625 18.93617188 -10.9453125 19.93359375 C-14.4964251 25.17111338 -14.4964251 25.17111338 -16 27 C-16.66 27 -17.32 27 -18 27 C-18.26554688 27.59095459 -18.53109375 28.18190918 -18.8046875 28.79077148 C-26.15261182 42.37152459 -45.35303699 52.81760521 -59 59 C-59.67579102 59.30631348 -60.35158203 59.61262695 -61.04785156 59.92822266 C-79.39411841 68.03461422 -98.6459563 71.12658223 -118.375 73.875 C-119.18844879 73.99063293 -120.00189758 74.10626587 -120.83999634 74.22540283 C-123.19134712 74.5557076 -125.54424596 74.87034977 -127.8984375 75.1796875 C-128.94578819 75.32763763 -128.94578819 75.32763763 -130.01429749 75.47857666 C-134.9246389 76.09610154 -139.15316442 75.76479069 -144 75 C-144 74.67 -144 74.34 -144 74 C-142.54207031 73.83564453 -142.54207031 73.83564453 -141.0546875 73.66796875 C-125.00033257 71.83420377 -108.98114318 69.79443656 -93.0625 67 C-91.70475464 66.76917725 -91.70475464 66.76917725 -90.31958008 66.53369141 C-85.163716 65.59820042 -80.7916397 64.19455996 -76 62 C-73.94216963 61.25261745 -71.8706074 60.5556722 -69.79589844 59.85668945 C-62.78474458 57.49361837 -56.28090128 54.97742723 -50 51 C-48.6696875 50.2265625 -48.6696875 50.2265625 -47.3125 49.4375 C-45.47221167 48.29353699 -43.66683973 47.09345102 -41.875 45.875 C-39 44 -39 44 -36 43 C-35.67 42.01 -35.34 41.02 -35 40 C-33.328125 38.60546875 -33.328125 38.60546875 -31.25 37.1875 C-27.47590534 34.47911193 -24.80833142 31.68593499 -22 28 C-25.12197478 29.3089572 -25.12197478 29.3089572 -27 32 C-28.32 32 -29.64 32 -31 32 C-30.67 30.68 -30.34 29.36 -30 28 C-31.32 27.67 -32.64 27.34 -34 27 C-34 25.02 -34 23.04 -34 21 C-32 21 -30 21 -28 21 C-28 20.34 -28 19.68 -28 19 C-27.34 19 -26.68 19 -26 19 C-25.67 19.33 -25.34 19.66 -25 20 C-25 18.35 -25 16.7 -25 15 C-32.92 15.495 -32.92 15.495 -41 16 C-41 16.66 -41 17.32 -41 18 C-50.74865079 19.94048973 -60.00465638 21.51998897 -70 21 C-67.62238363 18.62238363 -66.69631717 18.61510892 -63.43359375 18.17578125 C-62.48516602 18.03793213 -61.53673828 17.90008301 -60.55957031 17.75805664 C-59.52928711 17.61102295 -58.49900391 17.46398926 -57.4375 17.3125 C-39.7881952 14.58105997 -19.77692102 10.84547782 -4.328125 1.359375 C-2 0 -2 0 0 0 Z " fill="#7DA2BC" transform="translate(777,462)"/>
<path d="M0 0 C0.99 0.495 0.99 0.495 2 1 C5.78106225 24.9670559 -1.44108853 50.78471652 -15.3828125 70.42578125 C-23.64924461 81.6497627 -32.91713949 91.53086157 -44 100 C-44.70769531 100.55042969 -45.41539062 101.10085937 -46.14453125 101.66796875 C-50.57790616 105 -50.57790616 105 -54 105 C-54 104.34 -54 103.68 -54 103 C-52.989375 102.46375 -51.97875 101.9275 -50.9375 101.375 C-46.84307461 99.03180475 -43.50033398 96.13744838 -40 93 C-39.37222656 92.47535156 -38.74445313 91.95070313 -38.09765625 91.41015625 C-32.53151837 86.72578279 -27.72664016 81.52153624 -23 76 C-22.37996094 75.29101562 -21.75992188 74.58203125 -21.12109375 73.8515625 C-15.85610415 67.51472938 -12.47443939 60.40055589 -9 53 C-8.608125 52.25234375 -8.21625 51.5046875 -7.8125 50.734375 C-2.28709339 39.76989626 -0.47525622 26.11903365 0 14 C-0.49628906 15.01578125 -0.99257813 16.0315625 -1.50390625 17.078125 C-10.85331318 36.08256584 -10.85331318 36.08256584 -15 42 C-15.66 42 -16.32 42 -17 42 C-17.20753906 42.68578125 -17.41507813 43.3715625 -17.62890625 44.078125 C-19.4488242 47.95646866 -22.01481289 50.65702553 -24.9375 53.75 C-25.47568359 54.33910156 -26.01386719 54.92820313 -26.56835938 55.53515625 C-30.60888428 59.86962809 -30.60888428 59.86962809 -34 61 C-34 61.66 -34 62.32 -34 63 C-47.97135785 75.93051171 -67.40550039 84.33325449 -85 91 C-86.79282888 91.74721754 -88.58463855 92.49688956 -90.375 93.25 C-94.00786472 94.7043331 -97.51811033 95.61838131 -101.34765625 96.37890625 C-104.81353106 97.19050286 -108.17711508 98.2840234 -111.5625 99.375 C-117.48695055 101.27482672 -123.42139594 102.88398914 -129.4753418 104.33276367 C-135.84272636 105.89340474 -142.10522926 107.77587217 -148.375 109.6875 C-149.90169312 110.1522876 -149.90169312 110.1522876 -151.45922852 110.62646484 C-156.33170002 112.05172756 -156.33170002 112.05172756 -161 114 C-163.3329866 114.04022391 -165.66706666 114.04320247 -168 114 C-165.74090781 111.74090781 -164.40494936 111.33472747 -161.3828125 110.40625 C-160.40183594 110.10340088 -159.42085937 109.80055176 -158.41015625 109.48852539 C-157.32605469 109.16231201 -156.24195313 108.83609863 -155.125 108.5 C-153.98675781 108.15251709 -152.84851563 107.80503418 -151.67578125 107.44702148 C-141.06727945 104.24484126 -130.38009468 101.34471077 -119.68902588 98.43313599 C-106.32758218 94.78143719 -93.27687207 90.55760711 -80.26953125 85.78100586 C-78 85 -78 85 -75.76171875 84.51782227 C-75.18035156 84.34694092 -74.59898437 84.17605957 -74 84 C-73.67 83.34 -73.34 82.68 -73 82 C-71.21704102 81.30224609 -71.21704102 81.30224609 -68.94140625 80.6484375 C-64.22957784 79.15755283 -60.17229496 77.1511693 -55.9375 74.625 C-55.21578613 74.19727295 -54.49407227 73.7695459 -53.75048828 73.32885742 C-28.44255919 57.87512415 -8.54897217 34.35507977 -1.1875 5.25 C-0.78192803 3.50223131 -0.38230434 1.75300525 0 0 Z " fill="#7DA2BC" transform="translate(786,150)"/>
<path d="M0 0 C9.26305197 7.15875063 14.32270376 18.38684188 16.12890625 29.73046875 C16.21117759 42.13698721 13.03203598 54.32300078 4.41796875 63.56640625 C-5.41411617 72.75639583 -16.59412815 77.29439461 -29.98046875 76.9765625 C-39.24916932 76.18747042 -47.44164889 73.41355007 -54.87109375 67.73046875 C-55.53109375 66.74046875 -56.19109375 65.75046875 -56.87109375 64.73046875 C-55.67484375 64.89546875 -54.47859375 65.06046875 -53.24609375 65.23046875 C-42.56447639 66.37613118 -31.6468654 67.41631084 -22.46484375 61.06640625 C-15.54683891 55.42868152 -12.26678846 49.57556074 -10.93359375 40.79296875 C-10.44450015 33.50206182 -12.5163325 27.4797322 -16.87109375 21.73046875 C-16.87109375 21.07046875 -16.87109375 20.41046875 -16.87109375 19.73046875 C-17.53109375 19.73046875 -18.19109375 19.73046875 -18.87109375 19.73046875 C-19.40734375 19.15296875 -19.94359375 18.57546875 -20.49609375 17.98046875 C-27.00446672 11.81464173 -35.10388753 10.21808862 -43.87109375 9.73046875 C-52.37477607 10.11035834 -58.76000936 12.17470216 -65.87109375 16.73046875 C-67.19649778 17.41276369 -68.52774328 18.08422442 -69.87109375 18.73046875 C-65.65051577 7.44892382 -58.19572502 0.45859751 -47.87109375 -5.26953125 C-31.13449308 -12.7596143 -14.78416343 -10.03100859 0 0 Z M-54.87109375 1.73046875 C-55.45761719 2.15585937 -56.04414062 2.58125 -56.6484375 3.01953125 C-59.74590594 5.39547175 -61.16941363 6.91558716 -61.87109375 10.73046875 C-61.26265625 10.58609375 -60.65421875 10.44171875 -60.02734375 10.29296875 C-46.79547142 7.4909252 -34.70397065 7.19538129 -22.74609375 13.98046875 C-15.5312028 18.74795551 -10.78828117 25.23330473 -8.87109375 33.73046875 C-8.35560745 42.12258579 -9.75049117 49.93003049 -14.87109375 56.73046875 C-22.97170203 64.52959808 -29.0559379 66.97591918 -39.93554688 67.94140625 C-41.9215123 68.14051774 -43.89813932 68.42855011 -45.87109375 68.73046875 C-46.36609375 69.72046875 -46.36609375 69.72046875 -46.87109375 70.73046875 C-38.42071779 75.65985473 -26.36356037 76.6379801 -16.90332031 74.22949219 C-8.75951465 71.52047303 -0.11739239 67.32006338 4.94140625 60.16796875 C5.33328125 59.36359375 5.72515625 58.55921875 6.12890625 57.73046875 C6.60328125 56.98796875 7.07765625 56.24546875 7.56640625 55.48046875 C8.33984375 54.11921875 8.33984375 54.11921875 9.12890625 52.73046875 C9.64517578 51.82748047 9.64517578 51.82748047 10.171875 50.90625 C15.04367574 41.39128899 15.20700308 30.67631434 12.19140625 20.5390625 C7.72567051 8.73441544 -0.26113894 0.60597402 -11.62109375 -4.83203125 C-25.95384952 -10.40071017 -42.65532933 -7.62266874 -54.87109375 1.73046875 Z " fill="#7DA2BC" transform="translate(658.87109375,730.26953125)"/>
<path d="M0 0 C3.46739222 2.0948828 5.80415137 4.08631356 7 8 C7.67397738 13.87323149 7.03103517 16.84770023 3.484375 21.5546875 C0.42260254 24.535887 -2.60737956 25.34106631 -6.8125 25.5 C-11.79546229 25.42628754 -14.21269335 23.9269293 -17.72265625 20.5078125 C-20.44676018 17.29220358 -20.33617941 14.38651023 -20.27734375 10.3203125 C-19.84203773 6.67845649 -18.43146136 4.68740466 -16 2 C-10.8970027 -1.76649801 -5.93773992 -1.46708766 0 0 Z " fill="#7DA2BC" transform="translate(437,483)"/>
<path d="M0 0 C0.99 0.33 1.98 0.66 3 1 C2.608125 2.155 2.21625 3.31 1.8125 4.5 C0.56390877 8.21076646 -0.57838434 11.94426423 -1.69458008 15.69677734 C-4.14170693 23.82808386 -7.23257125 31.37399504 -11 39 C-11.56460938 40.25490234 -11.56460938 40.25490234 -12.140625 41.53515625 C-18.05695575 54.34692882 -27.31214771 64.91857871 -37 75 C-37.556875 75.63164062 -38.11375 76.26328125 -38.6875 76.9140625 C-50.45695826 89.84820673 -68.69337587 99.06224772 -84.625 105.4375 C-85.77637451 105.90196533 -86.92774902 106.36643066 -88.11401367 106.8449707 C-96.41194438 110.12591511 -104.79287494 113.03760951 -113.3125 115.6875 C-114.93889404 116.19591431 -114.93889404 116.19591431 -116.59814453 116.71459961 C-121.60067919 118.21345519 -125.73880826 119.16806919 -131 119 C-128.56073667 116.56073667 -126.76867553 116.16800483 -123.46875 115.1953125 C-122.34726562 114.85886719 -121.22578125 114.52242188 -120.0703125 114.17578125 C-118.89210938 113.82902344 -117.71390625 113.48226562 -116.5 113.125 C-109.241836 110.98017176 -102.12203752 108.77290301 -95.12817383 105.86962891 C-92.46007815 104.77937345 -89.73934567 103.89352048 -87 103 C-76.19227303 98.87422871 -66.23468457 93.77129653 -56.77734375 87.1015625 C-55 86 -55 86 -53 86 C-53 85.34 -53 84.68 -53 84 C-51.2421875 82.73828125 -51.2421875 82.73828125 -48.875 81.3125 C-45.01636814 78.83238093 -42.34628366 76.34385454 -39.51953125 72.76953125 C-37.86771973 70.84595639 -36.09046667 69.34908842 -34.125 67.75 C-29.1466121 63.50177566 -25.63251995 58.40501463 -22 53 C-21.37867188 52.07574219 -20.75734375 51.15148437 -20.1171875 50.19921875 C-12.91937063 39.30136603 -12.91937063 39.30136603 -9 27 C-8.34 27 -7.68 27 -7 27 C-6.67 23.37 -6.34 19.74 -6 16 C-5.34 16 -4.68 16 -4 16 C-4 13.69 -4 11.38 -4 9 C-4.61875 9.66 -5.2375 10.32 -5.875 11 C-8 13 -8 13 -10 13 C-10 13.66 -10 14.32 -10 15 C-11.65 15.66 -13.3 16.32 -15 17 C-15 17.66 -15 18.32 -15 19 C-19.38461538 22 -19.38461538 22 -22 22 C-22.495 23.485 -22.495 23.485 -23 25 C-25.265625 26.359375 -25.265625 26.359375 -28.25 27.75 C-34.08492863 30.53453429 -39.73032028 33.5484508 -45.3828125 36.6796875 C-48 38 -48 38 -50 38 C-50 37.34 -50 36.68 -50 36 C-49.47269287 35.71914551 -48.94538574 35.43829102 -48.40209961 35.14892578 C-21.36985178 21.19327523 -21.36985178 21.19327523 0 0 Z " fill="#7DA2BC" transform="translate(805,363)"/>
<path d="M0 0 C5.83773825 21.93402626 7.29969897 48.26680995 0.57666016 70.12353516 C0.0192689 71.93729859 -0.47022475 73.77149977 -0.95703125 75.60546875 C-5.97001813 92.82235626 -15.23308879 109.50494506 -27 123 C-27.76054688 123.88558594 -28.52109375 124.77117187 -29.3046875 125.68359375 C-31.49152195 128.16932079 -33.72437209 130.59548697 -36 133 C-36.71800781 133.75925781 -37.43601562 134.51851562 -38.17578125 135.30078125 C-47.80780198 145.20653614 -58.73356856 153.15043763 -70.19384766 160.77978516 C-71.38001873 161.5811481 -72.55240926 162.40337401 -73.70849609 163.24755859 C-75.29296875 164.38671875 -75.29296875 164.38671875 -78 166 C-78.99 165.67 -79.98 165.34 -81 165 C-74.2397433 159.96845759 -67.37220077 155.17754759 -60.30444336 150.59033203 C-55.6915859 147.56613503 -51.35071771 144.35071771 -47.4375 140.4375 C-46 139 -46 139 -43.625 137.125 C-38.42882062 132.91856907 -34.49335931 128.15172785 -30.55078125 122.79296875 C-30.03902344 122.20128906 -29.52726563 121.60960937 -29 121 C-28.34 121 -27.68 121 -27 121 C-26.773125 120.484375 -26.54625 119.96875 -26.3125 119.4375 C-25 117 -25 117 -22.6875 113.875 C-20.0469691 110.25591941 -18.12733717 106.42910193 -16.18359375 102.40234375 C-15.20374373 100.41353926 -14.11495593 98.47883051 -13 96.5625 C-8.35215522 88.50373688 -5.29930191 80.23611819 -2.89453125 71.26171875 C-2 68 -2 68 -0.94921875 65.26953125 C1.677933 56.22045299 1.18639328 46.45067784 1.18530273 37.10253906 C1.18749681 35.00305101 1.20575106 32.90408381 1.22460938 30.8046875 C1.25596785 23.00021903 0.78015069 15.61682607 -1 8 C-1.29132813 8.85980469 -1.58265625 9.71960938 -1.8828125 10.60546875 C-4.79465358 19.00219286 -8.1278591 26.98959167 -12 35 C-12.66 35 -13.32 35 -14 35 C-14.11931885 35.58950439 -14.2386377 36.17900879 -14.36157227 36.78637695 C-15.02091038 39.07250263 -15.83584793 40.49480018 -17.21484375 42.41796875 C-17.65376953 43.03220703 -18.09269531 43.64644531 -18.54492188 44.27929688 C-19.23424805 45.22385742 -19.23424805 45.22385742 -19.9375 46.1875 C-20.39318359 46.82880859 -20.84886719 47.47011719 -21.31835938 48.13085938 C-24.73428468 52.86714234 -24.73428468 52.86714234 -27 54 C-26.38398776 50.60813014 -25.13913386 48.6014981 -23.0625 45.875 C-14.23143933 33.51878343 -7.92943269 20.3053469 -3 6 C-1.16993464 1.16993464 -1.16993464 1.16993464 0 0 Z " fill="#7DA2BC" transform="translate(790,250)"/>
<path d="M0 0 C1.04330452 2.71259175 1.05729472 3.83957479 0.0625 6.625 C-2.18114703 13.75187879 -1.65245608 19.34036627 1.5 26.125 C11.37012847 44.03321452 31.01462389 50.63861056 49.17919922 57.26416016 C68.54150739 64.35849481 82.91541684 74.15332516 97 89 C96.67 89.99 96.34 90.98 96 92 C94.62437146 90.71034824 93.29233607 89.37310707 92 88 C92 87.34 92 86.68 92 86 C91.34 86 90.68 86 90 86 C90 85.34 90 84.68 90 84 C89.41089844 83.73445312 88.82179688 83.46890625 88.21484375 83.1953125 C85.94187646 81.96863174 84.42206649 80.6558766 82.5625 78.875 C70.11891254 67.73391889 54.91803444 61.96420762 39.3359375 56.78125 C32.80198088 54.56055886 26.97664819 52.1374813 21.16796875 48.39453125 C19.27358352 47.17598075 17.37825866 46.146887 15.375 45.125 C6.46029909 39.51204017 -1.52518728 30.44061618 -4 20 C-4.58959803 14.5830681 -4.08658901 10.08606072 -2 5 C-2.78375 5.495 -3.5675 5.99 -4.375 6.5 C-7 8 -7 8 -9 8 C-9 8.66 -9 9.32 -9 10 C-9.7321875 10.42925781 -10.464375 10.85851562 -11.21875 11.30078125 C-22.73644682 18.33757636 -30.4926587 34.46987086 -33.6875 47.1875 C-35.18698696 54.08188027 -35.69402846 60.96265465 -36 68 C-36.66 68 -37.32 68 -38 68 C-38.35261845 58.44012191 -37.99440224 50.17764842 -35 41 C-34.73316406 40.14921875 -34.46632813 39.2984375 -34.19140625 38.421875 C-28.79983251 23.18169322 -14.44882954 7.22441477 0 0 Z " fill="#7DA2BC" transform="translate(431,556)"/>
<path d="M0 0 C3.27921585 1.0306107 4.04339537 2.07400543 5.81640625 5.09765625 C6.41881079 6.41010977 6.99963082 7.73261137 7.5625 9.0625 C7.86478516 9.77349854 8.16707031 10.48449707 8.47851562 11.21704102 C15.46653271 28.51086747 16.12298614 47.62354336 9 65 C0.40223406 83.63677588 -13.84486673 94.80226199 -32.76953125 102.0625 C-43.10786565 105.28644836 -54.2661435 105.05969887 -65 105 C-64.67 104.01 -64.34 103.02 -64 102 C-62.38954041 101.31469805 -60.77574267 100.63646751 -59.1484375 99.9921875 C-42.25389502 92.18998061 -30.15667174 76.22748379 -22 60 C-21 63 -21 63 -22.203125 65.85546875 C-25.06957484 70.87175597 -28.53172824 75.38834195 -32 80 C-32.66257812 80.89460937 -33.32515625 81.78921875 -34.0078125 82.7109375 C-34.62398438 83.52820313 -35.24015625 84.34546875 -35.875 85.1875 C-36.42929687 85.92355469 -36.98359375 86.65960937 -37.5546875 87.41796875 C-38.03164063 87.94003906 -38.50859375 88.46210937 -39 89 C-39.66 89 -40.32 89 -41 89 C-41 89.66 -41 90.32 -41 91 C-43.1335282 92.78770907 -45.26844058 94.46872824 -47.5 96.125 C-48.12003906 96.59292969 -48.74007813 97.06085938 -49.37890625 97.54296875 C-50.91502517 98.70096609 -52.45698059 99.85121357 -54 101 C-38.98618057 102.17499456 -25.7005179 98.4869064 -14 89 C-12.82202708 88.21468472 -11.63583358 87.44138122 -10.4375 86.6875 C-7.91455793 85.2298097 -7.91455793 85.2298097 -7 83 C-6.34 83 -5.68 83 -5 83 C-5 82.34 -5 81.68 -5 81 C-4.34 80.67 -3.68 80.34 -3 80 C-1.95355934 78.36209288 -0.9601817 76.68991979 0 75 C0.680625 73.9171875 0.680625 73.9171875 1.375 72.8125 C2.80999334 70.32885767 4.21376852 67.84384353 5.5625 65.3125 C5.97628906 64.54550781 6.39007812 63.77851562 6.81640625 62.98828125 C9.83029663 55.37895406 10.38876618 47.48907612 10.375 39.375 C10.37411377 38.42439697 10.37322754 37.47379395 10.37231445 36.49438477 C10.20021527 26.10116685 8.67523431 15.90528788 3 7 C1.9162915 4.69433212 0.97067337 2.35734961 0 0 Z " fill="#7DA2BC" transform="translate(521,693)"/>
<path d="M0 0 C0.99 0 1.98 0 3 0 C3 0.66 3 1.32 3 2 C3.65742188 2.11214844 4.31484375 2.22429688 4.9921875 2.33984375 C8 3 8 3 11.6953125 4.19140625 C25.77420186 8.65001684 39.33866147 8.53436526 54 8 C53.01 8.66 52.02 9.32 51 10 C51.66 10.99 52.32 11.98 53 13 C52.01 13 51.02 13 50 13 C50 13.66 50 14.32 50 15 C48.68 14.67 47.36 14.34 46 14 C45.67 14.66 45.34 15.32 45 16 C43.68 16 42.36 16 41 16 C40 13 40 13 40 11 C39.01 11.33 38.02 11.66 37 12 C37 12.66 37 13.32 37 14 C37.99 14.33 38.98 14.66 40 15 C41.1875 17.0625 41.1875 17.0625 42 19 C41.360625 19.103125 40.72125 19.20625 40.0625 19.3125 C39.381875 19.539375 38.70125 19.76625 38 20 C37.505 21.485 37.505 21.485 37 23 C38.32 23 39.64 23 41 23 C41.33 22.34 41.66 21.68 42 21 C42.495 22.98 42.495 22.98 43 25 C31.94318928 23.36104797 22.21832461 19.26346661 13 13 C11.989375 12.38125 10.97875 11.7625 9.9375 11.125 C6.25825806 8.46342072 2.91162924 5.49740081 0 2 C0 1.34 0 0.68 0 0 Z M35 14 C35 15.32 35 16.64 35 18 C35.66 17.67 36.32 17.34 37 17 C37 16.01 37 15.02 37 14 C36.34 14 35.68 14 35 14 Z " fill="#7DA2BC" transform="translate(397,736)"/>
<path d="M0 0 C0.66 0 1.32 0 2 0 C0.75297849 6.35450323 -0.57364259 12.68327435 -2 19 C-3.32 19.33 -4.64 19.66 -6 20 C-6 19.01 -6 18.02 -6 17 C-7.65 17 -9.3 17 -11 17 C-10.67 15.35 -10.34 13.7 -10 12 C-11.32 11.67 -12.64 11.34 -14 11 C-13.67 10.34 -13.34 9.68 -13 9 C-15.31 8.34 -17.62 7.68 -20 7 C-20 7.99 -20 8.98 -20 10 C-20.66 10 -21.32 10 -22 10 C-22.495 9.01 -22.495 9.01 -23 8 C-23.99 7.67 -24.98 7.34 -26 7 C-26 7.66 -26 8.32 -26 9 C-27.98 9 -29.96 9 -32 9 C-31.7525 10.1446875 -31.7525 10.1446875 -31.5 11.3125 C-31 14 -31 14 -31 17 C-32.3303125 16.690625 -32.3303125 16.690625 -33.6875 16.375 C-37.2252711 15.97449761 -38.86632967 16.43316484 -42 18 C-42 18.66 -42 19.32 -42 20 C-41.34 20.33 -40.68 20.66 -40 21 C-38.3125 23.4375 -38.3125 23.4375 -37 26 C-37.33 26.66 -37.66 27.32 -38 28 C-43.61 27.01 -49.22 26.02 -55 25 C-55 24.34 -55 23.68 -55 23 C-54.34 23 -53.68 23 -53 23 C-52.34 21.68 -51.68 20.36 -51 19 C-50.34 19 -49.68 19 -49 19 C-49.33 18.01 -49.66 17.02 -50 16 C-49.236875 15.896875 -48.47375 15.79375 -47.6875 15.6875 C-45.00995101 15.25226783 -45.00995101 15.25226783 -43.65625 13.61328125 C-40.23540472 10.28118431 -35.34020369 8.84893878 -31 7 C-30.32582031 6.68546875 -29.65164063 6.3709375 -28.95703125 6.046875 C-23.64082746 3.73449638 -18.41677116 3.52669741 -12.66015625 3.30859375 C-11.34337891 3.15583984 -11.34337891 3.15583984 -10 3 C-9.67 2.34 -9.34 1.68 -9 1 C-8.505 2.485 -8.505 2.485 -8 4 C-5.99983534 5.20882096 -5.99983534 5.20882096 -4 6 C-4.66 6 -5.32 6 -6 6 C-6 6.99 -6 7.98 -6 9 C-5.34 9 -4.68 9 -4 9 C-3.67 6.69 -3.34 4.38 -3 2 C-2.01 2 -1.02 2 0 2 C0 1.34 0 0.68 0 0 Z M-31 14 C-29.515 14.99 -29.515 14.99 -28 16 C-28.99 16 -29.98 16 -31 16 C-31 15.34 -31 14.68 -31 14 Z " fill="#7DA2BC" transform="translate(393,483)"/>
<path d="M0 0 C2.71877206 3.12291385 3.42062295 5.35364772 3.875 9.4375 C6.63741981 27.46935846 17.20641847 44.27544858 30 57 C30.71671875 57.76441406 31.4334375 58.52882813 32.171875 59.31640625 C40.60743034 68.15579137 50.6514497 74.61789694 61 81 C61.91523438 81.57234375 62.83046875 82.1446875 63.7734375 82.734375 C64.65257812 83.27578125 65.53171875 83.8171875 66.4375 84.375 C67.21996094 84.85710937 68.00242187 85.33921875 68.80859375 85.8359375 C70.89227269 86.94277587 72.69473487 87.54839909 75 88 C75 88.66 75 89.32 75 90 C76.010625 90.268125 77.02125 90.53625 78.0625 90.8125 C81.85856982 91.89380474 85.39212026 93.39649789 89 95 C89.825 95.33 90.65 95.66 91.5 96 C93.44829983 96.77931993 95.35882711 97.65328226 97.25 98.5625 C101.37539764 100.36565394 105.5444276 100.70700318 110 101 C110 101.99 110 102.98 110 104 C103.63988911 103.45840252 98.25131058 101.92836521 92.3125 99.625 C91.40693359 99.2755835 90.50136719 98.92616699 89.56835938 98.56616211 C70.21100431 90.87298278 52.9182297 80.39935812 37 67 C36.17886719 66.31421875 35.35773438 65.6284375 34.51171875 64.921875 C17.88798127 50.54738349 3.86444248 30.02732216 0 8 C-0.13063032 5.30808229 -0.09635552 2.69795461 0 0 Z " fill="#7DA2BC" transform="translate(394,627)"/>
<path d="M0 0 C0.33 0.66 0.66 1.32 1 2 C-0.78069223 4.67414989 -2.57630564 7.33793235 -4.375 10 C-4.88289062 10.763125 -5.39078125 11.52625 -5.9140625 12.3125 C-6.64882813 13.3953125 -6.64882813 13.3953125 -7.3984375 14.5 C-7.84880371 15.1703125 -8.29916992 15.840625 -8.76318359 16.53125 C-9.37540771 17.25828125 -9.37540771 17.25828125 -10 18 C-10.66 18 -11.32 18 -12 18 C-12.26554688 18.59095459 -12.53109375 19.18190918 -12.8046875 19.79077148 C-20.15261182 33.37152459 -39.35303699 43.81760521 -53 50 C-53.67579102 50.30631348 -54.35158203 50.61262695 -55.04785156 50.92822266 C-73.39411841 59.03461422 -92.6459563 62.12658223 -112.375 64.875 C-113.18844879 64.99063293 -114.00189758 65.10626587 -114.83999634 65.22540283 C-117.19134712 65.5557076 -119.54424596 65.87034977 -121.8984375 66.1796875 C-122.94578819 66.32763763 -122.94578819 66.32763763 -124.01429749 66.47857666 C-128.9246389 67.09610154 -133.15316442 66.76479069 -138 66 C-138 65.67 -138 65.34 -138 65 C-136.54207031 64.83564453 -136.54207031 64.83564453 -135.0546875 64.66796875 C-119.00033257 62.83420377 -102.98114318 60.79443656 -87.0625 58 C-86.15733643 57.84611816 -85.25217285 57.69223633 -84.31958008 57.53369141 C-79.163716 56.59820042 -74.7916397 55.19455996 -70 53 C-67.94216963 52.25261745 -65.8706074 51.5556722 -63.79589844 50.85668945 C-56.78474458 48.49361837 -50.28090128 45.97742723 -44 42 C-42.6696875 41.2265625 -42.6696875 41.2265625 -41.3125 40.4375 C-39.47221167 39.29353699 -37.66683973 38.09345102 -35.875 36.875 C-33 35 -33 35 -30 34 C-29.67 33.01 -29.34 32.02 -29 31 C-27.46875 29.7109375 -27.46875 29.7109375 -25.5 28.375 C-16.75716602 22.04506285 -8.66805231 13.83547765 -4 4 C-3.34 4 -2.68 4 -2 4 C-1.34 2.68 -0.68 1.36 0 0 Z " fill="#7DA2BC" transform="translate(771,471)"/>
<path d="M0 0 C0 2 0 2 -1.875 4.125 C-4 6 -4 6 -6 6 C-6 6.66 -6 7.32 -6 8 C-4.77990234 8.00386719 -4.77990234 8.00386719 -3.53515625 8.0078125 C8.41850814 8.41119825 19.8263339 11.58969004 30 18 C31.6937789 18.71659876 33.38770497 19.43285846 35.08325195 20.14526367 C43.68239711 23.97988438 51.33892992 29.49472287 59.0625 34.8125 C60.22566501 35.60908393 61.38907489 36.40531045 62.55273438 37.20117188 C65.37090838 39.13062711 68.18657208 41.0636339 71 43 C71.33 42.67 71.66 42.34 72 42 C71.01 40.68 70.02 39.36 69 38 C69.495 37.01 69.495 37.01 70 36 C78.5 44.5 78.5 44.5 87 53 C81.43901799 52.50472504 77.66339773 50.40044221 73 47.5625 C72.25451904 47.11729004 71.50903809 46.67208008 70.7409668 46.21337891 C65.93986727 43.30315665 61.33912584 40.19288811 56.8125 36.875 C36.38570317 21.91816466 14.21622654 12.2951296 -11 10 C-9.63088196 6.8510285 -8.1247864 4.9521513 -5.5 2.75 C-4.8915625 2.22921875 -4.283125 1.7084375 -3.65625 1.171875 C-2 0 -2 0 0 0 Z " fill="#7DA2BC" transform="translate(344,500)"/>
<path d="M0 0 C0.495 0.99 0.495 0.99 1 2 C0.34 2 -0.32 2 -1 2 C-1.2784375 3.0209375 -1.2784375 3.0209375 -1.5625 4.0625 C-3.22240971 7.45448941 -5.22582153 9.32849607 -7.93359375 11.90625 C-11.15363597 15.16890147 -13.94167052 18.7640542 -16.7890625 22.3515625 C-19.06294235 25.07539738 -21.46185306 27.52070864 -24 30 C-25.19927678 31.19655501 -26.39708214 32.39458583 -27.59375 33.59375 C-30.19791667 36.19791667 -32.80208333 38.80208333 -35.40625 41.40625 C-36.02773926 42.02790039 -36.64922852 42.64955078 -37.28955078 43.29003906 C-38.69966483 44.69975056 -40.1113405 46.10789982 -41.5234375 47.515625 C-43.48691839 49.48529984 -45.43732331 51.4657858 -47.3828125 53.453125 C-57.2031113 63.44490596 -67.09026105 72.50127547 -79 80 C-77.6849467 77.03415209 -76.34789428 75.1547323 -73.8828125 73.0546875 C-73.27566406 72.53519531 -72.66851563 72.01570313 -72.04296875 71.48046875 C-71.41003906 70.95066406 -70.77710938 70.42085938 -70.125 69.875 C-69.18720703 69.06869141 -69.18720703 69.06869141 -68.23046875 68.24609375 C-65.2552898 65.72379616 -62.5553303 63.65488347 -59 62 C-59 61.34 -59 60.68 -59 60 C-57.72680664 58.74584961 -57.72680664 58.74584961 -55.84765625 57.21484375 C-50.0069619 52.24581807 -44.65445915 46.80395146 -39.24536133 41.37573242 C-37.44137915 39.56639067 -35.63211335 37.76245681 -33.82226562 35.95898438 C-27.99970042 30.1398257 -22.33209535 24.27735146 -17 18 C-15.30656721 16.11092951 -13.5901257 14.24454216 -11.875 12.375 C-9.1796905 9.42572517 -6.51950574 6.47593014 -4 3.375 C-2 1 -2 1 0 0 Z " fill="#7DA2BC" transform="translate(761,306)"/>
<path d="M0 0 C1.57322021 -0.0009668 1.57322021 -0.0009668 3.17822266 -0.00195312 C10.96398382 0.04955394 18.59572532 0.64065967 26.33129883 1.47143555 C37.79715361 2.62123507 49.30362414 2.36676598 60.8125 2.1875 C60.8125 2.8475 60.8125 3.5075 60.8125 4.1875 C55.29918369 5.11255307 49.96150017 5.37923581 44.375 5.375 C43.46758057 5.37564453 42.56016113 5.37628906 41.62524414 5.37695312 C34.62641077 5.32451402 27.71646992 4.83392556 20.75 4.1875 C-1.12373449 2.19499239 -20.3854226 1.78148607 -40.0546875 12.54296875 C-43.1875 14.1875 -43.1875 14.1875 -45.1875 14.1875 C-45.1875 13.5275 -45.1875 12.8675 -45.1875 12.1875 C-32.32816014 1.86977084 -15.84621976 -0.01037566 0 0 Z " fill="#7DA2BC" transform="translate(453.1875,456.8125)"/>
<path d="M0 0 C0.98097656 0.45890625 1.96195312 0.9178125 2.97265625 1.390625 C17.9079129 8.24015256 32.83576434 11.55592313 49 14 C49 14.33 49 14.66 49 15 C35.41501612 15.91378815 22.53102863 13.38481953 10 8 C10 7.34 10 6.68 10 6 C9.01 6 8.02 6 7 6 C17.6604466 19.59030445 33.34775603 27.29950134 50 31 C50 31.33 50 31.66 50 32 C44.57253259 32.28824633 40.25837426 31.40156834 35.25 29.4375 C34.55044189 29.16647461 33.85088379 28.89544922 33.13012695 28.61621094 C19.9721974 23.3282613 7.42067807 14.28250164 0 2 C0 1.34 0 0.68 0 0 Z " fill="#7DA2BC" transform="translate(390,730)"/>
<path d="M0 0 C12.34404092 4.22411329 21.52599634 17.70124671 28.22265625 28.34375 C29 30 29 30 29 33 C29.66 33 30.32 33 31 33 C31.66 35.31 32.32 37.62 33 40 C33.66 40 34.32 40 35 40 C35 32.08 35 24.16 35 16 C41.01377594 25.02066391 37.7731084 41.6165595 37 52 C36.01 52 35.02 52 34 52 C33.72027344 50.98421875 33.44054687 49.9684375 33.15234375 48.921875 C28.16280054 31.50839045 18.20596549 13.6532221 2.5 3.625 C1.675 3.08875 0.85 2.5525 0 2 C0 1.34 0 0.68 0 0 Z " fill="#7DA2BC" transform="translate(523,687)"/>
<path d="M0 0 C3.46739222 2.0948828 5.80415137 4.08631356 7 8 C7.67397738 13.87323149 7.03103517 16.84770023 3.484375 21.5546875 C0.42260254 24.535887 -2.60737956 25.34106631 -6.8125 25.5 C-11.79546229 25.42628754 -14.21269335 23.9269293 -17.72265625 20.5078125 C-20.44676018 17.29220358 -20.33617941 14.38651023 -20.27734375 10.3203125 C-19.84203773 6.67845649 -18.43146136 4.68740466 -16 2 C-10.8970027 -1.76649801 -5.93773992 -1.46708766 0 0 Z M-15 4 C-17.85631327 7.34878108 -18.66999643 10.57705763 -18.46875 14.99609375 C-17.74002376 18.11139841 -16.29991518 19.856946 -13.9140625 21.9375 C-9.50507279 24.38493918 -4.82703074 23.43689866 -0.125 22.3125 C2.72611897 20.55151476 3.69600069 19.08841941 5 16 C5.37437949 11.73207376 5.33991708 8.65612044 3 5 C2.01 5 1.02 5 0 5 C0 4.34 0 3.68 0 3 C-4.50574375 0.74712812 -10.75365755 1.45219453 -15 4 Z " fill="#7DA2BC" transform="translate(437,483)"/>
<path d="M0 0 C-1.09068668 3.77545388 -1.9083091 6.47043472 -5 9 C-5.495 7.02 -5.495 7.02 -6 5 C-6.68964844 5.40992188 -7.37929688 5.81984375 -8.08984375 6.2421875 C-13.32311183 9.24288168 -17.9259687 11.53711045 -23.87890625 12.56640625 C-26.10879654 13.02224018 -28.02672024 13.75105238 -30.125 14.625 C-33.92061043 16.14171983 -36.93794197 16.25387863 -41 16 C-41 16.66 -41 17.32 -41 18 C-50.74865079 19.94048973 -60.00465638 21.51998897 -70 21 C-67.62238363 18.62238363 -66.69631717 18.61510892 -63.43359375 18.17578125 C-62.48516602 18.03793213 -61.53673828 17.90008301 -60.55957031 17.75805664 C-59.52928711 17.61102295 -58.49900391 17.46398926 -57.4375 17.3125 C-39.7881952 14.58105997 -19.77692102 10.84547782 -4.328125 1.359375 C-2 0 -2 0 0 0 Z " fill="#7DA2BC" transform="translate(777,462)"/>
<path d="M0 0 C0.99 0 1.98 0 3 0 C4.87400562 2.01932431 6.52914717 4.0008148 8.1875 6.1875 C8.6736377 6.81954346 9.15977539 7.45158691 9.66064453 8.1027832 C19.54553832 21.15741342 29.5930334 36.09854804 29 53 C27.42470031 50.04802536 26.33195245 47.14184078 25.375 43.9375 C25.11460937 43.08027344 24.85421875 42.22304688 24.5859375 41.33984375 C24 39 24 39 24 36 C23.34 36 22.68 36 22 36 C21.75765625 35.443125 21.5153125 34.88625 21.265625 34.3125 C20.19205338 31.86806 19.09875081 29.43321979 18 27 C17.69964844 26.319375 17.39929688 25.63875 17.08984375 24.9375 C14.47883133 19.33117031 10.88598846 14.78089452 7 10 C5.68289858 8.33696727 4.3702358 6.67040747 3.0625 5 C2.47597656 4.2575 1.88945313 3.515 1.28515625 2.75 C0 1 0 1 0 0 Z " fill="#7DA2BC" transform="translate(529,649)"/>
<path d="M0 0 C-6.95915912 3.7373262 -13.98595142 7 -22 7 C-22 7.66 -22 8.32 -22 9 C-22.57854736 9.21092285 -23.15709473 9.4218457 -23.75317383 9.63916016 C-38.35291445 14.91136388 -38.35291445 14.91136388 -52.13671875 21.96875 C-54 23 -54 23 -56 23 C-55 20 -55 20 -53.21948242 18.80834961 C-52.43935791 18.42686768 -51.6592334 18.04538574 -50.85546875 17.65234375 C-49.96384033 17.21631836 -49.07221191 16.78029297 -48.15356445 16.33105469 C-46.68536255 15.64124512 -46.68536255 15.64124512 -45.1875 14.9375 C-44.18098389 14.46086914 -43.17446777 13.98423828 -42.13745117 13.49316406 C-33.83962668 9.66096991 -25.40136321 6.35691916 -16.8125 3.25 C-14.99625122 2.58665649 -14.99625122 2.58665649 -13.14331055 1.90991211 C-12.00933838 1.51167236 -10.87536621 1.11343262 -9.70703125 0.703125 C-8.7013208 0.34895508 -7.69561035 -0.00521484 -6.65942383 -0.37011719 C-3.94431459 -1.01318905 -2.58339093 -0.95337143 0 0 Z " fill="#7DA2BC" transform="translate(617,265)"/>
<path d="M0 0 C5.5155774 2.21576112 7.51913458 6.85116479 10 12 C14.2697268 23.28866619 13.65731495 34.34996868 9.17578125 45.48046875 C7.45200809 49.17426837 5.65835992 52.88330217 3 56 C1.515 56.495 1.515 56.495 0 57 C0.39866974 54.68771551 0.64570291 53.33522727 2.37890625 51.6953125 C8.34788744 45.45305266 9.82813969 35.7287625 10.12890625 27.453125 C9.75946223 17.55650344 6.41402583 10.1372484 1 2 C0.67 1.34 0.34 0.68 0 0 Z " fill="#7DA2BC" transform="translate(662,736)"/>
<path d="M0 0 C-9.23766739 6.15844493 -20.59646778 11.92461072 -32 11 C-32.33 11.66 -32.66 12.32 -33 13 C-36.87454177 13.1979005 -40.7496362 13.3814709 -44.625 13.5625 C-45.71941406 13.61857422 -46.81382812 13.67464844 -47.94140625 13.73242188 C-49.00488281 13.78076172 -50.06835938 13.82910156 -51.1640625 13.87890625 C-52.13811035 13.9260376 -53.1121582 13.97316895 -54.11572266 14.02172852 C-57.17499807 13.99868166 -59.9999001 13.57784025 -63 13 C-63 12.67 -63 12.34 -63 12 C-61.92854736 11.93268677 -61.92854736 11.93268677 -60.83544922 11.86401367 C-41.03258698 10.58306487 -18.43842548 -0.48522172 0 0 Z " fill="#7DA2BC" transform="translate(505,733)"/>
<path d="M0 0 C-12.56681406 7.37091979 -27.2456412 10.17645038 -41.6875 10.1875 C-42.54150391 10.19974609 -43.39550781 10.21199219 -44.27539062 10.22460938 C-45.50612305 10.22750977 -45.50612305 10.22750977 -46.76171875 10.23046875 C-47.8748645 10.23663208 -47.8748645 10.23663208 -49.01049805 10.24291992 C-51 10 -51 10 -54 8 C-53.20416504 7.9498877 -52.40833008 7.89977539 -51.58837891 7.84814453 C-47.93343707 7.61403715 -44.27925468 7.36959047 -40.625 7.125 C-39.37332031 7.04636719 -38.12164062 6.96773437 -36.83203125 6.88671875 C-25.54120666 6.11823331 -16.2222125 4.34193735 -5.78515625 -0.07421875 C-3 -1 -3 -1 0 0 Z " fill="#7DA2BC" transform="translate(497,754)"/>
<path d="M0 0 C0.33 0.66 0.66 1.32 1 2 C2.14855469 1.9278125 3.29710937 1.855625 4.48046875 1.78125 C13.67060608 1.22484302 22.78996524 0.85355068 32 1 C31.67 1.66 31.34 2.32 31 3 C28.12640236 3.41919006 25.33250972 3.71036755 22.44140625 3.921875 C21.58191879 3.99037659 20.72243134 4.05887817 19.8368988 4.12945557 C18.01557323 4.27188172 16.19385956 4.40941512 14.37182617 4.54248047 C11.57656723 4.74896088 8.78363694 4.97693706 5.99023438 5.20703125 C4.22405782 5.34244963 2.45778398 5.47660646 0.69140625 5.609375 C-0.14821152 5.6790448 -0.98782928 5.7487146 -1.85289001 5.82049561 C-3.89791683 5.96190555 -5.95010955 5.99102373 -8 6 C-8.66 5.34 -9.32 4.68 -10 4 C-7.29131069 -0.06303397 -4.80269119 -1.98732049 0 0 Z " fill="#7DA2BC" transform="translate(673,482)"/>
<path d="M0 0 C-0.66 0 -1.32 0 -2 0 C-2 0.66 -2 1.32 -2 2 C-2.70382812 2.29132813 -3.40765625 2.58265625 -4.1328125 2.8828125 C-5.12023437 3.29273438 -6.10765625 3.70265625 -7.125 4.125 C-8.22070312 4.57875 -9.31640625 5.0325 -10.4453125 5.5 C-12.80501621 6.49574311 -15.15433574 7.51648131 -17.4921875 8.5625 C-36.63002656 17.08714991 -36.63002656 17.08714991 -44 15 C-43.17910889 14.69296143 -42.35821777 14.38592285 -41.51245117 14.06958008 C-38.41184377 12.90775231 -35.31258068 11.74246314 -32.21411133 10.57495117 C-30.88323881 10.07425067 -29.55187282 9.57485951 -28.2199707 9.0769043 C-26.28458972 8.35304994 -24.35082143 7.62510875 -22.41796875 6.89453125 C-21.78470673 6.65566193 -21.1514447 6.4167926 -20.49899292 6.17068481 C-15.61856793 4.30208098 -10.9253282 2.1478354 -6.26293945 -0.20825195 C-3.6962485 -1.10627534 -2.51359989 -0.93100303 0 0 Z " fill="#7DA2BC" transform="translate(754,402)"/>
<path d="M0 0 C0.66 0.33 1.32 0.66 2 1 C2.34771368 3.51260928 2.56479206 5.91159553 2.6875 8.4375 C2.7280249 9.15873047 2.7685498 9.87996094 2.81030273 10.62304688 C3.07300565 16.15649736 2.85654713 21.51809837 2 27 C1.67 27 1.34 27 1 27 C0.67 22.71 0.34 18.42 0 14 C-0.51949219 15.09699219 -1.03898438 16.19398438 -1.57421875 17.32421875 C-2.27810134 18.77890943 -2.98255902 20.23332193 -3.6875 21.6875 C-4.02716797 22.40873047 -4.36683594 23.12996094 -4.71679688 23.87304688 C-6.94033326 28.42402322 -9.20702474 31.63215682 -13 35 C-11.82742777 31.94402161 -10.53727145 28.96383573 -9.16015625 25.99609375 C-5.20538956 17.43181009 -1.75410268 9.3186705 0 0 Z " fill="#7DA2BC" transform="translate(786,150)"/>
<path d="M0 0 C1 2 1 2 0.44140625 4.1640625 C0.15136719 4.97617187 -0.13867188 5.78828125 -0.4375 6.625 C-0.86869141 7.85089844 -0.86869141 7.85089844 -1.30859375 9.1015625 C-1.53675781 9.72804688 -1.76492188 10.35453125 -2 11 C-3.05058594 11.17015625 -4.10117187 11.3403125 -5.18359375 11.515625 C-12.96633613 12.83531547 -19.96936632 14.25970288 -27 18 C-28.41660693 18.68762307 -29.83327272 19.37512491 -31.25 20.0625 C-34.25034279 21.58067345 -37.14693301 23.21683313 -40 25 C-38.51765181 20.74300006 -35.50567905 19.09150721 -31.75 17 C-31.13318359 16.65187256 -30.51636719 16.30374512 -29.88085938 15.94506836 C-22.65368348 12.03583986 -14.89001888 9.56267121 -6.70703125 8.62109375 C-5.81371094 8.41613281 -4.92039062 8.21117187 -4 8 C-2.11529559 4.57508141 -2.11529559 4.57508141 -1 1 C-0.67 0.67 -0.34 0.34 0 0 Z " fill="#7DA2BC" transform="translate(385,475)"/>
<path d="M0 0 C-6.54059084 4.65783285 -13.2975369 8.2902151 -20.5625 11.6875 C-21.55185547 12.15994141 -22.54121094 12.63238281 -23.56054688 13.11914062 C-38.10396213 20 -38.10396213 20 -43 20 C-43 19.34 -43 18.68 -43 18 C-41.65421875 17.48953125 -41.65421875 17.48953125 -40.28125 16.96875 C-27.94673628 12.20838295 -15.9765048 6.64959922 -4.69921875 -0.28515625 C-3 -1 -3 -1 0 0 Z " fill="#7DA2BC" transform="translate(731,257)"/>
<path d="M0 0 C-0.66 1.32 -1.32 2.64 -2 4 C-2.66 4 -3.32 4 -4 4 C-4.2784375 4.56976563 -4.556875 5.13953125 -4.84375 5.7265625 C-5.59391163 7.20154247 -6.38395459 8.65715305 -7.21875 10.0859375 C-11.17517217 17.15442346 -12.22740769 23.99732741 -13 32 C-15.24986617 29.75013383 -15.67917027 28.23842805 -16.015625 25.11328125 C-15.94108249 15.03140647 -9.81992858 8.29496961 -3.375 1.21484375 C-2 0 -2 0 0 0 Z " fill="#7DA2BC" transform="translate(407,472)"/>
<path d="M0 0 C3.26990212 1.63495106 4.12825965 5.1814474 5.625 8.375 C8.69314866 14.75147528 12.06416959 20.27965312 16.43359375 25.86328125 C18 28 18 28 19 31 C15.55201735 29.58677106 14.08583641 28.07816171 12.125 24.9375 C11.36123047 23.73287109 11.36123047 23.73287109 10.58203125 22.50390625 C10.05996094 21.67761719 9.53789062 20.85132813 9 20 C7.93959458 18.45689187 6.87715311 16.91518055 5.8125 15.375 C2.48946241 10.37736079 0 6.14933054 0 0 Z " fill="#7DA2BC" transform="translate(394,505)"/>
<path d="M0 0 C3.43595166 1.52708963 6.11912454 3.59927045 9 6 C7.68 6.33 6.36 6.66 5 7 C5.66 7.66 6.32 8.32 7 9 C6.67 9.99 6.34 10.98 6 12 C1.30021142 9.10782241 1.30021142 9.10782241 0.4453125 5.953125 C0.21402785 3.97669255 0.09937182 1.98743631 0 0 Z " fill="#7DA2BC" transform="translate(514,680)"/>
<path d="M0 0 C3.36016893 1.12005631 4.69064913 2.37211797 7 5 C7 5.66 7 6.32 7 7 C5.1875 6.875 5.1875 6.875 3 6 C1.25 2.9375 1.25 2.9375 0 0 Z M-6 3 C-3.50638429 4.20381448 -1.31856917 5.45428722 1 7 C1.66 6.67 2.32 6.34 3 6 C3.66 7.65 4.32 9.3 5 11 C-0.66710699 9.68206814 -2.66437233 7.51290803 -6 3 Z " fill="#7DA2BC" transform="translate(478,696)"/>
<path d="M0 0 C1.18851563 0.10183594 2.37703125 0.20367187 3.6015625 0.30859375 C4.51679687 0.39238281 5.43203125 0.47617187 6.375 0.5625 C6.375 0.8925 6.375 1.2225 6.375 1.5625 C-1.98248222 2.40577749 -10.22697746 2.68440678 -18.625 2.5625 C-18.625 2.2325 -18.625 1.9025 -18.625 1.5625 C-17.57699219 1.47162109 -17.57699219 1.47162109 -16.5078125 1.37890625 C-15.59773437 1.29511719 -14.68765625 1.21132813 -13.75 1.125 C-12.84507812 1.04378906 -11.94015625 0.96257812 -11.0078125 0.87890625 C-2.6367801 -0.23265707 -2.6367801 -0.23265707 0 0 Z " fill="#7DA2BC" transform="translate(685.625,484.4375)"/>
<path d="M0 0 C0.66 0.33 1.32 0.66 2 1 C0.8141763 4.37503669 -0.27573689 6.64722731 -3 9 C-3 7.35 -3 5.7 -3 4 C-3.66 3.67 -4.32 3.34 -5 3 C-2.625 1.4375 -2.625 1.4375 0 0 Z " fill="#7DA2BC" transform="translate(771,466)"/>
<path d="M0 0 C0.99 0.33 1.98 0.66 3 1 C2.54554036 2.41791408 2.08625056 3.83428046 1.625 5.25 C1.36976563 6.03890625 1.11453125 6.8278125 0.8515625 7.640625 C0.04826333 9.86627958 -0.89711662 11.90931672 -2 14 C-2.05389087 12.04196493 -2.09274217 10.08351091 -2.125 8.125 C-2.14820313 7.03445313 -2.17140625 5.94390625 -2.1953125 4.8203125 C-2 2 -2 2 0 0 Z " fill="#7DA2BC" transform="translate(805,363)"/>
<path d="M0 0 C4.31392226 0.4793247 6.16569547 1.7457985 9 5 C6.36 5 3.72 5 1 5 C1 4.01 1 3.02 1 2 C0.67 1.34 0.34 0.68 0 0 Z " fill="#7DA2BC" transform="translate(508,743)"/>
<path d="M0 0 C0 0.33 0 0.66 0 1 C-1.74818591 1.22304441 -3.49870323 1.4278645 -5.25 1.625 C-6.22453125 1.74101562 -7.1990625 1.85703125 -8.203125 1.9765625 C-11.13429393 2.00112537 -12.54528964 1.5312717 -15 0 C-9.65370398 -1.0024305 -5.37625234 -0.84888195 0 0 Z " fill="#7DA2BC" transform="translate(731,480)"/>
<path d="M0 0 C-1.26418246 0.69965443 -2.53665402 1.38434763 -3.8125 2.0625 C-4.52019531 2.44535156 -5.22789062 2.82820313 -5.95703125 3.22265625 C-8 4 -8 4 -11 3 C-10.34 2.34 -9.68 1.68 -9 1 C-9 0.67 -9 0.34 -9 0 C-3.375 -1.125 -3.375 -1.125 0 0 Z " fill="#7DA2BC" transform="translate(539,449)"/>
<path d="M0 0 C0 0.66 0 1.32 0 2 C-0.99 2 -1.98 2 -3 2 C-3.268125 2.598125 -3.53625 3.19625 -3.8125 3.8125 C-4.98493467 5.97224808 -6.19369282 7.35790256 -8 9 C-7.53918323 4.85264908 -4.48412936 0 0 0 Z " fill="#7DA2BC" transform="translate(531,313)"/>
<path d="M0 0 C1.5625 1.6875 1.5625 1.6875 3 4 C2.6875 6.75 2.6875 6.75 2 9 C0.4375 7.3125 0.4375 7.3125 -1 5 C-0.6875 2.25 -0.6875 2.25 0 0 Z " fill="#7DA2BC" transform="translate(550,676)"/>
<path d="M0 0 C0.66 1.32 1.32 2.64 2 4 C1.01 4.99 0.02 5.98 -1 7 C-1.66 6.34 -2.32 5.68 -3 5 C-2.01 3.35 -1.02 1.7 0 0 Z " fill="#7DA2BC" transform="translate(597,738)"/>
<path d="M0 0 C3 1 3 1 3 1 Z " fill="#7DA2BC" transform="translate(668,535)"/>
<path d="M0 0 C2 1 2 1 2 1 Z " fill="#7DA2BC" transform="translate(481,797)"/>
<path d="M0 0 C2 1 2 1 2 1 Z " fill="#7DA2BC" transform="translate(568,280)"/>
<path d="M0 0 C2 1 2 1 2 1 Z " fill="#7DA2BC" transform="translate(633,256)"/>
<path d="" fill="#7DA2BC" transform="translate(0,0)"/>
<path d="" fill="#7DA2BC" transform="translate(0,0)"/>
<path d="" fill="#7DA2BC" transform="translate(0,0)"/>
<path d="" fill="#7DA2BC" transform="translate(0,0)"/>
<path d="" fill="#7DA2BC" transform="translate(0,0)"/>
<path d="" fill="#7DA2BC" transform="translate(0,0)"/>
<path d="" fill="#7DA2BC" transform="translate(0,0)"/>
<path d="" fill="#7DA2BC" transform="translate(0,0)"/>
<path d="" fill="#7DA2BC" transform="translate(0,0)"/>
<path d="" fill="#7DA2BC" transform="translate(0,0)"/>
<path d="" fill="#7DA2BC" transform="translate(0,0)"/>
<path d="" fill="#7DA2BC" transform="translate(0,0)"/>
<path d="" fill="#7DA2BC" transform="translate(0,0)"/>
<path d="" fill="#7DA2BC" transform="translate(0,0)"/>
<path d="" fill="#7DA2BC" transform="translate(0,0)"/>
<path d="" fill="#7DA2BC" transform="translate(0,0)"/>
<path d="" fill="#7DA2BC" transform="translate(0,0)"/>
<path d="" fill="#7DA2BC" transform="translate(0,0)"/>
<path d="" fill="#7DA2BC" transform="translate(0,0)"/>
<path d="" fill="#7DA2BC" transform="translate(0,0)"/>
<path d="" fill="#7DA2BC" transform="translate(0,0)"/>
<path d="" fill="#7DA2BC" transform="translate(0,0)"/>
<path d="" fill="#7DA2BC" transform="translate(0,0)"/>
<path d="" fill="#7DA2BC" transform="translate(0,0)"/>
<path d="" fill="#7DA2BC" transform="translate(0,0)"/>
<path d="" fill="#7DA2BC" transform="translate(0,0)"/>
<path d="" fill="#7DA2BC" transform="translate(0,0)"/>
<path d="" fill="#7DA2BC" transform="translate(0,0)"/>
<path d="" fill="#7DA2BC" transform="translate(0,0)"/>
<path d="" fill="#7DA2BC" transform="translate(0,0)"/>
<path d="" fill="#7DA2BC" transform="translate(0,0)"/>
<path d="" fill="#7DA2BC" transform="translate(0,0)"/>
<path d="" fill="#7DA2BC" transform="translate(0,0)"/>
<path d="" fill="#7DA2BC" transform="translate(0,0)"/>
<path d="" fill="#7DA2BC" transform="translate(0,0)"/>
<path d="" fill="#7DA2BC" transform="translate(0,0)"/>
<path d="" fill="#7DA2BC" transform="translate(0,0)"/>
<path d="" fill="#7DA2BC" transform="translate(0,0)"/>
<path d="" fill="#7DA2BC" transform="translate(0,0)"/>
<path d="" fill="#7DA2BC" transform="translate(0,0)"/>
<path d="" fill="#7DA2BC" transform="translate(0,0)"/>
<path d="" fill="#7DA2BC" transform="translate(0,0)"/>
</svg>
